<?xml version="1.0" encoding="utf-8" standalone="no"?>
<!DOCTYPE svg PUBLIC "-//W3C//DTD SVG 1.1//EN"
  "http://www.w3.org/Graphics/SVG/1.1/DTD/svg11.dtd">
<!-- Created with matplotlib (https://matplotlib.org/) -->
<svg height="337.376125pt" version="1.1" viewBox="0 0 445.060625 337.376125" width="445.060625pt" xmlns="http://www.w3.org/2000/svg" xmlns:xlink="http://www.w3.org/1999/xlink">
 <metadata>
  <rdf:RDF xmlns:cc="http://creativecommons.org/ns#" xmlns:dc="http://purl.org/dc/elements/1.1/" xmlns:rdf="http://www.w3.org/1999/02/22-rdf-syntax-ns#">
   <cc:Work>
    <dc:type rdf:resource="http://purl.org/dc/dcmitype/StillImage"/>
    <dc:date>2022-12-08T16:59:50.876745</dc:date>
    <dc:format>image/svg+xml</dc:format>
    <dc:creator>
     <cc:Agent>
      <dc:title>Matplotlib v3.3.4, https://matplotlib.org/</dc:title>
     </cc:Agent>
    </dc:creator>
   </cc:Work>
  </rdf:RDF>
 </metadata>
 <defs>
  <style type="text/css">*{stroke-linecap:butt;stroke-linejoin:round;}</style>
 </defs>
 <g id="figure_1">
  <g id="patch_1">
   <path d="M 0 337.376125 
L 445.060625 337.376125 
L 445.060625 0 
L 0 0 
z
" style="fill:#ffffff;"/>
  </g>
  <g id="axes_1">
   <g id="patch_2">
    <path d="M 67.379375 292.077375 
L 424.499375 292.077375 
L 424.499375 25.965375 
L 67.379375 25.965375 
z
" style="fill:#ffffff;"/>
   </g>
   <g id="PolyCollection_1">
    <defs>
     <path d="M 67.379375 -58.311061 
L 67.379375 -58.304086 
L 70.986648 -58.304796 
L 74.59392 -58.306768 
L 78.201193 -58.311402 
L 81.808466 -58.303897 
L 85.415739 -58.31085 
L 89.023011 -58.301722 
L 92.630284 -58.3007 
L 96.237557 -58.295976 
L 99.84483 -58.301491 
L 103.452102 -58.30328 
L 107.059375 -58.296846 
L 110.666648 -58.296895 
L 114.27392 -58.296963 
L 117.881193 -58.28877 
L 121.488466 -58.283104 
L 125.095739 -58.277944 
L 128.703011 -58.243363 
L 132.310284 -58.218735 
L 135.917557 -57.555302 
L 139.52483 -58.060012 
L 143.132102 -57.762103 
L 146.739375 -57.39475 
L 150.346648 -57.76426 
L 153.95392 -58.80988 
L 157.561193 -58.827578 
L 161.168466 -61.716683 
L 164.775739 -65.281083 
L 168.383011 -63.316259 
L 171.990284 -66.663138 
L 175.597557 -69.722515 
L 179.20483 -75.111385 
L 182.812102 -76.353874 
L 186.419375 -83.738527 
L 190.026648 -90.338994 
L 193.63392 -91.914849 
L 197.241193 -99.005549 
L 200.848466 -105.193953 
L 204.455739 -106.480056 
L 208.063011 -113.645193 
L 211.670284 -117.963061 
L 215.277557 -122.141809 
L 218.88483 -122.432094 
L 222.492102 -127.583836 
L 226.099375 -131.182211 
L 229.706648 -137.80351 
L 233.31392 -136.568317 
L 236.921193 -141.44145 
L 240.528466 -143.548617 
L 244.135739 -146.141681 
L 247.743011 -145.484651 
L 251.350284 -148.907457 
L 254.957557 -152.211367 
L 258.56483 -151.726718 
L 262.172102 -156.851858 
L 265.779375 -158.323298 
L 269.386648 -158.670686 
L 272.99392 -160.687349 
L 276.601193 -161.002142 
L 280.208466 -167.170055 
L 283.815739 -167.744567 
L 287.423011 -168.433517 
L 291.030284 -170.335038 
L 294.637557 -172.730116 
L 298.24483 -175.024543 
L 301.852102 -176.768628 
L 305.459375 -178.11081 
L 309.066648 -179.346852 
L 312.67392 -181.770071 
L 316.281193 -179.877948 
L 319.888466 -181.409028 
L 323.495739 -183.950996 
L 327.103011 -181.997276 
L 330.710284 -185.21662 
L 334.317557 -186.639344 
L 337.92483 -185.704688 
L 341.532102 -187.496727 
L 345.139375 -189.382355 
L 348.746648 -187.214816 
L 352.35392 -189.456137 
L 355.961193 -188.740808 
L 359.568466 -190.915689 
L 363.175739 -189.027317 
L 366.783011 -193.581994 
L 370.390284 -194.527586 
L 373.997557 -189.596265 
L 377.60483 -193.475346 
L 381.212102 -197.234503 
L 384.819375 -193.688508 
L 388.426648 -197.05079 
L 392.03392 -194.491356 
L 395.641193 -200.617152 
L 399.248466 -196.934115 
L 402.855739 -198.589554 
L 406.463011 -200.841084 
L 410.070284 -200.898383 
L 413.677557 -202.223864 
L 417.28483 -200.807882 
L 420.892102 -202.168451 
L 424.499375 -202.508081 
L 424.499375 -271.633427 
L 424.499375 -271.633427 
L 420.892102 -273.825053 
L 417.28483 -269.039758 
L 413.677557 -269.681367 
L 410.070284 -267.388569 
L 406.463011 -267.602695 
L 402.855739 -264.505035 
L 399.248466 -262.508907 
L 395.641193 -264.62564 
L 392.03392 -257.040619 
L 388.426648 -263.901955 
L 384.819375 -257.264627 
L 381.212102 -264.981099 
L 377.60483 -260.464468 
L 373.997557 -252.63105 
L 370.390284 -257.795518 
L 366.783011 -255.65484 
L 363.175739 -253.337738 
L 359.568466 -256.798425 
L 355.961193 -247.72957 
L 352.35392 -253.191202 
L 348.746648 -246.963306 
L 345.139375 -249.455545 
L 341.532102 -244.727642 
L 337.92483 -238.873582 
L 334.317557 -245.211061 
L 330.710284 -238.57685 
L 327.103011 -237.550785 
L 323.495739 -238.707029 
L 319.888466 -234.454587 
L 316.281193 -227.773779 
L 312.67392 -234.854317 
L 309.066648 -232.293094 
L 305.459375 -230.55635 
L 301.852102 -225.792296 
L 298.24483 -225.088479 
L 294.637557 -225.097227 
L 291.030284 -217.581335 
L 287.423011 -217.262502 
L 283.815739 -214.185263 
L 280.208466 -214.275716 
L 276.601193 -210.465834 
L 272.99392 -213.735071 
L 269.386648 -207.025314 
L 265.779375 -200.690018 
L 262.172102 -197.866106 
L 258.56483 -192.849138 
L 254.957557 -186.441834 
L 251.350284 -187.977393 
L 247.743011 -182.241596 
L 244.135739 -179.394389 
L 240.528466 -173.56077 
L 236.921193 -172.751348 
L 233.31392 -167.170195 
L 229.706648 -167.291643 
L 226.099375 -160.125844 
L 222.492102 -154.557789 
L 218.88483 -150.159225 
L 215.277557 -148.362766 
L 211.670284 -144.239645 
L 208.063011 -137.846922 
L 204.455739 -131.162639 
L 200.848466 -123.36975 
L 197.241193 -119.480345 
L 193.63392 -113.359708 
L 190.026648 -113.193632 
L 186.419375 -107.005035 
L 182.812102 -100.980075 
L 179.20483 -96.916784 
L 175.597557 -93.202816 
L 171.990284 -90.525868 
L 168.383011 -87.070662 
L 164.775739 -85.962218 
L 161.168466 -79.478177 
L 157.561193 -77.486329 
L 153.95392 -74.73918 
L 150.346648 -72.499961 
L 146.739375 -68.654361 
L 143.132102 -66.202507 
L 139.52483 -62.780592 
L 135.917557 -62.304351 
L 132.310284 -58.932754 
L 128.703011 -58.668211 
L 125.095739 -58.434829 
L 121.488466 -58.352385 
L 117.881193 -58.353825 
L 114.27392 -58.30835 
L 110.666648 -58.303968 
L 107.059375 -58.303354 
L 103.452102 -58.315935 
L 99.84483 -58.310261 
L 96.237557 -58.301826 
L 92.630284 -58.31087 
L 89.023011 -58.313098 
L 85.415739 -58.31697 
L 81.808466 -58.313922 
L 78.201193 -58.320975 
L 74.59392 -58.316126 
L 70.986648 -58.311842 
L 67.379375 -58.311061 
z
" id="me0f357b3f7" style="stroke:#0000ff;stroke-opacity:0.2;"/>
    </defs>
    <g clip-path="url(#pf4bce3da0e)">
     <use style="fill:#0000ff;fill-opacity:0.2;stroke:#0000ff;stroke-opacity:0.2;" x="0" xlink:href="#me0f357b3f7" y="337.376125"/>
    </g>
   </g>
   <g id="PolyCollection_2">
    <defs>
     <path d="M 67.379375 -87.078161 
L 67.379375 -75.966345 
L 70.986648 -80.535565 
L 74.59392 -82.878465 
L 78.201193 -84.389773 
L 81.808466 -93.552598 
L 85.415739 -98.698065 
L 89.023011 -101.063056 
L 92.630284 -106.474396 
L 96.237557 -111.176462 
L 99.84483 -112.274089 
L 103.452102 -118.474244 
L 107.059375 -120.306439 
L 110.666648 -121.865988 
L 114.27392 -130.323001 
L 117.881193 -133.150991 
L 121.488466 -138.512207 
L 125.095739 -135.277208 
L 128.703011 -137.155083 
L 132.310284 -144.020432 
L 135.917557 -142.33582 
L 139.52483 -146.390532 
L 143.132102 -147.834754 
L 146.739375 -148.276373 
L 150.346648 -154.265962 
L 153.95392 -156.26643 
L 157.561193 -162.663686 
L 161.168466 -161.757014 
L 164.775739 -166.052541 
L 168.383011 -173.979252 
L 171.990284 -161.539772 
L 175.597557 -163.104889 
L 179.20483 -167.798036 
L 182.812102 -171.601246 
L 186.419375 -171.196502 
L 190.026648 -173.823205 
L 193.63392 -178.671852 
L 197.241193 -182.468014 
L 200.848466 -177.258863 
L 204.455739 -177.553518 
L 208.063011 -186.020425 
L 211.670284 -187.893071 
L 215.277557 -185.771172 
L 218.88483 -190.817351 
L 222.492102 -191.260414 
L 226.099375 -195.669984 
L 229.706648 -189.381013 
L 233.31392 -191.763824 
L 236.921193 -197.369668 
L 240.528466 -195.882388 
L 244.135739 -200.58769 
L 247.743011 -202.179785 
L 251.350284 -203.482463 
L 254.957557 -207.174142 
L 258.56483 -207.497303 
L 262.172102 -204.141131 
L 265.779375 -203.807711 
L 269.386648 -205.694624 
L 272.99392 -208.201821 
L 276.601193 -212.257387 
L 280.208466 -216.01226 
L 283.815739 -221.702813 
L 287.423011 -216.123179 
L 291.030284 -216.065164 
L 294.637557 -214.66379 
L 298.24483 -214.906217 
L 301.852102 -214.298901 
L 305.459375 -216.042416 
L 309.066648 -219.414404 
L 312.67392 -219.940343 
L 316.281193 -218.796988 
L 319.888466 -221.872571 
L 323.495739 -224.650111 
L 327.103011 -221.286261 
L 330.710284 -224.304865 
L 334.317557 -222.699471 
L 337.92483 -226.811542 
L 341.532102 -225.356718 
L 345.139375 -225.741271 
L 348.746648 -225.60802 
L 352.35392 -227.282288 
L 355.961193 -230.099194 
L 359.568466 -230.644632 
L 363.175739 -229.859548 
L 366.783011 -234.528395 
L 370.390284 -234.625325 
L 373.997557 -233.642494 
L 377.60483 -229.915219 
L 381.212102 -233.054983 
L 384.819375 -234.326275 
L 388.426648 -234.519593 
L 392.03392 -232.847052 
L 395.641193 -232.449172 
L 399.248466 -235.811099 
L 402.855739 -235.240278 
L 406.463011 -233.831666 
L 410.070284 -236.33452 
L 413.677557 -239.98071 
L 417.28483 -234.889836 
L 420.892102 -241.356923 
L 424.499375 -233.555798 
L 424.499375 -290.526164 
L 424.499375 -290.526164 
L 420.892102 -299.31475 
L 417.28483 -291.860438 
L 413.677557 -296.249759 
L 410.070284 -291.499666 
L 406.463011 -288.409893 
L 402.855739 -291.385896 
L 399.248466 -291.214547 
L 395.641193 -289.74671 
L 392.03392 -289.257442 
L 388.426648 -292.373658 
L 384.819375 -291.510706 
L 381.212102 -291.053487 
L 377.60483 -285.050644 
L 373.997557 -288.154902 
L 370.390284 -289.303034 
L 366.783011 -292.927425 
L 363.175739 -284.420067 
L 359.568466 -283.986762 
L 355.961193 -280.591613 
L 352.35392 -277.801138 
L 348.746648 -276.583925 
L 345.139375 -277.563233 
L 341.532102 -278.059531 
L 337.92483 -280.647086 
L 334.317557 -271.336055 
L 330.710284 -281.989114 
L 327.103011 -270.136462 
L 323.495739 -280.918955 
L 319.888466 -270.862004 
L 316.281193 -268.418515 
L 312.67392 -266.448743 
L 309.066648 -265.111762 
L 305.459375 -267.700121 
L 301.852102 -256.589881 
L 298.24483 -259.860715 
L 294.637557 -260.650151 
L 291.030284 -262.678493 
L 287.423011 -262.261506 
L 283.815739 -272.764369 
L 280.208466 -263.989751 
L 276.601193 -257.524538 
L 272.99392 -253.361061 
L 269.386648 -247.949659 
L 265.779375 -239.833769 
L 262.172102 -248.016774 
L 258.56483 -248.281614 
L 254.957557 -247.419582 
L 251.350284 -239.889707 
L 247.743011 -242.037109 
L 244.135739 -242.545941 
L 240.528466 -233.215925 
L 236.921193 -234.094441 
L 233.31392 -230.856257 
L 229.706648 -227.76724 
L 226.099375 -235.540024 
L 222.492102 -236.453854 
L 218.88483 -231.910971 
L 215.277557 -223.545735 
L 211.670284 -229.650704 
L 208.063011 -228.109078 
L 204.455739 -217.429718 
L 200.848466 -211.504713 
L 197.241193 -214.67562 
L 193.63392 -213.149439 
L 190.026648 -208.330385 
L 186.419375 -212.710947 
L 182.812102 -204.804066 
L 179.20483 -205.085826 
L 175.597557 -198.500855 
L 171.990284 -197.343754 
L 168.383011 -209.016216 
L 164.775739 -198.7569 
L 161.168466 -195.209914 
L 157.561193 -193.943793 
L 153.95392 -190.589222 
L 150.346648 -190.120173 
L 146.739375 -182.211843 
L 143.132102 -179.881817 
L 139.52483 -175.844609 
L 135.917557 -175.356222 
L 132.310284 -173.685801 
L 128.703011 -170.01801 
L 125.095739 -162.263247 
L 121.488466 -174.352328 
L 117.881193 -160.932908 
L 114.27392 -156.691951 
L 110.666648 -147.549664 
L 107.059375 -147.79556 
L 103.452102 -144.796208 
L 99.84483 -143.462283 
L 96.237557 -131.076504 
L 92.630284 -132.928942 
L 89.023011 -116.466521 
L 85.415739 -114.011609 
L 81.808466 -113.965939 
L 78.201193 -103.645818 
L 74.59392 -97.035838 
L 70.986648 -95.138711 
L 67.379375 -87.078161 
z
" id="m6feeaa0b32" style="stroke:#800080;stroke-opacity:0.2;"/>
    </defs>
    <g clip-path="url(#pf4bce3da0e)">
     <use style="fill:#800080;fill-opacity:0.2;stroke:#800080;stroke-opacity:0.2;" x="0" xlink:href="#m6feeaa0b32" y="337.376125"/>
    </g>
   </g>
   <g id="matplotlib.axis_1">
    <g id="xtick_1">
     <g id="line2d_1">
      <path clip-path="url(#pf4bce3da0e)" d="M 135.917557 292.077375 
L 135.917557 25.965375 
" style="fill:none;stroke:#b0b0b0;stroke-linecap:square;stroke-width:0.8;"/>
     </g>
     <g id="line2d_2">
      <defs>
       <path d="M 0 0 
L 0 3.5 
" id="md0bdcf81a7" style="stroke:#000000;stroke-width:0.8;"/>
      </defs>
      <g>
       <use style="stroke:#000000;stroke-width:0.8;" x="135.917557" xlink:href="#md0bdcf81a7" y="292.077375"/>
      </g>
     </g>
     <g id="text_1">
      <!-- 20 -->
      <g transform="translate(127.010057 309.715187)scale(0.14 -0.14)">
       <defs>
        <path d="M 19.1875 8.296875 
L 53.609375 8.296875 
L 53.609375 0 
L 7.328125 0 
L 7.328125 8.296875 
Q 12.9375 14.109375 22.625 23.890625 
Q 32.328125 33.6875 34.8125 36.53125 
Q 39.546875 41.84375 41.421875 45.53125 
Q 43.3125 49.21875 43.3125 52.78125 
Q 43.3125 58.59375 39.234375 62.25 
Q 35.15625 65.921875 28.609375 65.921875 
Q 23.96875 65.921875 18.8125 64.3125 
Q 13.671875 62.703125 7.8125 59.421875 
L 7.8125 69.390625 
Q 13.765625 71.78125 18.9375 73 
Q 24.125 74.21875 28.421875 74.21875 
Q 39.75 74.21875 46.484375 68.546875 
Q 53.21875 62.890625 53.21875 53.421875 
Q 53.21875 48.921875 51.53125 44.890625 
Q 49.859375 40.875 45.40625 35.40625 
Q 44.1875 33.984375 37.640625 27.21875 
Q 31.109375 20.453125 19.1875 8.296875 
z
" id="DejaVuSans-50"/>
        <path d="M 31.78125 66.40625 
Q 24.171875 66.40625 20.328125 58.90625 
Q 16.5 51.421875 16.5 36.375 
Q 16.5 21.390625 20.328125 13.890625 
Q 24.171875 6.390625 31.78125 6.390625 
Q 39.453125 6.390625 43.28125 13.890625 
Q 47.125 21.390625 47.125 36.375 
Q 47.125 51.421875 43.28125 58.90625 
Q 39.453125 66.40625 31.78125 66.40625 
z
M 31.78125 74.21875 
Q 44.046875 74.21875 50.515625 64.515625 
Q 56.984375 54.828125 56.984375 36.375 
Q 56.984375 17.96875 50.515625 8.265625 
Q 44.046875 -1.421875 31.78125 -1.421875 
Q 19.53125 -1.421875 13.0625 8.265625 
Q 6.59375 17.96875 6.59375 36.375 
Q 6.59375 54.828125 13.0625 64.515625 
Q 19.53125 74.21875 31.78125 74.21875 
z
" id="DejaVuSans-48"/>
       </defs>
       <use xlink:href="#DejaVuSans-50"/>
       <use x="63.623047" xlink:href="#DejaVuSans-48"/>
      </g>
     </g>
    </g>
    <g id="xtick_2">
     <g id="line2d_3">
      <path clip-path="url(#pf4bce3da0e)" d="M 208.063011 292.077375 
L 208.063011 25.965375 
" style="fill:none;stroke:#b0b0b0;stroke-linecap:square;stroke-width:0.8;"/>
     </g>
     <g id="line2d_4">
      <g>
       <use style="stroke:#000000;stroke-width:0.8;" x="208.063011" xlink:href="#md0bdcf81a7" y="292.077375"/>
      </g>
     </g>
     <g id="text_2">
      <!-- 40 -->
      <g transform="translate(199.155511 309.715187)scale(0.14 -0.14)">
       <defs>
        <path d="M 37.796875 64.3125 
L 12.890625 25.390625 
L 37.796875 25.390625 
z
M 35.203125 72.90625 
L 47.609375 72.90625 
L 47.609375 25.390625 
L 58.015625 25.390625 
L 58.015625 17.1875 
L 47.609375 17.1875 
L 47.609375 0 
L 37.796875 0 
L 37.796875 17.1875 
L 4.890625 17.1875 
L 4.890625 26.703125 
z
" id="DejaVuSans-52"/>
       </defs>
       <use xlink:href="#DejaVuSans-52"/>
       <use x="63.623047" xlink:href="#DejaVuSans-48"/>
      </g>
     </g>
    </g>
    <g id="xtick_3">
     <g id="line2d_5">
      <path clip-path="url(#pf4bce3da0e)" d="M 280.208466 292.077375 
L 280.208466 25.965375 
" style="fill:none;stroke:#b0b0b0;stroke-linecap:square;stroke-width:0.8;"/>
     </g>
     <g id="line2d_6">
      <g>
       <use style="stroke:#000000;stroke-width:0.8;" x="280.208466" xlink:href="#md0bdcf81a7" y="292.077375"/>
      </g>
     </g>
     <g id="text_3">
      <!-- 60 -->
      <g transform="translate(271.300966 309.715187)scale(0.14 -0.14)">
       <defs>
        <path d="M 33.015625 40.375 
Q 26.375 40.375 22.484375 35.828125 
Q 18.609375 31.296875 18.609375 23.390625 
Q 18.609375 15.53125 22.484375 10.953125 
Q 26.375 6.390625 33.015625 6.390625 
Q 39.65625 6.390625 43.53125 10.953125 
Q 47.40625 15.53125 47.40625 23.390625 
Q 47.40625 31.296875 43.53125 35.828125 
Q 39.65625 40.375 33.015625 40.375 
z
M 52.59375 71.296875 
L 52.59375 62.3125 
Q 48.875 64.0625 45.09375 64.984375 
Q 41.3125 65.921875 37.59375 65.921875 
Q 27.828125 65.921875 22.671875 59.328125 
Q 17.53125 52.734375 16.796875 39.40625 
Q 19.671875 43.65625 24.015625 45.921875 
Q 28.375 48.1875 33.59375 48.1875 
Q 44.578125 48.1875 50.953125 41.515625 
Q 57.328125 34.859375 57.328125 23.390625 
Q 57.328125 12.15625 50.6875 5.359375 
Q 44.046875 -1.421875 33.015625 -1.421875 
Q 20.359375 -1.421875 13.671875 8.265625 
Q 6.984375 17.96875 6.984375 36.375 
Q 6.984375 53.65625 15.1875 63.9375 
Q 23.390625 74.21875 37.203125 74.21875 
Q 40.921875 74.21875 44.703125 73.484375 
Q 48.484375 72.75 52.59375 71.296875 
z
" id="DejaVuSans-54"/>
       </defs>
       <use xlink:href="#DejaVuSans-54"/>
       <use x="63.623047" xlink:href="#DejaVuSans-48"/>
      </g>
     </g>
    </g>
    <g id="xtick_4">
     <g id="line2d_7">
      <path clip-path="url(#pf4bce3da0e)" d="M 352.35392 292.077375 
L 352.35392 25.965375 
" style="fill:none;stroke:#b0b0b0;stroke-linecap:square;stroke-width:0.8;"/>
     </g>
     <g id="line2d_8">
      <g>
       <use style="stroke:#000000;stroke-width:0.8;" x="352.35392" xlink:href="#md0bdcf81a7" y="292.077375"/>
      </g>
     </g>
     <g id="text_4">
      <!-- 80 -->
      <g transform="translate(343.44642 309.715187)scale(0.14 -0.14)">
       <defs>
        <path d="M 31.78125 34.625 
Q 24.75 34.625 20.71875 30.859375 
Q 16.703125 27.09375 16.703125 20.515625 
Q 16.703125 13.921875 20.71875 10.15625 
Q 24.75 6.390625 31.78125 6.390625 
Q 38.8125 6.390625 42.859375 10.171875 
Q 46.921875 13.96875 46.921875 20.515625 
Q 46.921875 27.09375 42.890625 30.859375 
Q 38.875 34.625 31.78125 34.625 
z
M 21.921875 38.8125 
Q 15.578125 40.375 12.03125 44.71875 
Q 8.5 49.078125 8.5 55.328125 
Q 8.5 64.0625 14.71875 69.140625 
Q 20.953125 74.21875 31.78125 74.21875 
Q 42.671875 74.21875 48.875 69.140625 
Q 55.078125 64.0625 55.078125 55.328125 
Q 55.078125 49.078125 51.53125 44.71875 
Q 48 40.375 41.703125 38.8125 
Q 48.828125 37.15625 52.796875 32.3125 
Q 56.78125 27.484375 56.78125 20.515625 
Q 56.78125 9.90625 50.3125 4.234375 
Q 43.84375 -1.421875 31.78125 -1.421875 
Q 19.734375 -1.421875 13.25 4.234375 
Q 6.78125 9.90625 6.78125 20.515625 
Q 6.78125 27.484375 10.78125 32.3125 
Q 14.796875 37.15625 21.921875 38.8125 
z
M 18.3125 54.390625 
Q 18.3125 48.734375 21.84375 45.5625 
Q 25.390625 42.390625 31.78125 42.390625 
Q 38.140625 42.390625 41.71875 45.5625 
Q 45.3125 48.734375 45.3125 54.390625 
Q 45.3125 60.0625 41.71875 63.234375 
Q 38.140625 66.40625 31.78125 66.40625 
Q 25.390625 66.40625 21.84375 63.234375 
Q 18.3125 60.0625 18.3125 54.390625 
z
" id="DejaVuSans-56"/>
       </defs>
       <use xlink:href="#DejaVuSans-56"/>
       <use x="63.623047" xlink:href="#DejaVuSans-48"/>
      </g>
     </g>
    </g>
    <g id="xtick_5">
     <g id="line2d_9">
      <path clip-path="url(#pf4bce3da0e)" d="M 424.499375 292.077375 
L 424.499375 25.965375 
" style="fill:none;stroke:#b0b0b0;stroke-linecap:square;stroke-width:0.8;"/>
     </g>
     <g id="line2d_10">
      <g>
       <use style="stroke:#000000;stroke-width:0.8;" x="424.499375" xlink:href="#md0bdcf81a7" y="292.077375"/>
      </g>
     </g>
     <g id="text_5">
      <!-- 100 -->
      <g transform="translate(411.138125 309.715187)scale(0.14 -0.14)">
       <defs>
        <path d="M 12.40625 8.296875 
L 28.515625 8.296875 
L 28.515625 63.921875 
L 10.984375 60.40625 
L 10.984375 69.390625 
L 28.421875 72.90625 
L 38.28125 72.90625 
L 38.28125 8.296875 
L 54.390625 8.296875 
L 54.390625 0 
L 12.40625 0 
z
" id="DejaVuSans-49"/>
       </defs>
       <use xlink:href="#DejaVuSans-49"/>
       <use x="63.623047" xlink:href="#DejaVuSans-48"/>
       <use x="127.246094" xlink:href="#DejaVuSans-48"/>
      </g>
     </g>
    </g>
    <g id="text_6">
     <!-- Generations. -->
     <g transform="translate(201.017969 327.264562)scale(0.14 -0.14)">
      <defs>
       <path d="M 59.515625 10.40625 
L 59.515625 29.984375 
L 43.40625 29.984375 
L 43.40625 38.09375 
L 69.28125 38.09375 
L 69.28125 6.78125 
Q 63.578125 2.734375 56.6875 0.65625 
Q 49.8125 -1.421875 42 -1.421875 
Q 24.90625 -1.421875 15.25 8.5625 
Q 5.609375 18.5625 5.609375 36.375 
Q 5.609375 54.25 15.25 64.234375 
Q 24.90625 74.21875 42 74.21875 
Q 49.125 74.21875 55.546875 72.453125 
Q 61.96875 70.703125 67.390625 67.28125 
L 67.390625 56.78125 
Q 61.921875 61.421875 55.765625 63.765625 
Q 49.609375 66.109375 42.828125 66.109375 
Q 29.4375 66.109375 22.71875 58.640625 
Q 16.015625 51.171875 16.015625 36.375 
Q 16.015625 21.625 22.71875 14.15625 
Q 29.4375 6.6875 42.828125 6.6875 
Q 48.046875 6.6875 52.140625 7.59375 
Q 56.25 8.5 59.515625 10.40625 
z
" id="DejaVuSans-71"/>
       <path d="M 56.203125 29.59375 
L 56.203125 25.203125 
L 14.890625 25.203125 
Q 15.484375 15.921875 20.484375 11.0625 
Q 25.484375 6.203125 34.421875 6.203125 
Q 39.59375 6.203125 44.453125 7.46875 
Q 49.3125 8.734375 54.109375 11.28125 
L 54.109375 2.78125 
Q 49.265625 0.734375 44.1875 -0.34375 
Q 39.109375 -1.421875 33.890625 -1.421875 
Q 20.796875 -1.421875 13.15625 6.1875 
Q 5.515625 13.8125 5.515625 26.8125 
Q 5.515625 40.234375 12.765625 48.109375 
Q 20.015625 56 32.328125 56 
Q 43.359375 56 49.78125 48.890625 
Q 56.203125 41.796875 56.203125 29.59375 
z
M 47.21875 32.234375 
Q 47.125 39.59375 43.09375 43.984375 
Q 39.0625 48.390625 32.421875 48.390625 
Q 24.90625 48.390625 20.390625 44.140625 
Q 15.875 39.890625 15.1875 32.171875 
z
" id="DejaVuSans-101"/>
       <path d="M 54.890625 33.015625 
L 54.890625 0 
L 45.90625 0 
L 45.90625 32.71875 
Q 45.90625 40.484375 42.875 44.328125 
Q 39.84375 48.1875 33.796875 48.1875 
Q 26.515625 48.1875 22.3125 43.546875 
Q 18.109375 38.921875 18.109375 30.90625 
L 18.109375 0 
L 9.078125 0 
L 9.078125 54.6875 
L 18.109375 54.6875 
L 18.109375 46.1875 
Q 21.34375 51.125 25.703125 53.5625 
Q 30.078125 56 35.796875 56 
Q 45.21875 56 50.046875 50.171875 
Q 54.890625 44.34375 54.890625 33.015625 
z
" id="DejaVuSans-110"/>
       <path d="M 41.109375 46.296875 
Q 39.59375 47.171875 37.8125 47.578125 
Q 36.03125 48 33.890625 48 
Q 26.265625 48 22.1875 43.046875 
Q 18.109375 38.09375 18.109375 28.8125 
L 18.109375 0 
L 9.078125 0 
L 9.078125 54.6875 
L 18.109375 54.6875 
L 18.109375 46.1875 
Q 20.953125 51.171875 25.484375 53.578125 
Q 30.03125 56 36.53125 56 
Q 37.453125 56 38.578125 55.875 
Q 39.703125 55.765625 41.0625 55.515625 
z
" id="DejaVuSans-114"/>
       <path d="M 34.28125 27.484375 
Q 23.390625 27.484375 19.1875 25 
Q 14.984375 22.515625 14.984375 16.5 
Q 14.984375 11.71875 18.140625 8.90625 
Q 21.296875 6.109375 26.703125 6.109375 
Q 34.1875 6.109375 38.703125 11.40625 
Q 43.21875 16.703125 43.21875 25.484375 
L 43.21875 27.484375 
z
M 52.203125 31.203125 
L 52.203125 0 
L 43.21875 0 
L 43.21875 8.296875 
Q 40.140625 3.328125 35.546875 0.953125 
Q 30.953125 -1.421875 24.3125 -1.421875 
Q 15.921875 -1.421875 10.953125 3.296875 
Q 6 8.015625 6 15.921875 
Q 6 25.140625 12.171875 29.828125 
Q 18.359375 34.515625 30.609375 34.515625 
L 43.21875 34.515625 
L 43.21875 35.40625 
Q 43.21875 41.609375 39.140625 45 
Q 35.0625 48.390625 27.6875 48.390625 
Q 23 48.390625 18.546875 47.265625 
Q 14.109375 46.140625 10.015625 43.890625 
L 10.015625 52.203125 
Q 14.9375 54.109375 19.578125 55.046875 
Q 24.21875 56 28.609375 56 
Q 40.484375 56 46.34375 49.84375 
Q 52.203125 43.703125 52.203125 31.203125 
z
" id="DejaVuSans-97"/>
       <path d="M 18.3125 70.21875 
L 18.3125 54.6875 
L 36.8125 54.6875 
L 36.8125 47.703125 
L 18.3125 47.703125 
L 18.3125 18.015625 
Q 18.3125 11.328125 20.140625 9.421875 
Q 21.96875 7.515625 27.59375 7.515625 
L 36.8125 7.515625 
L 36.8125 0 
L 27.59375 0 
Q 17.1875 0 13.234375 3.875 
Q 9.28125 7.765625 9.28125 18.015625 
L 9.28125 47.703125 
L 2.6875 47.703125 
L 2.6875 54.6875 
L 9.28125 54.6875 
L 9.28125 70.21875 
z
" id="DejaVuSans-116"/>
       <path d="M 9.421875 54.6875 
L 18.40625 54.6875 
L 18.40625 0 
L 9.421875 0 
z
M 9.421875 75.984375 
L 18.40625 75.984375 
L 18.40625 64.59375 
L 9.421875 64.59375 
z
" id="DejaVuSans-105"/>
       <path d="M 30.609375 48.390625 
Q 23.390625 48.390625 19.1875 42.75 
Q 14.984375 37.109375 14.984375 27.296875 
Q 14.984375 17.484375 19.15625 11.84375 
Q 23.34375 6.203125 30.609375 6.203125 
Q 37.796875 6.203125 41.984375 11.859375 
Q 46.1875 17.53125 46.1875 27.296875 
Q 46.1875 37.015625 41.984375 42.703125 
Q 37.796875 48.390625 30.609375 48.390625 
z
M 30.609375 56 
Q 42.328125 56 49.015625 48.375 
Q 55.71875 40.765625 55.71875 27.296875 
Q 55.71875 13.875 49.015625 6.21875 
Q 42.328125 -1.421875 30.609375 -1.421875 
Q 18.84375 -1.421875 12.171875 6.21875 
Q 5.515625 13.875 5.515625 27.296875 
Q 5.515625 40.765625 12.171875 48.375 
Q 18.84375 56 30.609375 56 
z
" id="DejaVuSans-111"/>
       <path d="M 44.28125 53.078125 
L 44.28125 44.578125 
Q 40.484375 46.53125 36.375 47.5 
Q 32.28125 48.484375 27.875 48.484375 
Q 21.1875 48.484375 17.84375 46.4375 
Q 14.5 44.390625 14.5 40.28125 
Q 14.5 37.15625 16.890625 35.375 
Q 19.28125 33.59375 26.515625 31.984375 
L 29.59375 31.296875 
Q 39.15625 29.25 43.1875 25.515625 
Q 47.21875 21.78125 47.21875 15.09375 
Q 47.21875 7.46875 41.1875 3.015625 
Q 35.15625 -1.421875 24.609375 -1.421875 
Q 20.21875 -1.421875 15.453125 -0.5625 
Q 10.6875 0.296875 5.421875 2 
L 5.421875 11.28125 
Q 10.40625 8.6875 15.234375 7.390625 
Q 20.0625 6.109375 24.8125 6.109375 
Q 31.15625 6.109375 34.5625 8.28125 
Q 37.984375 10.453125 37.984375 14.40625 
Q 37.984375 18.0625 35.515625 20.015625 
Q 33.0625 21.96875 24.703125 23.78125 
L 21.578125 24.515625 
Q 13.234375 26.265625 9.515625 29.90625 
Q 5.8125 33.546875 5.8125 39.890625 
Q 5.8125 47.609375 11.28125 51.796875 
Q 16.75 56 26.8125 56 
Q 31.78125 56 36.171875 55.265625 
Q 40.578125 54.546875 44.28125 53.078125 
z
" id="DejaVuSans-115"/>
       <path d="M 10.6875 12.40625 
L 21 12.40625 
L 21 0 
L 10.6875 0 
z
" id="DejaVuSans-46"/>
      </defs>
      <use xlink:href="#DejaVuSans-71"/>
      <use x="77.490234" xlink:href="#DejaVuSans-101"/>
      <use x="139.013672" xlink:href="#DejaVuSans-110"/>
      <use x="202.392578" xlink:href="#DejaVuSans-101"/>
      <use x="263.916016" xlink:href="#DejaVuSans-114"/>
      <use x="305.029297" xlink:href="#DejaVuSans-97"/>
      <use x="366.308594" xlink:href="#DejaVuSans-116"/>
      <use x="405.517578" xlink:href="#DejaVuSans-105"/>
      <use x="433.300781" xlink:href="#DejaVuSans-111"/>
      <use x="494.482422" xlink:href="#DejaVuSans-110"/>
      <use x="557.861328" xlink:href="#DejaVuSans-115"/>
      <use x="609.960938" xlink:href="#DejaVuSans-46"/>
     </g>
    </g>
   </g>
   <g id="matplotlib.axis_2">
    <g id="ytick_1">
     <g id="line2d_11">
      <path clip-path="url(#pf4bce3da0e)" d="M 67.379375 279.072016 
L 424.499375 279.072016 
" style="fill:none;stroke:#b0b0b0;stroke-linecap:square;stroke-width:0.8;"/>
     </g>
     <g id="line2d_12">
      <defs>
       <path d="M 0 0 
L -3.5 0 
" id="m4cba0610de" style="stroke:#000000;stroke-width:0.8;"/>
      </defs>
      <g>
       <use style="stroke:#000000;stroke-width:0.8;" x="67.379375" xlink:href="#m4cba0610de" y="279.072016"/>
      </g>
     </g>
     <g id="text_7">
      <!-- 0 -->
      <g transform="translate(51.471875 284.390922)scale(0.14 -0.14)">
       <use xlink:href="#DejaVuSans-48"/>
      </g>
     </g>
    </g>
    <g id="ytick_2">
     <g id="line2d_13">
      <path clip-path="url(#pf4bce3da0e)" d="M 67.379375 242.153426 
L 424.499375 242.153426 
" style="fill:none;stroke:#b0b0b0;stroke-linecap:square;stroke-width:0.8;"/>
     </g>
     <g id="line2d_14">
      <g>
       <use style="stroke:#000000;stroke-width:0.8;" x="67.379375" xlink:href="#m4cba0610de" y="242.153426"/>
      </g>
     </g>
     <g id="text_8">
      <!-- 500 -->
      <g transform="translate(33.656875 247.472332)scale(0.14 -0.14)">
       <defs>
        <path d="M 10.796875 72.90625 
L 49.515625 72.90625 
L 49.515625 64.59375 
L 19.828125 64.59375 
L 19.828125 46.734375 
Q 21.96875 47.46875 24.109375 47.828125 
Q 26.265625 48.1875 28.421875 48.1875 
Q 40.625 48.1875 47.75 41.5 
Q 54.890625 34.8125 54.890625 23.390625 
Q 54.890625 11.625 47.5625 5.09375 
Q 40.234375 -1.421875 26.90625 -1.421875 
Q 22.3125 -1.421875 17.546875 -0.640625 
Q 12.796875 0.140625 7.71875 1.703125 
L 7.71875 11.625 
Q 12.109375 9.234375 16.796875 8.0625 
Q 21.484375 6.890625 26.703125 6.890625 
Q 35.15625 6.890625 40.078125 11.328125 
Q 45.015625 15.765625 45.015625 23.390625 
Q 45.015625 31 40.078125 35.4375 
Q 35.15625 39.890625 26.703125 39.890625 
Q 22.75 39.890625 18.8125 39.015625 
Q 14.890625 38.140625 10.796875 36.28125 
z
" id="DejaVuSans-53"/>
       </defs>
       <use xlink:href="#DejaVuSans-53"/>
       <use x="63.623047" xlink:href="#DejaVuSans-48"/>
       <use x="127.246094" xlink:href="#DejaVuSans-48"/>
      </g>
     </g>
    </g>
    <g id="ytick_3">
     <g id="line2d_15">
      <path clip-path="url(#pf4bce3da0e)" d="M 67.379375 205.234836 
L 424.499375 205.234836 
" style="fill:none;stroke:#b0b0b0;stroke-linecap:square;stroke-width:0.8;"/>
     </g>
     <g id="line2d_16">
      <g>
       <use style="stroke:#000000;stroke-width:0.8;" x="67.379375" xlink:href="#m4cba0610de" y="205.234836"/>
      </g>
     </g>
     <g id="text_9">
      <!-- 1000 -->
      <g transform="translate(24.749375 210.553742)scale(0.14 -0.14)">
       <use xlink:href="#DejaVuSans-49"/>
       <use x="63.623047" xlink:href="#DejaVuSans-48"/>
       <use x="127.246094" xlink:href="#DejaVuSans-48"/>
       <use x="190.869141" xlink:href="#DejaVuSans-48"/>
      </g>
     </g>
    </g>
    <g id="ytick_4">
     <g id="line2d_17">
      <path clip-path="url(#pf4bce3da0e)" d="M 67.379375 168.316246 
L 424.499375 168.316246 
" style="fill:none;stroke:#b0b0b0;stroke-linecap:square;stroke-width:0.8;"/>
     </g>
     <g id="line2d_18">
      <g>
       <use style="stroke:#000000;stroke-width:0.8;" x="67.379375" xlink:href="#m4cba0610de" y="168.316246"/>
      </g>
     </g>
     <g id="text_10">
      <!-- 1500 -->
      <g transform="translate(24.749375 173.635152)scale(0.14 -0.14)">
       <use xlink:href="#DejaVuSans-49"/>
       <use x="63.623047" xlink:href="#DejaVuSans-53"/>
       <use x="127.246094" xlink:href="#DejaVuSans-48"/>
       <use x="190.869141" xlink:href="#DejaVuSans-48"/>
      </g>
     </g>
    </g>
    <g id="ytick_5">
     <g id="line2d_19">
      <path clip-path="url(#pf4bce3da0e)" d="M 67.379375 131.397656 
L 424.499375 131.397656 
" style="fill:none;stroke:#b0b0b0;stroke-linecap:square;stroke-width:0.8;"/>
     </g>
     <g id="line2d_20">
      <g>
       <use style="stroke:#000000;stroke-width:0.8;" x="67.379375" xlink:href="#m4cba0610de" y="131.397656"/>
      </g>
     </g>
     <g id="text_11">
      <!-- 2000 -->
      <g transform="translate(24.749375 136.716562)scale(0.14 -0.14)">
       <use xlink:href="#DejaVuSans-50"/>
       <use x="63.623047" xlink:href="#DejaVuSans-48"/>
       <use x="127.246094" xlink:href="#DejaVuSans-48"/>
       <use x="190.869141" xlink:href="#DejaVuSans-48"/>
      </g>
     </g>
    </g>
    <g id="ytick_6">
     <g id="line2d_21">
      <path clip-path="url(#pf4bce3da0e)" d="M 67.379375 94.479066 
L 424.499375 94.479066 
" style="fill:none;stroke:#b0b0b0;stroke-linecap:square;stroke-width:0.8;"/>
     </g>
     <g id="line2d_22">
      <g>
       <use style="stroke:#000000;stroke-width:0.8;" x="67.379375" xlink:href="#m4cba0610de" y="94.479066"/>
      </g>
     </g>
     <g id="text_12">
      <!-- 2500 -->
      <g transform="translate(24.749375 99.797972)scale(0.14 -0.14)">
       <use xlink:href="#DejaVuSans-50"/>
       <use x="63.623047" xlink:href="#DejaVuSans-53"/>
       <use x="127.246094" xlink:href="#DejaVuSans-48"/>
       <use x="190.869141" xlink:href="#DejaVuSans-48"/>
      </g>
     </g>
    </g>
    <g id="ytick_7">
     <g id="line2d_23">
      <path clip-path="url(#pf4bce3da0e)" d="M 67.379375 57.560476 
L 424.499375 57.560476 
" style="fill:none;stroke:#b0b0b0;stroke-linecap:square;stroke-width:0.8;"/>
     </g>
     <g id="line2d_24">
      <g>
       <use style="stroke:#000000;stroke-width:0.8;" x="67.379375" xlink:href="#m4cba0610de" y="57.560476"/>
      </g>
     </g>
     <g id="text_13">
      <!-- 3000 -->
      <g transform="translate(24.749375 62.879382)scale(0.14 -0.14)">
       <defs>
        <path d="M 40.578125 39.3125 
Q 47.65625 37.796875 51.625 33 
Q 55.609375 28.21875 55.609375 21.1875 
Q 55.609375 10.40625 48.1875 4.484375 
Q 40.765625 -1.421875 27.09375 -1.421875 
Q 22.515625 -1.421875 17.65625 -0.515625 
Q 12.796875 0.390625 7.625 2.203125 
L 7.625 11.71875 
Q 11.71875 9.328125 16.59375 8.109375 
Q 21.484375 6.890625 26.8125 6.890625 
Q 36.078125 6.890625 40.9375 10.546875 
Q 45.796875 14.203125 45.796875 21.1875 
Q 45.796875 27.640625 41.28125 31.265625 
Q 36.765625 34.90625 28.71875 34.90625 
L 20.21875 34.90625 
L 20.21875 43.015625 
L 29.109375 43.015625 
Q 36.375 43.015625 40.234375 45.921875 
Q 44.09375 48.828125 44.09375 54.296875 
Q 44.09375 59.90625 40.109375 62.90625 
Q 36.140625 65.921875 28.71875 65.921875 
Q 24.65625 65.921875 20.015625 65.03125 
Q 15.375 64.15625 9.8125 62.3125 
L 9.8125 71.09375 
Q 15.4375 72.65625 20.34375 73.4375 
Q 25.25 74.21875 29.59375 74.21875 
Q 40.828125 74.21875 47.359375 69.109375 
Q 53.90625 64.015625 53.90625 55.328125 
Q 53.90625 49.265625 50.4375 45.09375 
Q 46.96875 40.921875 40.578125 39.3125 
z
" id="DejaVuSans-51"/>
       </defs>
       <use xlink:href="#DejaVuSans-51"/>
       <use x="63.623047" xlink:href="#DejaVuSans-48"/>
       <use x="127.246094" xlink:href="#DejaVuSans-48"/>
       <use x="190.869141" xlink:href="#DejaVuSans-48"/>
      </g>
     </g>
    </g>
    <g id="text_14">
     <!-- Average return. -->
     <g transform="translate(17.837813 213.615906)rotate(-90)scale(0.14 -0.14)">
      <defs>
       <path d="M 34.1875 63.1875 
L 20.796875 26.90625 
L 47.609375 26.90625 
z
M 28.609375 72.90625 
L 39.796875 72.90625 
L 67.578125 0 
L 57.328125 0 
L 50.6875 18.703125 
L 17.828125 18.703125 
L 11.1875 0 
L 0.78125 0 
z
" id="DejaVuSans-65"/>
       <path d="M 2.984375 54.6875 
L 12.5 54.6875 
L 29.59375 8.796875 
L 46.6875 54.6875 
L 56.203125 54.6875 
L 35.6875 0 
L 23.484375 0 
z
" id="DejaVuSans-118"/>
       <path d="M 45.40625 27.984375 
Q 45.40625 37.75 41.375 43.109375 
Q 37.359375 48.484375 30.078125 48.484375 
Q 22.859375 48.484375 18.828125 43.109375 
Q 14.796875 37.75 14.796875 27.984375 
Q 14.796875 18.265625 18.828125 12.890625 
Q 22.859375 7.515625 30.078125 7.515625 
Q 37.359375 7.515625 41.375 12.890625 
Q 45.40625 18.265625 45.40625 27.984375 
z
M 54.390625 6.78125 
Q 54.390625 -7.171875 48.1875 -13.984375 
Q 42 -20.796875 29.203125 -20.796875 
Q 24.46875 -20.796875 20.265625 -20.09375 
Q 16.0625 -19.390625 12.109375 -17.921875 
L 12.109375 -9.1875 
Q 16.0625 -11.328125 19.921875 -12.34375 
Q 23.78125 -13.375 27.78125 -13.375 
Q 36.625 -13.375 41.015625 -8.765625 
Q 45.40625 -4.15625 45.40625 5.171875 
L 45.40625 9.625 
Q 42.625 4.78125 38.28125 2.390625 
Q 33.9375 0 27.875 0 
Q 17.828125 0 11.671875 7.65625 
Q 5.515625 15.328125 5.515625 27.984375 
Q 5.515625 40.671875 11.671875 48.328125 
Q 17.828125 56 27.875 56 
Q 33.9375 56 38.28125 53.609375 
Q 42.625 51.21875 45.40625 46.390625 
L 45.40625 54.6875 
L 54.390625 54.6875 
z
" id="DejaVuSans-103"/>
       <path id="DejaVuSans-32"/>
       <path d="M 8.5 21.578125 
L 8.5 54.6875 
L 17.484375 54.6875 
L 17.484375 21.921875 
Q 17.484375 14.15625 20.5 10.265625 
Q 23.53125 6.390625 29.59375 6.390625 
Q 36.859375 6.390625 41.078125 11.03125 
Q 45.3125 15.671875 45.3125 23.6875 
L 45.3125 54.6875 
L 54.296875 54.6875 
L 54.296875 0 
L 45.3125 0 
L 45.3125 8.40625 
Q 42.046875 3.421875 37.71875 1 
Q 33.40625 -1.421875 27.6875 -1.421875 
Q 18.265625 -1.421875 13.375 4.4375 
Q 8.5 10.296875 8.5 21.578125 
z
M 31.109375 56 
z
" id="DejaVuSans-117"/>
      </defs>
      <use xlink:href="#DejaVuSans-65"/>
      <use x="62.533203" xlink:href="#DejaVuSans-118"/>
      <use x="121.712891" xlink:href="#DejaVuSans-101"/>
      <use x="183.236328" xlink:href="#DejaVuSans-114"/>
      <use x="224.349609" xlink:href="#DejaVuSans-97"/>
      <use x="285.628906" xlink:href="#DejaVuSans-103"/>
      <use x="349.105469" xlink:href="#DejaVuSans-101"/>
      <use x="410.628906" xlink:href="#DejaVuSans-32"/>
      <use x="442.416016" xlink:href="#DejaVuSans-114"/>
      <use x="481.279297" xlink:href="#DejaVuSans-101"/>
      <use x="542.802734" xlink:href="#DejaVuSans-116"/>
      <use x="582.011719" xlink:href="#DejaVuSans-117"/>
      <use x="645.390625" xlink:href="#DejaVuSans-114"/>
      <use x="684.753906" xlink:href="#DejaVuSans-110"/>
      <use x="748.132812" xlink:href="#DejaVuSans-46"/>
     </g>
    </g>
   </g>
   <g id="line2d_25">
    <path clip-path="url(#pf4bce3da0e)" d="M 67.379375 91.897718 
L 424.499375 91.897718 
" style="fill:none;stroke:#ff0000;stroke-linecap:square;stroke-width:1.5;"/>
   </g>
   <g id="line2d_26">
    <path clip-path="url(#pf4bce3da0e)" d="M 67.379375 279.068552 
L 70.986648 279.067806 
L 74.59392 279.064678 
L 78.201193 279.059936 
L 81.808466 279.067216 
L 85.415739 279.062215 
L 89.023011 279.068715 
L 92.630284 279.07034 
L 96.237557 279.077224 
L 99.84483 279.070249 
L 103.452102 279.066518 
L 107.059375 279.076025 
L 110.666648 279.075693 
L 114.27392 279.073469 
L 117.881193 279.054828 
L 121.488466 279.05838 
L 125.095739 279.019739 
L 128.703011 278.920338 
L 132.310284 278.800381 
L 135.917557 277.446298 
L 139.52483 276.955823 
L 143.132102 275.39382 
L 146.739375 274.351569 
L 150.346648 272.244014 
L 153.95392 270.601595 
L 157.561193 269.219171 
L 161.168466 266.778695 
L 164.775739 261.754475 
L 168.383011 262.182664 
L 171.990284 258.781622 
L 175.597557 255.91346 
L 179.20483 251.362041 
L 182.812102 248.70915 
L 186.419375 242.004344 
L 190.026648 235.609812 
L 193.63392 234.738847 
L 197.241193 228.133178 
L 200.848466 223.094273 
L 204.455739 218.554778 
L 208.063011 211.630068 
L 211.670284 206.274772 
L 215.277557 202.123838 
L 218.88483 201.080466 
L 222.492102 196.305312 
L 226.099375 191.722098 
L 229.706648 184.828549 
L 233.31392 185.506869 
L 236.921193 180.279726 
L 240.528466 178.821431 
L 244.135739 174.60809 
L 247.743011 173.513001 
L 251.350284 168.9337 
L 254.957557 168.049525 
L 258.56483 165.088197 
L 262.172102 160.017143 
L 265.779375 157.869467 
L 269.386648 154.528125 
L 272.99392 150.164915 
L 276.601193 151.642137 
L 280.208466 146.653239 
L 283.815739 146.41121 
L 287.423011 144.528116 
L 291.030284 143.417939 
L 294.637557 138.462454 
L 298.24483 137.319614 
L 301.852102 136.095663 
L 305.459375 133.042545 
L 309.066648 131.556152 
L 312.67392 129.063931 
L 316.281193 133.550261 
L 319.888466 129.444317 
L 323.495739 126.047112 
L 327.103011 127.602094 
L 330.710284 125.47939 
L 334.317557 121.450923 
L 337.92483 125.08699 
L 341.532102 121.26394 
L 345.139375 117.957175 
L 348.746648 120.287064 
L 352.35392 116.052456 
L 355.961193 119.140936 
L 359.568466 113.519068 
L 363.175739 116.193597 
L 366.783011 112.757708 
L 370.390284 111.214573 
L 373.997557 116.262467 
L 377.60483 110.406218 
L 381.212102 106.268324 
L 384.819375 111.899557 
L 388.426648 106.899752 
L 392.03392 111.610137 
L 395.641193 104.754729 
L 399.248466 107.654614 
L 402.855739 105.82883 
L 406.463011 103.154235 
L 410.070284 103.232649 
L 413.677557 101.42351 
L 417.28483 102.452305 
L 420.892102 99.379373 
L 424.499375 100.305371 
" style="fill:none;stroke:#0000ff;stroke-linecap:square;stroke-width:1.5;"/>
   </g>
   <g id="line2d_27">
    <path clip-path="url(#pf4bce3da0e)" d="M 67.379375 255.853872 
L 70.986648 249.538987 
L 74.59392 247.418974 
L 78.201193 243.358329 
L 81.808466 233.616857 
L 85.415739 231.021288 
L 89.023011 228.611337 
L 92.630284 217.674456 
L 96.237557 216.249642 
L 99.84483 209.507939 
L 103.452102 205.740899 
L 107.059375 203.325126 
L 110.666648 202.668299 
L 114.27392 193.868649 
L 117.881193 190.334175 
L 121.488466 180.943857 
L 125.095739 188.605897 
L 128.703011 183.789578 
L 132.310284 178.523008 
L 135.917557 178.530104 
L 139.52483 176.258555 
L 143.132102 173.51784 
L 146.739375 172.132017 
L 150.346648 165.183057 
L 153.95392 163.948299 
L 157.561193 159.072385 
L 161.168466 158.892661 
L 164.775739 154.971405 
L 168.383011 145.878391 
L 171.990284 157.934362 
L 175.597557 156.573253 
L 179.20483 150.934194 
L 182.812102 149.173469 
L 186.419375 145.422401 
L 190.026648 146.29933 
L 193.63392 141.465479 
L 197.241193 138.804308 
L 200.848466 142.994337 
L 204.455739 139.884507 
L 208.063011 130.311373 
L 211.670284 128.604237 
L 215.277557 132.717671 
L 218.88483 126.011964 
L 222.492102 123.518991 
L 226.099375 121.771121 
L 229.706648 128.801998 
L 233.31392 126.066084 
L 236.921193 121.64407 
L 240.528466 122.826968 
L 244.135739 115.80931 
L 247.743011 115.267678 
L 251.350284 115.69004 
L 254.957557 110.079263 
L 258.56483 109.486667 
L 262.172102 111.297172 
L 265.779375 115.555385 
L 269.386648 110.553984 
L 272.99392 106.594684 
L 276.601193 102.485163 
L 280.208466 97.375119 
L 283.815739 90.142534 
L 287.423011 98.183783 
L 291.030284 98.004297 
L 294.637557 99.719154 
L 298.24483 99.992659 
L 301.852102 101.931734 
L 305.459375 95.504857 
L 309.066648 95.113042 
L 312.67392 94.181582 
L 316.281193 93.768373 
L 319.888466 91.008838 
L 323.495739 84.591592 
L 327.103011 91.664764 
L 330.710284 84.229135 
L 334.317557 90.358362 
L 337.92483 83.646811 
L 341.532102 85.668 
L 345.139375 85.723873 
L 348.746648 86.280152 
L 352.35392 84.834412 
L 355.961193 82.030721 
L 359.568466 80.060428 
L 363.175739 80.236318 
L 366.783011 73.648215 
L 370.390284 75.411946 
L 373.997557 76.477427 
L 377.60483 79.893194 
L 381.212102 75.32189 
L 384.819375 74.457634 
L 388.426648 73.929499 
L 392.03392 76.323878 
L 395.641193 76.278184 
L 399.248466 73.863302 
L 402.855739 74.063038 
L 406.463011 76.255345 
L 410.070284 73.459032 
L 413.677557 69.26089 
L 417.28483 74.000988 
L 420.892102 67.040289 
L 424.499375 75.335144 
" style="fill:none;stroke:#800080;stroke-linecap:square;stroke-width:1.5;"/>
   </g>
   <g id="patch_3">
    <path d="M 67.379375 292.077375 
L 67.379375 25.965375 
" style="fill:none;stroke:#000000;stroke-linecap:square;stroke-linejoin:miter;stroke-width:0.8;"/>
   </g>
   <g id="patch_4">
    <path d="M 424.499375 292.077375 
L 424.499375 25.965375 
" style="fill:none;stroke:#000000;stroke-linecap:square;stroke-linejoin:miter;stroke-width:0.8;"/>
   </g>
   <g id="patch_5">
    <path d="M 67.379375 292.077375 
L 424.499375 292.077375 
" style="fill:none;stroke:#000000;stroke-linecap:square;stroke-linejoin:miter;stroke-width:0.8;"/>
   </g>
   <g id="patch_6">
    <path d="M 67.379375 25.965375 
L 424.499375 25.965375 
" style="fill:none;stroke:#000000;stroke-linecap:square;stroke-linejoin:miter;stroke-width:0.8;"/>
   </g>
   <g id="text_15">
    <!-- HalfCheetah-v2 -->
    <g transform="translate(180.767188 19.965375)scale(0.168 -0.168)">
     <defs>
      <path d="M 9.8125 72.90625 
L 19.671875 72.90625 
L 19.671875 43.015625 
L 55.515625 43.015625 
L 55.515625 72.90625 
L 65.375 72.90625 
L 65.375 0 
L 55.515625 0 
L 55.515625 34.71875 
L 19.671875 34.71875 
L 19.671875 0 
L 9.8125 0 
z
" id="DejaVuSans-72"/>
      <path d="M 9.421875 75.984375 
L 18.40625 75.984375 
L 18.40625 0 
L 9.421875 0 
z
" id="DejaVuSans-108"/>
      <path d="M 37.109375 75.984375 
L 37.109375 68.5 
L 28.515625 68.5 
Q 23.6875 68.5 21.796875 66.546875 
Q 19.921875 64.59375 19.921875 59.515625 
L 19.921875 54.6875 
L 34.71875 54.6875 
L 34.71875 47.703125 
L 19.921875 47.703125 
L 19.921875 0 
L 10.890625 0 
L 10.890625 47.703125 
L 2.296875 47.703125 
L 2.296875 54.6875 
L 10.890625 54.6875 
L 10.890625 58.5 
Q 10.890625 67.625 15.140625 71.796875 
Q 19.390625 75.984375 28.609375 75.984375 
z
" id="DejaVuSans-102"/>
      <path d="M 64.40625 67.28125 
L 64.40625 56.890625 
Q 59.421875 61.53125 53.78125 63.8125 
Q 48.140625 66.109375 41.796875 66.109375 
Q 29.296875 66.109375 22.65625 58.46875 
Q 16.015625 50.828125 16.015625 36.375 
Q 16.015625 21.96875 22.65625 14.328125 
Q 29.296875 6.6875 41.796875 6.6875 
Q 48.140625 6.6875 53.78125 8.984375 
Q 59.421875 11.28125 64.40625 15.921875 
L 64.40625 5.609375 
Q 59.234375 2.09375 53.4375 0.328125 
Q 47.65625 -1.421875 41.21875 -1.421875 
Q 24.65625 -1.421875 15.125 8.703125 
Q 5.609375 18.84375 5.609375 36.375 
Q 5.609375 53.953125 15.125 64.078125 
Q 24.65625 74.21875 41.21875 74.21875 
Q 47.75 74.21875 53.53125 72.484375 
Q 59.328125 70.75 64.40625 67.28125 
z
" id="DejaVuSans-67"/>
      <path d="M 54.890625 33.015625 
L 54.890625 0 
L 45.90625 0 
L 45.90625 32.71875 
Q 45.90625 40.484375 42.875 44.328125 
Q 39.84375 48.1875 33.796875 48.1875 
Q 26.515625 48.1875 22.3125 43.546875 
Q 18.109375 38.921875 18.109375 30.90625 
L 18.109375 0 
L 9.078125 0 
L 9.078125 75.984375 
L 18.109375 75.984375 
L 18.109375 46.1875 
Q 21.34375 51.125 25.703125 53.5625 
Q 30.078125 56 35.796875 56 
Q 45.21875 56 50.046875 50.171875 
Q 54.890625 44.34375 54.890625 33.015625 
z
" id="DejaVuSans-104"/>
      <path d="M 4.890625 31.390625 
L 31.203125 31.390625 
L 31.203125 23.390625 
L 4.890625 23.390625 
z
" id="DejaVuSans-45"/>
     </defs>
     <use xlink:href="#DejaVuSans-72"/>
     <use x="75.195312" xlink:href="#DejaVuSans-97"/>
     <use x="136.474609" xlink:href="#DejaVuSans-108"/>
     <use x="164.257812" xlink:href="#DejaVuSans-102"/>
     <use x="199.462891" xlink:href="#DejaVuSans-67"/>
     <use x="269.287109" xlink:href="#DejaVuSans-104"/>
     <use x="332.666016" xlink:href="#DejaVuSans-101"/>
     <use x="394.189453" xlink:href="#DejaVuSans-101"/>
     <use x="455.712891" xlink:href="#DejaVuSans-116"/>
     <use x="494.921875" xlink:href="#DejaVuSans-97"/>
     <use x="556.201172" xlink:href="#DejaVuSans-104"/>
     <use x="619.580078" xlink:href="#DejaVuSans-45"/>
     <use x="653.039062" xlink:href="#DejaVuSans-118"/>
     <use x="712.21875" xlink:href="#DejaVuSans-50"/>
    </g>
   </g>
   <g id="legend_1">
    <g id="patch_7">
     <path d="M 224.553125 285.077375 
L 414.699375 285.077375 
Q 417.499375 285.077375 417.499375 282.277375 
L 417.499375 222.02925 
Q 417.499375 219.22925 414.699375 219.22925 
L 224.553125 219.22925 
Q 221.753125 219.22925 221.753125 222.02925 
L 221.753125 282.277375 
Q 221.753125 285.077375 224.553125 285.077375 
z
" style="fill:#ffffff;opacity:0.8;stroke:#cccccc;stroke-linejoin:miter;"/>
    </g>
    <g id="line2d_28">
     <path d="M 227.353125 230.567062 
L 255.353125 230.567062 
" style="fill:none;stroke:#ff0000;stroke-linecap:square;stroke-width:1.5;"/>
    </g>
    <g id="line2d_29"/>
    <g id="text_16">
     <!-- DPN-Weights-PPO -->
     <g transform="translate(266.553125 235.467062)scale(0.14 -0.14)">
      <defs>
       <path d="M 19.671875 64.796875 
L 19.671875 8.109375 
L 31.59375 8.109375 
Q 46.6875 8.109375 53.6875 14.9375 
Q 60.6875 21.78125 60.6875 36.53125 
Q 60.6875 51.171875 53.6875 57.984375 
Q 46.6875 64.796875 31.59375 64.796875 
z
M 9.8125 72.90625 
L 30.078125 72.90625 
Q 51.265625 72.90625 61.171875 64.09375 
Q 71.09375 55.28125 71.09375 36.53125 
Q 71.09375 17.671875 61.125 8.828125 
Q 51.171875 0 30.078125 0 
L 9.8125 0 
z
" id="DejaVuSans-68"/>
       <path d="M 19.671875 64.796875 
L 19.671875 37.40625 
L 32.078125 37.40625 
Q 38.96875 37.40625 42.71875 40.96875 
Q 46.484375 44.53125 46.484375 51.125 
Q 46.484375 57.671875 42.71875 61.234375 
Q 38.96875 64.796875 32.078125 64.796875 
z
M 9.8125 72.90625 
L 32.078125 72.90625 
Q 44.34375 72.90625 50.609375 67.359375 
Q 56.890625 61.8125 56.890625 51.125 
Q 56.890625 40.328125 50.609375 34.8125 
Q 44.34375 29.296875 32.078125 29.296875 
L 19.671875 29.296875 
L 19.671875 0 
L 9.8125 0 
z
" id="DejaVuSans-80"/>
       <path d="M 9.8125 72.90625 
L 23.09375 72.90625 
L 55.421875 11.921875 
L 55.421875 72.90625 
L 64.984375 72.90625 
L 64.984375 0 
L 51.703125 0 
L 19.390625 60.984375 
L 19.390625 0 
L 9.8125 0 
z
" id="DejaVuSans-78"/>
       <path d="M 3.328125 72.90625 
L 13.28125 72.90625 
L 28.609375 11.28125 
L 43.890625 72.90625 
L 54.984375 72.90625 
L 70.3125 11.28125 
L 85.59375 72.90625 
L 95.609375 72.90625 
L 77.296875 0 
L 64.890625 0 
L 49.515625 63.28125 
L 33.984375 0 
L 21.578125 0 
z
" id="DejaVuSans-87"/>
       <path d="M 39.40625 66.21875 
Q 28.65625 66.21875 22.328125 58.203125 
Q 16.015625 50.203125 16.015625 36.375 
Q 16.015625 22.609375 22.328125 14.59375 
Q 28.65625 6.59375 39.40625 6.59375 
Q 50.140625 6.59375 56.421875 14.59375 
Q 62.703125 22.609375 62.703125 36.375 
Q 62.703125 50.203125 56.421875 58.203125 
Q 50.140625 66.21875 39.40625 66.21875 
z
M 39.40625 74.21875 
Q 54.734375 74.21875 63.90625 63.9375 
Q 73.09375 53.65625 73.09375 36.375 
Q 73.09375 19.140625 63.90625 8.859375 
Q 54.734375 -1.421875 39.40625 -1.421875 
Q 24.03125 -1.421875 14.8125 8.828125 
Q 5.609375 19.09375 5.609375 36.375 
Q 5.609375 53.65625 14.8125 63.9375 
Q 24.03125 74.21875 39.40625 74.21875 
z
" id="DejaVuSans-79"/>
      </defs>
      <use xlink:href="#DejaVuSans-68"/>
      <use x="77.001953" xlink:href="#DejaVuSans-80"/>
      <use x="137.304688" xlink:href="#DejaVuSans-78"/>
      <use x="212.109375" xlink:href="#DejaVuSans-45"/>
      <use x="244.193359" xlink:href="#DejaVuSans-87"/>
      <use x="337.195312" xlink:href="#DejaVuSans-101"/>
      <use x="398.71875" xlink:href="#DejaVuSans-105"/>
      <use x="426.501953" xlink:href="#DejaVuSans-103"/>
      <use x="489.978516" xlink:href="#DejaVuSans-104"/>
      <use x="553.357422" xlink:href="#DejaVuSans-116"/>
      <use x="592.566406" xlink:href="#DejaVuSans-115"/>
      <use x="644.666016" xlink:href="#DejaVuSans-45"/>
      <use x="680.75" xlink:href="#DejaVuSans-80"/>
      <use x="741.052734" xlink:href="#DejaVuSans-80"/>
      <use x="801.355469" xlink:href="#DejaVuSans-79"/>
     </g>
    </g>
    <g id="line2d_30">
     <path d="M 227.353125 251.116437 
L 255.353125 251.116437 
" style="fill:none;stroke:#0000ff;stroke-linecap:square;stroke-width:1.5;"/>
    </g>
    <g id="line2d_31"/>
    <g id="text_17">
     <!-- SPN-Weights-GA -->
     <g transform="translate(266.553125 256.016437)scale(0.14 -0.14)">
      <defs>
       <path d="M 53.515625 70.515625 
L 53.515625 60.890625 
Q 47.90625 63.578125 42.921875 64.890625 
Q 37.9375 66.21875 33.296875 66.21875 
Q 25.25 66.21875 20.875 63.09375 
Q 16.5 59.96875 16.5 54.203125 
Q 16.5 49.359375 19.40625 46.890625 
Q 22.3125 44.4375 30.421875 42.921875 
L 36.375 41.703125 
Q 47.40625 39.59375 52.65625 34.296875 
Q 57.90625 29 57.90625 20.125 
Q 57.90625 9.515625 50.796875 4.046875 
Q 43.703125 -1.421875 29.984375 -1.421875 
Q 24.8125 -1.421875 18.96875 -0.25 
Q 13.140625 0.921875 6.890625 3.21875 
L 6.890625 13.375 
Q 12.890625 10.015625 18.65625 8.296875 
Q 24.421875 6.59375 29.984375 6.59375 
Q 38.421875 6.59375 43.015625 9.90625 
Q 47.609375 13.234375 47.609375 19.390625 
Q 47.609375 24.75 44.3125 27.78125 
Q 41.015625 30.8125 33.5 32.328125 
L 27.484375 33.5 
Q 16.453125 35.6875 11.515625 40.375 
Q 6.59375 45.0625 6.59375 53.421875 
Q 6.59375 63.09375 13.40625 68.65625 
Q 20.21875 74.21875 32.171875 74.21875 
Q 37.3125 74.21875 42.625 73.28125 
Q 47.953125 72.359375 53.515625 70.515625 
z
" id="DejaVuSans-83"/>
      </defs>
      <use xlink:href="#DejaVuSans-83"/>
      <use x="63.476562" xlink:href="#DejaVuSans-80"/>
      <use x="123.779297" xlink:href="#DejaVuSans-78"/>
      <use x="198.583984" xlink:href="#DejaVuSans-45"/>
      <use x="230.667969" xlink:href="#DejaVuSans-87"/>
      <use x="323.669922" xlink:href="#DejaVuSans-101"/>
      <use x="385.193359" xlink:href="#DejaVuSans-105"/>
      <use x="412.976562" xlink:href="#DejaVuSans-103"/>
      <use x="476.453125" xlink:href="#DejaVuSans-104"/>
      <use x="539.832031" xlink:href="#DejaVuSans-116"/>
      <use x="579.041016" xlink:href="#DejaVuSans-115"/>
      <use x="631.140625" xlink:href="#DejaVuSans-45"/>
      <use x="670.849609" xlink:href="#DejaVuSans-71"/>
      <use x="748.339844" xlink:href="#DejaVuSans-65"/>
     </g>
    </g>
    <g id="line2d_32">
     <path d="M 227.353125 271.665812 
L 255.353125 271.665812 
" style="fill:none;stroke:#800080;stroke-linecap:square;stroke-width:1.5;"/>
    </g>
    <g id="line2d_33"/>
    <g id="text_18">
     <!-- SPN-Connections-GA -->
     <g transform="translate(266.553125 276.565812)scale(0.14 -0.14)">
      <defs>
       <path d="M 48.78125 52.59375 
L 48.78125 44.1875 
Q 44.96875 46.296875 41.140625 47.34375 
Q 37.3125 48.390625 33.40625 48.390625 
Q 24.65625 48.390625 19.8125 42.84375 
Q 14.984375 37.3125 14.984375 27.296875 
Q 14.984375 17.28125 19.8125 11.734375 
Q 24.65625 6.203125 33.40625 6.203125 
Q 37.3125 6.203125 41.140625 7.25 
Q 44.96875 8.296875 48.78125 10.40625 
L 48.78125 2.09375 
Q 45.015625 0.34375 40.984375 -0.53125 
Q 36.96875 -1.421875 32.421875 -1.421875 
Q 20.0625 -1.421875 12.78125 6.34375 
Q 5.515625 14.109375 5.515625 27.296875 
Q 5.515625 40.671875 12.859375 48.328125 
Q 20.21875 56 33.015625 56 
Q 37.15625 56 41.109375 55.140625 
Q 45.0625 54.296875 48.78125 52.59375 
z
" id="DejaVuSans-99"/>
      </defs>
      <use xlink:href="#DejaVuSans-83"/>
      <use x="63.476562" xlink:href="#DejaVuSans-80"/>
      <use x="123.779297" xlink:href="#DejaVuSans-78"/>
      <use x="198.583984" xlink:href="#DejaVuSans-45"/>
      <use x="234.667969" xlink:href="#DejaVuSans-67"/>
      <use x="304.492188" xlink:href="#DejaVuSans-111"/>
      <use x="365.673828" xlink:href="#DejaVuSans-110"/>
      <use x="429.052734" xlink:href="#DejaVuSans-110"/>
      <use x="492.431641" xlink:href="#DejaVuSans-101"/>
      <use x="553.955078" xlink:href="#DejaVuSans-99"/>
      <use x="608.935547" xlink:href="#DejaVuSans-116"/>
      <use x="648.144531" xlink:href="#DejaVuSans-105"/>
      <use x="675.927734" xlink:href="#DejaVuSans-111"/>
      <use x="737.109375" xlink:href="#DejaVuSans-110"/>
      <use x="800.488281" xlink:href="#DejaVuSans-115"/>
      <use x="852.587891" xlink:href="#DejaVuSans-45"/>
      <use x="892.296875" xlink:href="#DejaVuSans-71"/>
      <use x="969.787109" xlink:href="#DejaVuSans-65"/>
     </g>
    </g>
   </g>
  </g>
 </g>
 <defs>
  <clipPath id="pf4bce3da0e">
   <rect height="266.112" width="357.12" x="67.379375" y="25.965375"/>
  </clipPath>
 </defs>
</svg>
