<?xml version="1.0" encoding="utf-8" standalone="no"?>
<!DOCTYPE svg PUBLIC "-//W3C//DTD SVG 1.1//EN"
  "http://www.w3.org/Graphics/SVG/1.1/DTD/svg11.dtd">
<!-- Created with matplotlib (https://matplotlib.org/) -->
<svg height="337.376125pt" version="1.1" viewBox="0 0 462.875625 337.376125" width="462.875625pt" xmlns="http://www.w3.org/2000/svg" xmlns:xlink="http://www.w3.org/1999/xlink">
 <metadata>
  <rdf:RDF xmlns:cc="http://creativecommons.org/ns#" xmlns:dc="http://purl.org/dc/elements/1.1/" xmlns:rdf="http://www.w3.org/1999/02/22-rdf-syntax-ns#">
   <cc:Work>
    <dc:type rdf:resource="http://purl.org/dc/dcmitype/StillImage"/>
    <dc:date>2022-12-08T17:01:38.918103</dc:date>
    <dc:format>image/svg+xml</dc:format>
    <dc:creator>
     <cc:Agent>
      <dc:title>Matplotlib v3.3.4, https://matplotlib.org/</dc:title>
     </cc:Agent>
    </dc:creator>
   </cc:Work>
  </rdf:RDF>
 </metadata>
 <defs>
  <style type="text/css">*{stroke-linecap:butt;stroke-linejoin:round;}</style>
 </defs>
 <g id="figure_1">
  <g id="patch_1">
   <path d="M 0 337.376125 
L 462.875625 337.376125 
L 462.875625 0 
L 0 0 
z
" style="fill:#ffffff;"/>
  </g>
  <g id="axes_1">
   <g id="patch_2">
    <path d="M 85.194375 292.077375 
L 442.314375 292.077375 
L 442.314375 25.965375 
L 85.194375 25.965375 
z
" style="fill:#ffffff;"/>
   </g>
   <g id="PolyCollection_1">
    <defs>
     <path d="M 85.194375 -59.271524 
L 85.194375 -57.39475 
L 88.801648 -96.09721 
L 92.40892 -202.540205 
L 96.016193 -216.344439 
L 99.623466 -220.510927 
L 103.230739 -227.512288 
L 106.838011 -229.86654 
L 110.445284 -233.471247 
L 114.052557 -232.40517 
L 117.65983 -241.822281 
L 121.267102 -240.31061 
L 124.874375 -247.422535 
L 128.481648 -245.497192 
L 132.08892 -247.092989 
L 135.696193 -248.906068 
L 139.303466 -247.759931 
L 142.910739 -252.363126 
L 146.518011 -256.784256 
L 150.125284 -256.531728 
L 153.732557 -258.371766 
L 157.33983 -259.479127 
L 160.947102 -260.757651 
L 164.554375 -264.231775 
L 168.161648 -263.099953 
L 171.76892 -263.399937 
L 175.376193 -264.399379 
L 178.983466 -268.298196 
L 182.590739 -265.718017 
L 186.198011 -266.415517 
L 189.805284 -268.194999 
L 193.412557 -269.835452 
L 197.01983 -272.084265 
L 200.627102 -273.2387 
L 204.234375 -272.456249 
L 207.841648 -271.775303 
L 211.44892 -272.49334 
L 215.056193 -273.842147 
L 218.663466 -275.756732 
L 222.270739 -276.25315 
L 225.878011 -277.559311 
L 229.485284 -278.003711 
L 233.092557 -278.188221 
L 236.69983 -279.215223 
L 240.307102 -279.833394 
L 243.914375 -281.056317 
L 247.521648 -281.238174 
L 251.12892 -281.795455 
L 254.736193 -282.118239 
L 258.343466 -282.317328 
L 261.950739 -281.741555 
L 265.558011 -282.164055 
L 269.165284 -280.951885 
L 272.772557 -282.298108 
L 276.37983 -282.177904 
L 279.987102 -281.808381 
L 283.594375 -282.921415 
L 287.201648 -282.448381 
L 290.80892 -280.859083 
L 294.416193 -278.457639 
L 298.023466 -284.269756 
L 301.630739 -283.804384 
L 305.238011 -282.529371 
L 308.845284 -285.485825 
L 312.452557 -284.922209 
L 316.05983 -284.73076 
L 319.667102 -284.299285 
L 323.274375 -285.081318 
L 326.881648 -285.134706 
L 330.48892 -285.308546 
L 334.096193 -285.870529 
L 337.703466 -283.276707 
L 341.310739 -285.617985 
L 344.918011 -285.926301 
L 348.525284 -286.093087 
L 352.132557 -286.063883 
L 355.73983 -284.41454 
L 359.347102 -285.253175 
L 362.954375 -285.781822 
L 366.561648 -286.78549 
L 370.16892 -286.900623 
L 373.776193 -284.75688 
L 377.383466 -284.761675 
L 380.990739 -285.101055 
L 384.598011 -287.118018 
L 388.205284 -285.877478 
L 391.812557 -282.560716 
L 395.41983 -284.734342 
L 399.027102 -281.076518 
L 402.634375 -282.038627 
L 406.241648 -281.644658 
L 409.84892 -286.033116 
L 413.456193 -286.378707 
L 417.063466 -281.875566 
L 420.670739 -283.368555 
L 424.278011 -276.450606 
L 427.885284 -282.229649 
L 431.492557 -276.498374 
L 435.09983 -283.211764 
L 438.707102 -282.416859 
L 442.314375 -278.836526 
L 442.314375 -294.115176 
L 442.314375 -294.115176 
L 438.707102 -296.495005 
L 435.09983 -295.118046 
L 431.492557 -291.205718 
L 427.885284 -296.067263 
L 424.278011 -294.654265 
L 420.670739 -298.754429 
L 417.063466 -294.996685 
L 413.456193 -299.31475 
L 409.84892 -297.252393 
L 406.241648 -294.614576 
L 402.634375 -296.747656 
L 399.027102 -297.136357 
L 395.41983 -295.940185 
L 391.812557 -294.27425 
L 388.205284 -297.226215 
L 384.598011 -298.959023 
L 380.990739 -298.800514 
L 377.383466 -297.248835 
L 373.776193 -297.274745 
L 370.16892 -298.730971 
L 366.561648 -299.002938 
L 362.954375 -296.405494 
L 359.347102 -296.440908 
L 355.73983 -297.480204 
L 352.132557 -297.738872 
L 348.525284 -298.123118 
L 344.918011 -297.226291 
L 341.310739 -297.074587 
L 337.703466 -295.534787 
L 334.096193 -297.050816 
L 330.48892 -297.320942 
L 326.881648 -297.219204 
L 323.274375 -297.072179 
L 319.667102 -296.245327 
L 316.05983 -295.706982 
L 312.452557 -296.849658 
L 308.845284 -295.696302 
L 305.238011 -292.589912 
L 301.630739 -294.337485 
L 298.023466 -293.912231 
L 294.416193 -292.935656 
L 290.80892 -291.095123 
L 287.201648 -292.417813 
L 283.594375 -292.355446 
L 279.987102 -290.872973 
L 276.37983 -291.41029 
L 272.772557 -292.904466 
L 269.165284 -288.372875 
L 265.558011 -292.978255 
L 261.950739 -291.742584 
L 258.343466 -291.485738 
L 254.736193 -290.387001 
L 251.12892 -290.227173 
L 247.521648 -290.614972 
L 243.914375 -289.321018 
L 240.307102 -288.890774 
L 236.69983 -287.700633 
L 233.092557 -287.008709 
L 229.485284 -287.671303 
L 225.878011 -286.956809 
L 222.270739 -288.280769 
L 218.663466 -286.386868 
L 215.056193 -285.032254 
L 211.44892 -284.771765 
L 207.841648 -284.448435 
L 204.234375 -284.587685 
L 200.627102 -284.220778 
L 197.01983 -282.455285 
L 193.412557 -280.848183 
L 189.805284 -280.888551 
L 186.198011 -279.497387 
L 182.590739 -278.423789 
L 178.983466 -281.203518 
L 175.376193 -276.776165 
L 171.76892 -277.71786 
L 168.161648 -277.674692 
L 164.554375 -276.634791 
L 160.947102 -271.518515 
L 157.33983 -270.669934 
L 153.732557 -266.132725 
L 150.125284 -265.621303 
L 146.518011 -265.502491 
L 142.910739 -262.958582 
L 139.303466 -260.511382 
L 135.696193 -259.111289 
L 132.08892 -257.636369 
L 128.481648 -255.583363 
L 124.874375 -258.282565 
L 121.267102 -251.059481 
L 117.65983 -249.252853 
L 114.052557 -243.848325 
L 110.445284 -243.92406 
L 106.838011 -238.262547 
L 103.230739 -236.618697 
L 99.623466 -227.27394 
L 96.016193 -219.292268 
L 92.40892 -213.385702 
L 88.801648 -149.750646 
L 85.194375 -59.271524 
z
" id="m7623f2de2c" style="stroke:#0000ff;stroke-opacity:0.2;"/>
    </defs>
    <g clip-path="url(#pe4becc903a)">
     <use style="fill:#0000ff;fill-opacity:0.2;stroke:#0000ff;stroke-opacity:0.2;" x="0" xlink:href="#m7623f2de2c" y="337.376125"/>
    </g>
   </g>
   <g id="PolyCollection_2">
    <defs>
     <path d="M 85.194375 -206.021771 
L 85.194375 -189.945102 
L 88.801648 -169.643843 
L 92.40892 -175.036645 
L 96.016193 -191.749715 
L 99.623466 -205.505061 
L 103.230739 -209.895744 
L 106.838011 -196.383384 
L 110.445284 -204.093906 
L 114.052557 -219.09693 
L 117.65983 -213.804651 
L 121.267102 -211.96207 
L 124.874375 -224.905908 
L 128.481648 -227.830213 
L 132.08892 -227.795439 
L 135.696193 -226.169544 
L 139.303466 -229.084356 
L 142.910739 -229.319959 
L 146.518011 -229.779682 
L 150.125284 -229.608826 
L 153.732557 -231.796269 
L 157.33983 -234.669814 
L 160.947102 -232.268246 
L 164.554375 -232.862281 
L 168.161648 -239.610163 
L 171.76892 -237.848479 
L 175.376193 -239.605655 
L 178.983466 -238.7407 
L 182.590739 -239.283628 
L 186.198011 -241.177013 
L 189.805284 -243.658982 
L 193.412557 -241.71419 
L 197.01983 -240.912745 
L 200.627102 -246.724854 
L 204.234375 -244.89714 
L 207.841648 -246.563202 
L 211.44892 -245.815033 
L 215.056193 -243.16311 
L 218.663466 -242.982303 
L 222.270739 -245.345315 
L 225.878011 -244.559432 
L 229.485284 -243.388542 
L 233.092557 -247.186884 
L 236.69983 -250.234303 
L 240.307102 -245.968849 
L 243.914375 -248.835314 
L 247.521648 -251.742494 
L 251.12892 -252.217081 
L 254.736193 -248.751262 
L 258.343466 -253.538922 
L 261.950739 -253.04561 
L 265.558011 -255.454032 
L 269.165284 -256.251489 
L 272.772557 -255.121616 
L 276.37983 -257.885225 
L 279.987102 -258.662687 
L 283.594375 -255.258367 
L 287.201648 -256.375613 
L 290.80892 -256.418554 
L 294.416193 -257.998107 
L 298.023466 -258.302824 
L 301.630739 -258.134355 
L 305.238011 -257.432987 
L 308.845284 -257.545337 
L 312.452557 -260.392853 
L 316.05983 -260.341672 
L 319.667102 -258.616852 
L 323.274375 -260.942523 
L 326.881648 -261.042738 
L 330.48892 -259.90402 
L 334.096193 -262.258649 
L 337.703466 -259.436891 
L 341.310739 -261.530557 
L 344.918011 -261.90857 
L 348.525284 -261.390573 
L 352.132557 -263.292955 
L 355.73983 -262.491595 
L 359.347102 -264.129597 
L 362.954375 -261.705128 
L 366.561648 -262.101663 
L 370.16892 -263.090903 
L 373.776193 -262.308887 
L 377.383466 -262.568105 
L 380.990739 -263.761613 
L 384.598011 -263.247841 
L 388.205284 -263.708427 
L 391.812557 -261.976919 
L 395.41983 -260.615551 
L 399.027102 -261.726403 
L 402.634375 -262.578896 
L 406.241648 -263.564143 
L 409.84892 -261.72898 
L 413.456193 -262.173842 
L 417.063466 -263.705057 
L 420.670739 -263.84586 
L 424.278011 -266.581743 
L 427.885284 -266.559446 
L 431.492557 -267.583797 
L 435.09983 -264.748729 
L 438.707102 -266.176044 
L 442.314375 -265.592853 
L 442.314375 -283.161488 
L 442.314375 -283.161488 
L 438.707102 -283.848645 
L 435.09983 -283.539604 
L 431.492557 -284.272569 
L 427.885284 -284.158782 
L 424.278011 -284.763548 
L 420.670739 -282.666041 
L 417.063466 -282.588821 
L 413.456193 -280.962769 
L 409.84892 -281.579631 
L 406.241648 -282.385236 
L 402.634375 -281.811931 
L 399.027102 -281.814486 
L 395.41983 -280.730229 
L 391.812557 -282.14497 
L 388.205284 -281.470206 
L 384.598011 -282.538277 
L 380.990739 -282.703015 
L 377.383466 -281.851027 
L 373.776193 -282.656306 
L 370.16892 -282.066537 
L 366.561648 -281.69657 
L 362.954375 -281.121827 
L 359.347102 -283.3851 
L 355.73983 -281.809029 
L 352.132557 -283.39242 
L 348.525284 -281.633779 
L 344.918011 -281.426554 
L 341.310739 -281.659422 
L 337.703466 -277.330501 
L 334.096193 -280.363327 
L 330.48892 -277.95669 
L 326.881648 -278.664372 
L 323.274375 -278.330399 
L 319.667102 -277.365224 
L 316.05983 -276.888142 
L 312.452557 -280.333749 
L 308.845284 -274.835859 
L 305.238011 -275.241306 
L 301.630739 -275.353174 
L 298.023466 -276.385722 
L 294.416193 -273.307829 
L 290.80892 -273.930578 
L 287.201648 -279.259371 
L 283.594375 -272.884304 
L 279.987102 -275.064023 
L 276.37983 -274.413175 
L 272.772557 -271.831143 
L 269.165284 -273.546794 
L 265.558011 -273.372971 
L 261.950739 -270.405265 
L 258.343466 -271.819712 
L 254.736193 -268.000051 
L 251.12892 -275.092299 
L 247.521648 -268.234668 
L 243.914375 -267.408045 
L 240.307102 -263.167392 
L 236.69983 -267.462781 
L 233.092557 -264.661832 
L 229.485284 -261.56517 
L 225.878011 -263.205677 
L 222.270739 -259.926198 
L 218.663466 -261.088061 
L 215.056193 -258.028376 
L 211.44892 -263.417977 
L 207.841648 -264.829177 
L 204.234375 -262.583671 
L 200.627102 -260.005772 
L 197.01983 -255.976602 
L 193.412557 -262.487939 
L 189.805284 -259.865212 
L 186.198011 -258.361354 
L 182.590739 -255.711225 
L 178.983466 -252.500498 
L 175.376193 -258.3532 
L 171.76892 -251.975156 
L 168.161648 -253.547042 
L 164.554375 -248.068528 
L 160.947102 -247.139073 
L 157.33983 -250.754397 
L 153.732557 -245.571463 
L 150.125284 -246.854405 
L 146.518011 -242.172492 
L 142.910739 -245.766877 
L 139.303466 -240.112424 
L 135.696193 -239.672036 
L 132.08892 -241.900782 
L 128.481648 -239.612812 
L 124.874375 -237.613873 
L 121.267102 -233.160756 
L 117.65983 -235.451174 
L 114.052557 -229.557386 
L 110.445284 -225.048106 
L 106.838011 -219.610928 
L 103.230739 -229.919486 
L 99.623466 -222.177755 
L 96.016193 -220.020705 
L 92.40892 -208.383377 
L 88.801648 -197.09701 
L 85.194375 -206.021771 
z
" id="mef1bc98e48" style="stroke:#800080;stroke-opacity:0.2;"/>
    </defs>
    <g clip-path="url(#pe4becc903a)">
     <use style="fill:#800080;fill-opacity:0.2;stroke:#800080;stroke-opacity:0.2;" x="0" xlink:href="#mef1bc98e48" y="337.376125"/>
    </g>
   </g>
   <g id="matplotlib.axis_1">
    <g id="xtick_1">
     <g id="line2d_1">
      <path clip-path="url(#pe4becc903a)" d="M 153.732557 292.077375 
L 153.732557 25.965375 
" style="fill:none;stroke:#b0b0b0;stroke-linecap:square;stroke-width:0.8;"/>
     </g>
     <g id="line2d_2">
      <defs>
       <path d="M 0 0 
L 0 3.5 
" id="ma632e2e1e1" style="stroke:#000000;stroke-width:0.8;"/>
      </defs>
      <g>
       <use style="stroke:#000000;stroke-width:0.8;" x="153.732557" xlink:href="#ma632e2e1e1" y="292.077375"/>
      </g>
     </g>
     <g id="text_1">
      <!-- 20 -->
      <g transform="translate(144.825057 309.715187)scale(0.14 -0.14)">
       <defs>
        <path d="M 19.1875 8.296875 
L 53.609375 8.296875 
L 53.609375 0 
L 7.328125 0 
L 7.328125 8.296875 
Q 12.9375 14.109375 22.625 23.890625 
Q 32.328125 33.6875 34.8125 36.53125 
Q 39.546875 41.84375 41.421875 45.53125 
Q 43.3125 49.21875 43.3125 52.78125 
Q 43.3125 58.59375 39.234375 62.25 
Q 35.15625 65.921875 28.609375 65.921875 
Q 23.96875 65.921875 18.8125 64.3125 
Q 13.671875 62.703125 7.8125 59.421875 
L 7.8125 69.390625 
Q 13.765625 71.78125 18.9375 73 
Q 24.125 74.21875 28.421875 74.21875 
Q 39.75 74.21875 46.484375 68.546875 
Q 53.21875 62.890625 53.21875 53.421875 
Q 53.21875 48.921875 51.53125 44.890625 
Q 49.859375 40.875 45.40625 35.40625 
Q 44.1875 33.984375 37.640625 27.21875 
Q 31.109375 20.453125 19.1875 8.296875 
z
" id="DejaVuSans-50"/>
        <path d="M 31.78125 66.40625 
Q 24.171875 66.40625 20.328125 58.90625 
Q 16.5 51.421875 16.5 36.375 
Q 16.5 21.390625 20.328125 13.890625 
Q 24.171875 6.390625 31.78125 6.390625 
Q 39.453125 6.390625 43.28125 13.890625 
Q 47.125 21.390625 47.125 36.375 
Q 47.125 51.421875 43.28125 58.90625 
Q 39.453125 66.40625 31.78125 66.40625 
z
M 31.78125 74.21875 
Q 44.046875 74.21875 50.515625 64.515625 
Q 56.984375 54.828125 56.984375 36.375 
Q 56.984375 17.96875 50.515625 8.265625 
Q 44.046875 -1.421875 31.78125 -1.421875 
Q 19.53125 -1.421875 13.0625 8.265625 
Q 6.59375 17.96875 6.59375 36.375 
Q 6.59375 54.828125 13.0625 64.515625 
Q 19.53125 74.21875 31.78125 74.21875 
z
" id="DejaVuSans-48"/>
       </defs>
       <use xlink:href="#DejaVuSans-50"/>
       <use x="63.623047" xlink:href="#DejaVuSans-48"/>
      </g>
     </g>
    </g>
    <g id="xtick_2">
     <g id="line2d_3">
      <path clip-path="url(#pe4becc903a)" d="M 225.878011 292.077375 
L 225.878011 25.965375 
" style="fill:none;stroke:#b0b0b0;stroke-linecap:square;stroke-width:0.8;"/>
     </g>
     <g id="line2d_4">
      <g>
       <use style="stroke:#000000;stroke-width:0.8;" x="225.878011" xlink:href="#ma632e2e1e1" y="292.077375"/>
      </g>
     </g>
     <g id="text_2">
      <!-- 40 -->
      <g transform="translate(216.970511 309.715187)scale(0.14 -0.14)">
       <defs>
        <path d="M 37.796875 64.3125 
L 12.890625 25.390625 
L 37.796875 25.390625 
z
M 35.203125 72.90625 
L 47.609375 72.90625 
L 47.609375 25.390625 
L 58.015625 25.390625 
L 58.015625 17.1875 
L 47.609375 17.1875 
L 47.609375 0 
L 37.796875 0 
L 37.796875 17.1875 
L 4.890625 17.1875 
L 4.890625 26.703125 
z
" id="DejaVuSans-52"/>
       </defs>
       <use xlink:href="#DejaVuSans-52"/>
       <use x="63.623047" xlink:href="#DejaVuSans-48"/>
      </g>
     </g>
    </g>
    <g id="xtick_3">
     <g id="line2d_5">
      <path clip-path="url(#pe4becc903a)" d="M 298.023466 292.077375 
L 298.023466 25.965375 
" style="fill:none;stroke:#b0b0b0;stroke-linecap:square;stroke-width:0.8;"/>
     </g>
     <g id="line2d_6">
      <g>
       <use style="stroke:#000000;stroke-width:0.8;" x="298.023466" xlink:href="#ma632e2e1e1" y="292.077375"/>
      </g>
     </g>
     <g id="text_3">
      <!-- 60 -->
      <g transform="translate(289.115966 309.715187)scale(0.14 -0.14)">
       <defs>
        <path d="M 33.015625 40.375 
Q 26.375 40.375 22.484375 35.828125 
Q 18.609375 31.296875 18.609375 23.390625 
Q 18.609375 15.53125 22.484375 10.953125 
Q 26.375 6.390625 33.015625 6.390625 
Q 39.65625 6.390625 43.53125 10.953125 
Q 47.40625 15.53125 47.40625 23.390625 
Q 47.40625 31.296875 43.53125 35.828125 
Q 39.65625 40.375 33.015625 40.375 
z
M 52.59375 71.296875 
L 52.59375 62.3125 
Q 48.875 64.0625 45.09375 64.984375 
Q 41.3125 65.921875 37.59375 65.921875 
Q 27.828125 65.921875 22.671875 59.328125 
Q 17.53125 52.734375 16.796875 39.40625 
Q 19.671875 43.65625 24.015625 45.921875 
Q 28.375 48.1875 33.59375 48.1875 
Q 44.578125 48.1875 50.953125 41.515625 
Q 57.328125 34.859375 57.328125 23.390625 
Q 57.328125 12.15625 50.6875 5.359375 
Q 44.046875 -1.421875 33.015625 -1.421875 
Q 20.359375 -1.421875 13.671875 8.265625 
Q 6.984375 17.96875 6.984375 36.375 
Q 6.984375 53.65625 15.1875 63.9375 
Q 23.390625 74.21875 37.203125 74.21875 
Q 40.921875 74.21875 44.703125 73.484375 
Q 48.484375 72.75 52.59375 71.296875 
z
" id="DejaVuSans-54"/>
       </defs>
       <use xlink:href="#DejaVuSans-54"/>
       <use x="63.623047" xlink:href="#DejaVuSans-48"/>
      </g>
     </g>
    </g>
    <g id="xtick_4">
     <g id="line2d_7">
      <path clip-path="url(#pe4becc903a)" d="M 370.16892 292.077375 
L 370.16892 25.965375 
" style="fill:none;stroke:#b0b0b0;stroke-linecap:square;stroke-width:0.8;"/>
     </g>
     <g id="line2d_8">
      <g>
       <use style="stroke:#000000;stroke-width:0.8;" x="370.16892" xlink:href="#ma632e2e1e1" y="292.077375"/>
      </g>
     </g>
     <g id="text_4">
      <!-- 80 -->
      <g transform="translate(361.26142 309.715187)scale(0.14 -0.14)">
       <defs>
        <path d="M 31.78125 34.625 
Q 24.75 34.625 20.71875 30.859375 
Q 16.703125 27.09375 16.703125 20.515625 
Q 16.703125 13.921875 20.71875 10.15625 
Q 24.75 6.390625 31.78125 6.390625 
Q 38.8125 6.390625 42.859375 10.171875 
Q 46.921875 13.96875 46.921875 20.515625 
Q 46.921875 27.09375 42.890625 30.859375 
Q 38.875 34.625 31.78125 34.625 
z
M 21.921875 38.8125 
Q 15.578125 40.375 12.03125 44.71875 
Q 8.5 49.078125 8.5 55.328125 
Q 8.5 64.0625 14.71875 69.140625 
Q 20.953125 74.21875 31.78125 74.21875 
Q 42.671875 74.21875 48.875 69.140625 
Q 55.078125 64.0625 55.078125 55.328125 
Q 55.078125 49.078125 51.53125 44.71875 
Q 48 40.375 41.703125 38.8125 
Q 48.828125 37.15625 52.796875 32.3125 
Q 56.78125 27.484375 56.78125 20.515625 
Q 56.78125 9.90625 50.3125 4.234375 
Q 43.84375 -1.421875 31.78125 -1.421875 
Q 19.734375 -1.421875 13.25 4.234375 
Q 6.78125 9.90625 6.78125 20.515625 
Q 6.78125 27.484375 10.78125 32.3125 
Q 14.796875 37.15625 21.921875 38.8125 
z
M 18.3125 54.390625 
Q 18.3125 48.734375 21.84375 45.5625 
Q 25.390625 42.390625 31.78125 42.390625 
Q 38.140625 42.390625 41.71875 45.5625 
Q 45.3125 48.734375 45.3125 54.390625 
Q 45.3125 60.0625 41.71875 63.234375 
Q 38.140625 66.40625 31.78125 66.40625 
Q 25.390625 66.40625 21.84375 63.234375 
Q 18.3125 60.0625 18.3125 54.390625 
z
" id="DejaVuSans-56"/>
       </defs>
       <use xlink:href="#DejaVuSans-56"/>
       <use x="63.623047" xlink:href="#DejaVuSans-48"/>
      </g>
     </g>
    </g>
    <g id="xtick_5">
     <g id="line2d_9">
      <path clip-path="url(#pe4becc903a)" d="M 442.314375 292.077375 
L 442.314375 25.965375 
" style="fill:none;stroke:#b0b0b0;stroke-linecap:square;stroke-width:0.8;"/>
     </g>
     <g id="line2d_10">
      <g>
       <use style="stroke:#000000;stroke-width:0.8;" x="442.314375" xlink:href="#ma632e2e1e1" y="292.077375"/>
      </g>
     </g>
     <g id="text_5">
      <!-- 100 -->
      <g transform="translate(428.953125 309.715187)scale(0.14 -0.14)">
       <defs>
        <path d="M 12.40625 8.296875 
L 28.515625 8.296875 
L 28.515625 63.921875 
L 10.984375 60.40625 
L 10.984375 69.390625 
L 28.421875 72.90625 
L 38.28125 72.90625 
L 38.28125 8.296875 
L 54.390625 8.296875 
L 54.390625 0 
L 12.40625 0 
z
" id="DejaVuSans-49"/>
       </defs>
       <use xlink:href="#DejaVuSans-49"/>
       <use x="63.623047" xlink:href="#DejaVuSans-48"/>
       <use x="127.246094" xlink:href="#DejaVuSans-48"/>
      </g>
     </g>
    </g>
    <g id="text_6">
     <!-- Generations. -->
     <g transform="translate(218.832969 327.264562)scale(0.14 -0.14)">
      <defs>
       <path d="M 59.515625 10.40625 
L 59.515625 29.984375 
L 43.40625 29.984375 
L 43.40625 38.09375 
L 69.28125 38.09375 
L 69.28125 6.78125 
Q 63.578125 2.734375 56.6875 0.65625 
Q 49.8125 -1.421875 42 -1.421875 
Q 24.90625 -1.421875 15.25 8.5625 
Q 5.609375 18.5625 5.609375 36.375 
Q 5.609375 54.25 15.25 64.234375 
Q 24.90625 74.21875 42 74.21875 
Q 49.125 74.21875 55.546875 72.453125 
Q 61.96875 70.703125 67.390625 67.28125 
L 67.390625 56.78125 
Q 61.921875 61.421875 55.765625 63.765625 
Q 49.609375 66.109375 42.828125 66.109375 
Q 29.4375 66.109375 22.71875 58.640625 
Q 16.015625 51.171875 16.015625 36.375 
Q 16.015625 21.625 22.71875 14.15625 
Q 29.4375 6.6875 42.828125 6.6875 
Q 48.046875 6.6875 52.140625 7.59375 
Q 56.25 8.5 59.515625 10.40625 
z
" id="DejaVuSans-71"/>
       <path d="M 56.203125 29.59375 
L 56.203125 25.203125 
L 14.890625 25.203125 
Q 15.484375 15.921875 20.484375 11.0625 
Q 25.484375 6.203125 34.421875 6.203125 
Q 39.59375 6.203125 44.453125 7.46875 
Q 49.3125 8.734375 54.109375 11.28125 
L 54.109375 2.78125 
Q 49.265625 0.734375 44.1875 -0.34375 
Q 39.109375 -1.421875 33.890625 -1.421875 
Q 20.796875 -1.421875 13.15625 6.1875 
Q 5.515625 13.8125 5.515625 26.8125 
Q 5.515625 40.234375 12.765625 48.109375 
Q 20.015625 56 32.328125 56 
Q 43.359375 56 49.78125 48.890625 
Q 56.203125 41.796875 56.203125 29.59375 
z
M 47.21875 32.234375 
Q 47.125 39.59375 43.09375 43.984375 
Q 39.0625 48.390625 32.421875 48.390625 
Q 24.90625 48.390625 20.390625 44.140625 
Q 15.875 39.890625 15.1875 32.171875 
z
" id="DejaVuSans-101"/>
       <path d="M 54.890625 33.015625 
L 54.890625 0 
L 45.90625 0 
L 45.90625 32.71875 
Q 45.90625 40.484375 42.875 44.328125 
Q 39.84375 48.1875 33.796875 48.1875 
Q 26.515625 48.1875 22.3125 43.546875 
Q 18.109375 38.921875 18.109375 30.90625 
L 18.109375 0 
L 9.078125 0 
L 9.078125 54.6875 
L 18.109375 54.6875 
L 18.109375 46.1875 
Q 21.34375 51.125 25.703125 53.5625 
Q 30.078125 56 35.796875 56 
Q 45.21875 56 50.046875 50.171875 
Q 54.890625 44.34375 54.890625 33.015625 
z
" id="DejaVuSans-110"/>
       <path d="M 41.109375 46.296875 
Q 39.59375 47.171875 37.8125 47.578125 
Q 36.03125 48 33.890625 48 
Q 26.265625 48 22.1875 43.046875 
Q 18.109375 38.09375 18.109375 28.8125 
L 18.109375 0 
L 9.078125 0 
L 9.078125 54.6875 
L 18.109375 54.6875 
L 18.109375 46.1875 
Q 20.953125 51.171875 25.484375 53.578125 
Q 30.03125 56 36.53125 56 
Q 37.453125 56 38.578125 55.875 
Q 39.703125 55.765625 41.0625 55.515625 
z
" id="DejaVuSans-114"/>
       <path d="M 34.28125 27.484375 
Q 23.390625 27.484375 19.1875 25 
Q 14.984375 22.515625 14.984375 16.5 
Q 14.984375 11.71875 18.140625 8.90625 
Q 21.296875 6.109375 26.703125 6.109375 
Q 34.1875 6.109375 38.703125 11.40625 
Q 43.21875 16.703125 43.21875 25.484375 
L 43.21875 27.484375 
z
M 52.203125 31.203125 
L 52.203125 0 
L 43.21875 0 
L 43.21875 8.296875 
Q 40.140625 3.328125 35.546875 0.953125 
Q 30.953125 -1.421875 24.3125 -1.421875 
Q 15.921875 -1.421875 10.953125 3.296875 
Q 6 8.015625 6 15.921875 
Q 6 25.140625 12.171875 29.828125 
Q 18.359375 34.515625 30.609375 34.515625 
L 43.21875 34.515625 
L 43.21875 35.40625 
Q 43.21875 41.609375 39.140625 45 
Q 35.0625 48.390625 27.6875 48.390625 
Q 23 48.390625 18.546875 47.265625 
Q 14.109375 46.140625 10.015625 43.890625 
L 10.015625 52.203125 
Q 14.9375 54.109375 19.578125 55.046875 
Q 24.21875 56 28.609375 56 
Q 40.484375 56 46.34375 49.84375 
Q 52.203125 43.703125 52.203125 31.203125 
z
" id="DejaVuSans-97"/>
       <path d="M 18.3125 70.21875 
L 18.3125 54.6875 
L 36.8125 54.6875 
L 36.8125 47.703125 
L 18.3125 47.703125 
L 18.3125 18.015625 
Q 18.3125 11.328125 20.140625 9.421875 
Q 21.96875 7.515625 27.59375 7.515625 
L 36.8125 7.515625 
L 36.8125 0 
L 27.59375 0 
Q 17.1875 0 13.234375 3.875 
Q 9.28125 7.765625 9.28125 18.015625 
L 9.28125 47.703125 
L 2.6875 47.703125 
L 2.6875 54.6875 
L 9.28125 54.6875 
L 9.28125 70.21875 
z
" id="DejaVuSans-116"/>
       <path d="M 9.421875 54.6875 
L 18.40625 54.6875 
L 18.40625 0 
L 9.421875 0 
z
M 9.421875 75.984375 
L 18.40625 75.984375 
L 18.40625 64.59375 
L 9.421875 64.59375 
z
" id="DejaVuSans-105"/>
       <path d="M 30.609375 48.390625 
Q 23.390625 48.390625 19.1875 42.75 
Q 14.984375 37.109375 14.984375 27.296875 
Q 14.984375 17.484375 19.15625 11.84375 
Q 23.34375 6.203125 30.609375 6.203125 
Q 37.796875 6.203125 41.984375 11.859375 
Q 46.1875 17.53125 46.1875 27.296875 
Q 46.1875 37.015625 41.984375 42.703125 
Q 37.796875 48.390625 30.609375 48.390625 
z
M 30.609375 56 
Q 42.328125 56 49.015625 48.375 
Q 55.71875 40.765625 55.71875 27.296875 
Q 55.71875 13.875 49.015625 6.21875 
Q 42.328125 -1.421875 30.609375 -1.421875 
Q 18.84375 -1.421875 12.171875 6.21875 
Q 5.515625 13.875 5.515625 27.296875 
Q 5.515625 40.765625 12.171875 48.375 
Q 18.84375 56 30.609375 56 
z
" id="DejaVuSans-111"/>
       <path d="M 44.28125 53.078125 
L 44.28125 44.578125 
Q 40.484375 46.53125 36.375 47.5 
Q 32.28125 48.484375 27.875 48.484375 
Q 21.1875 48.484375 17.84375 46.4375 
Q 14.5 44.390625 14.5 40.28125 
Q 14.5 37.15625 16.890625 35.375 
Q 19.28125 33.59375 26.515625 31.984375 
L 29.59375 31.296875 
Q 39.15625 29.25 43.1875 25.515625 
Q 47.21875 21.78125 47.21875 15.09375 
Q 47.21875 7.46875 41.1875 3.015625 
Q 35.15625 -1.421875 24.609375 -1.421875 
Q 20.21875 -1.421875 15.453125 -0.5625 
Q 10.6875 0.296875 5.421875 2 
L 5.421875 11.28125 
Q 10.40625 8.6875 15.234375 7.390625 
Q 20.0625 6.109375 24.8125 6.109375 
Q 31.15625 6.109375 34.5625 8.28125 
Q 37.984375 10.453125 37.984375 14.40625 
Q 37.984375 18.0625 35.515625 20.015625 
Q 33.0625 21.96875 24.703125 23.78125 
L 21.578125 24.515625 
Q 13.234375 26.265625 9.515625 29.90625 
Q 5.8125 33.546875 5.8125 39.890625 
Q 5.8125 47.609375 11.28125 51.796875 
Q 16.75 56 26.8125 56 
Q 31.78125 56 36.171875 55.265625 
Q 40.578125 54.546875 44.28125 53.078125 
z
" id="DejaVuSans-115"/>
       <path d="M 10.6875 12.40625 
L 21 12.40625 
L 21 0 
L 10.6875 0 
z
" id="DejaVuSans-46"/>
      </defs>
      <use xlink:href="#DejaVuSans-71"/>
      <use x="77.490234" xlink:href="#DejaVuSans-101"/>
      <use x="139.013672" xlink:href="#DejaVuSans-110"/>
      <use x="202.392578" xlink:href="#DejaVuSans-101"/>
      <use x="263.916016" xlink:href="#DejaVuSans-114"/>
      <use x="305.029297" xlink:href="#DejaVuSans-97"/>
      <use x="366.308594" xlink:href="#DejaVuSans-116"/>
      <use x="405.517578" xlink:href="#DejaVuSans-105"/>
      <use x="433.300781" xlink:href="#DejaVuSans-111"/>
      <use x="494.482422" xlink:href="#DejaVuSans-110"/>
      <use x="557.861328" xlink:href="#DejaVuSans-115"/>
      <use x="609.960938" xlink:href="#DejaVuSans-46"/>
     </g>
    </g>
   </g>
   <g id="matplotlib.axis_2">
    <g id="ytick_1">
     <g id="line2d_11">
      <path clip-path="url(#pe4becc903a)" d="M 85.194375 277.573683 
L 442.314375 277.573683 
" style="fill:none;stroke:#b0b0b0;stroke-linecap:square;stroke-width:0.8;"/>
     </g>
     <g id="line2d_12">
      <defs>
       <path d="M 0 0 
L -3.5 0 
" id="ma870495644" style="stroke:#000000;stroke-width:0.8;"/>
      </defs>
      <g>
       <use style="stroke:#000000;stroke-width:0.8;" x="85.194375" xlink:href="#ma870495644" y="277.573683"/>
      </g>
     </g>
     <g id="text_7">
      <!-- 40000 -->
      <g transform="translate(33.656875 282.89259)scale(0.14 -0.14)">
       <use xlink:href="#DejaVuSans-52"/>
       <use x="63.623047" xlink:href="#DejaVuSans-48"/>
       <use x="127.246094" xlink:href="#DejaVuSans-48"/>
       <use x="190.869141" xlink:href="#DejaVuSans-48"/>
       <use x="254.492188" xlink:href="#DejaVuSans-48"/>
      </g>
     </g>
    </g>
    <g id="ytick_2">
     <g id="line2d_13">
      <path clip-path="url(#pe4becc903a)" d="M 85.194375 238.841821 
L 442.314375 238.841821 
" style="fill:none;stroke:#b0b0b0;stroke-linecap:square;stroke-width:0.8;"/>
     </g>
     <g id="line2d_14">
      <g>
       <use style="stroke:#000000;stroke-width:0.8;" x="85.194375" xlink:href="#ma870495644" y="238.841821"/>
      </g>
     </g>
     <g id="text_8">
      <!-- 60000 -->
      <g transform="translate(33.656875 244.160727)scale(0.14 -0.14)">
       <use xlink:href="#DejaVuSans-54"/>
       <use x="63.623047" xlink:href="#DejaVuSans-48"/>
       <use x="127.246094" xlink:href="#DejaVuSans-48"/>
       <use x="190.869141" xlink:href="#DejaVuSans-48"/>
       <use x="254.492188" xlink:href="#DejaVuSans-48"/>
      </g>
     </g>
    </g>
    <g id="ytick_3">
     <g id="line2d_15">
      <path clip-path="url(#pe4becc903a)" d="M 85.194375 200.109958 
L 442.314375 200.109958 
" style="fill:none;stroke:#b0b0b0;stroke-linecap:square;stroke-width:0.8;"/>
     </g>
     <g id="line2d_16">
      <g>
       <use style="stroke:#000000;stroke-width:0.8;" x="85.194375" xlink:href="#ma870495644" y="200.109958"/>
      </g>
     </g>
     <g id="text_9">
      <!-- 80000 -->
      <g transform="translate(33.656875 205.428864)scale(0.14 -0.14)">
       <use xlink:href="#DejaVuSans-56"/>
       <use x="63.623047" xlink:href="#DejaVuSans-48"/>
       <use x="127.246094" xlink:href="#DejaVuSans-48"/>
       <use x="190.869141" xlink:href="#DejaVuSans-48"/>
       <use x="254.492188" xlink:href="#DejaVuSans-48"/>
      </g>
     </g>
    </g>
    <g id="ytick_4">
     <g id="line2d_17">
      <path clip-path="url(#pe4becc903a)" d="M 85.194375 161.378095 
L 442.314375 161.378095 
" style="fill:none;stroke:#b0b0b0;stroke-linecap:square;stroke-width:0.8;"/>
     </g>
     <g id="line2d_18">
      <g>
       <use style="stroke:#000000;stroke-width:0.8;" x="85.194375" xlink:href="#ma870495644" y="161.378095"/>
      </g>
     </g>
     <g id="text_10">
      <!-- 100000 -->
      <g transform="translate(24.749375 166.697001)scale(0.14 -0.14)">
       <use xlink:href="#DejaVuSans-49"/>
       <use x="63.623047" xlink:href="#DejaVuSans-48"/>
       <use x="127.246094" xlink:href="#DejaVuSans-48"/>
       <use x="190.869141" xlink:href="#DejaVuSans-48"/>
       <use x="254.492188" xlink:href="#DejaVuSans-48"/>
       <use x="318.115234" xlink:href="#DejaVuSans-48"/>
      </g>
     </g>
    </g>
    <g id="ytick_5">
     <g id="line2d_19">
      <path clip-path="url(#pe4becc903a)" d="M 85.194375 122.646232 
L 442.314375 122.646232 
" style="fill:none;stroke:#b0b0b0;stroke-linecap:square;stroke-width:0.8;"/>
     </g>
     <g id="line2d_20">
      <g>
       <use style="stroke:#000000;stroke-width:0.8;" x="85.194375" xlink:href="#ma870495644" y="122.646232"/>
      </g>
     </g>
     <g id="text_11">
      <!-- 120000 -->
      <g transform="translate(24.749375 127.965138)scale(0.14 -0.14)">
       <use xlink:href="#DejaVuSans-49"/>
       <use x="63.623047" xlink:href="#DejaVuSans-50"/>
       <use x="127.246094" xlink:href="#DejaVuSans-48"/>
       <use x="190.869141" xlink:href="#DejaVuSans-48"/>
       <use x="254.492188" xlink:href="#DejaVuSans-48"/>
       <use x="318.115234" xlink:href="#DejaVuSans-48"/>
      </g>
     </g>
    </g>
    <g id="ytick_6">
     <g id="line2d_21">
      <path clip-path="url(#pe4becc903a)" d="M 85.194375 83.914369 
L 442.314375 83.914369 
" style="fill:none;stroke:#b0b0b0;stroke-linecap:square;stroke-width:0.8;"/>
     </g>
     <g id="line2d_22">
      <g>
       <use style="stroke:#000000;stroke-width:0.8;" x="85.194375" xlink:href="#ma870495644" y="83.914369"/>
      </g>
     </g>
     <g id="text_12">
      <!-- 140000 -->
      <g transform="translate(24.749375 89.233276)scale(0.14 -0.14)">
       <use xlink:href="#DejaVuSans-49"/>
       <use x="63.623047" xlink:href="#DejaVuSans-52"/>
       <use x="127.246094" xlink:href="#DejaVuSans-48"/>
       <use x="190.869141" xlink:href="#DejaVuSans-48"/>
       <use x="254.492188" xlink:href="#DejaVuSans-48"/>
       <use x="318.115234" xlink:href="#DejaVuSans-48"/>
      </g>
     </g>
    </g>
    <g id="ytick_7">
     <g id="line2d_23">
      <path clip-path="url(#pe4becc903a)" d="M 85.194375 45.182507 
L 442.314375 45.182507 
" style="fill:none;stroke:#b0b0b0;stroke-linecap:square;stroke-width:0.8;"/>
     </g>
     <g id="line2d_24">
      <g>
       <use style="stroke:#000000;stroke-width:0.8;" x="85.194375" xlink:href="#ma870495644" y="45.182507"/>
      </g>
     </g>
     <g id="text_13">
      <!-- 160000 -->
      <g transform="translate(24.749375 50.501413)scale(0.14 -0.14)">
       <use xlink:href="#DejaVuSans-49"/>
       <use x="63.623047" xlink:href="#DejaVuSans-54"/>
       <use x="127.246094" xlink:href="#DejaVuSans-48"/>
       <use x="190.869141" xlink:href="#DejaVuSans-48"/>
       <use x="254.492188" xlink:href="#DejaVuSans-48"/>
       <use x="318.115234" xlink:href="#DejaVuSans-48"/>
      </g>
     </g>
    </g>
    <g id="text_14">
     <!-- Average return. -->
     <g transform="translate(17.837812 213.615906)rotate(-90)scale(0.14 -0.14)">
      <defs>
       <path d="M 34.1875 63.1875 
L 20.796875 26.90625 
L 47.609375 26.90625 
z
M 28.609375 72.90625 
L 39.796875 72.90625 
L 67.578125 0 
L 57.328125 0 
L 50.6875 18.703125 
L 17.828125 18.703125 
L 11.1875 0 
L 0.78125 0 
z
" id="DejaVuSans-65"/>
       <path d="M 2.984375 54.6875 
L 12.5 54.6875 
L 29.59375 8.796875 
L 46.6875 54.6875 
L 56.203125 54.6875 
L 35.6875 0 
L 23.484375 0 
z
" id="DejaVuSans-118"/>
       <path d="M 45.40625 27.984375 
Q 45.40625 37.75 41.375 43.109375 
Q 37.359375 48.484375 30.078125 48.484375 
Q 22.859375 48.484375 18.828125 43.109375 
Q 14.796875 37.75 14.796875 27.984375 
Q 14.796875 18.265625 18.828125 12.890625 
Q 22.859375 7.515625 30.078125 7.515625 
Q 37.359375 7.515625 41.375 12.890625 
Q 45.40625 18.265625 45.40625 27.984375 
z
M 54.390625 6.78125 
Q 54.390625 -7.171875 48.1875 -13.984375 
Q 42 -20.796875 29.203125 -20.796875 
Q 24.46875 -20.796875 20.265625 -20.09375 
Q 16.0625 -19.390625 12.109375 -17.921875 
L 12.109375 -9.1875 
Q 16.0625 -11.328125 19.921875 -12.34375 
Q 23.78125 -13.375 27.78125 -13.375 
Q 36.625 -13.375 41.015625 -8.765625 
Q 45.40625 -4.15625 45.40625 5.171875 
L 45.40625 9.625 
Q 42.625 4.78125 38.28125 2.390625 
Q 33.9375 0 27.875 0 
Q 17.828125 0 11.671875 7.65625 
Q 5.515625 15.328125 5.515625 27.984375 
Q 5.515625 40.671875 11.671875 48.328125 
Q 17.828125 56 27.875 56 
Q 33.9375 56 38.28125 53.609375 
Q 42.625 51.21875 45.40625 46.390625 
L 45.40625 54.6875 
L 54.390625 54.6875 
z
" id="DejaVuSans-103"/>
       <path id="DejaVuSans-32"/>
       <path d="M 8.5 21.578125 
L 8.5 54.6875 
L 17.484375 54.6875 
L 17.484375 21.921875 
Q 17.484375 14.15625 20.5 10.265625 
Q 23.53125 6.390625 29.59375 6.390625 
Q 36.859375 6.390625 41.078125 11.03125 
Q 45.3125 15.671875 45.3125 23.6875 
L 45.3125 54.6875 
L 54.296875 54.6875 
L 54.296875 0 
L 45.3125 0 
L 45.3125 8.40625 
Q 42.046875 3.421875 37.71875 1 
Q 33.40625 -1.421875 27.6875 -1.421875 
Q 18.265625 -1.421875 13.375 4.4375 
Q 8.5 10.296875 8.5 21.578125 
z
M 31.109375 56 
z
" id="DejaVuSans-117"/>
      </defs>
      <use xlink:href="#DejaVuSans-65"/>
      <use x="62.533203" xlink:href="#DejaVuSans-118"/>
      <use x="121.712891" xlink:href="#DejaVuSans-101"/>
      <use x="183.236328" xlink:href="#DejaVuSans-114"/>
      <use x="224.349609" xlink:href="#DejaVuSans-97"/>
      <use x="285.628906" xlink:href="#DejaVuSans-103"/>
      <use x="349.105469" xlink:href="#DejaVuSans-101"/>
      <use x="410.628906" xlink:href="#DejaVuSans-32"/>
      <use x="442.416016" xlink:href="#DejaVuSans-114"/>
      <use x="481.279297" xlink:href="#DejaVuSans-101"/>
      <use x="542.802734" xlink:href="#DejaVuSans-116"/>
      <use x="582.011719" xlink:href="#DejaVuSans-117"/>
      <use x="645.390625" xlink:href="#DejaVuSans-114"/>
      <use x="684.753906" xlink:href="#DejaVuSans-110"/>
      <use x="748.132812" xlink:href="#DejaVuSans-46"/>
     </g>
    </g>
   </g>
   <g id="line2d_25">
    <path clip-path="url(#pe4becc903a)" d="M 85.194375 130.999223 
L 442.314375 130.999223 
" style="fill:none;stroke:#ff0000;stroke-linecap:square;stroke-width:1.5;"/>
   </g>
   <g id="line2d_26">
    <path clip-path="url(#pe4becc903a)" d="M 85.194375 279.042988 
L 88.801648 214.452197 
L 92.40892 129.413171 
L 96.016193 119.557772 
L 99.623466 113.483691 
L 103.230739 105.310633 
L 106.838011 103.311581 
L 110.445284 98.678471 
L 114.052557 99.249378 
L 117.65983 91.838558 
L 121.267102 91.69108 
L 124.874375 84.523575 
L 128.481648 86.835847 
L 132.08892 85.011446 
L 135.696193 83.367447 
L 139.303466 83.240468 
L 142.910739 79.715271 
L 146.518011 76.232752 
L 150.125284 76.29961 
L 153.732557 75.12388 
L 157.33983 72.301595 
L 160.947102 71.238042 
L 164.554375 66.942842 
L 168.161648 66.988803 
L 171.76892 66.817227 
L 175.376193 66.788353 
L 178.983466 62.625268 
L 182.590739 65.305222 
L 186.198011 64.419673 
L 189.805284 62.83435 
L 193.412557 62.034307 
L 197.01983 60.10635 
L 200.627102 58.646386 
L 204.234375 58.854158 
L 207.841648 59.264256 
L 211.44892 58.743573 
L 215.056193 57.938924 
L 218.663466 56.304325 
L 222.270739 55.109165 
L 225.878011 55.118065 
L 229.485284 54.538618 
L 233.092557 54.77766 
L 236.69983 53.918197 
L 240.307102 53.014041 
L 243.914375 52.187458 
L 247.521648 51.449552 
L 251.12892 51.364811 
L 254.736193 51.123505 
L 258.343466 50.474592 
L 261.950739 50.634056 
L 265.558011 49.80497 
L 269.165284 52.713745 
L 272.772557 49.774838 
L 276.37983 50.582028 
L 279.987102 51.035448 
L 283.594375 49.737694 
L 287.201648 49.943028 
L 290.80892 51.399022 
L 294.416193 51.679477 
L 298.023466 48.285132 
L 301.630739 48.30519 
L 305.238011 49.816484 
L 308.845284 46.785062 
L 312.452557 46.490191 
L 316.05983 47.157254 
L 319.667102 47.103819 
L 323.274375 46.299376 
L 326.881648 46.19917 
L 330.48892 46.061381 
L 334.096193 45.915453 
L 337.703466 47.970378 
L 341.310739 46.029839 
L 344.918011 45.799829 
L 348.525284 45.268022 
L 352.132557 45.474748 
L 355.73983 46.428753 
L 359.347102 46.529083 
L 362.954375 46.282467 
L 366.561648 44.481911 
L 370.16892 44.560328 
L 373.776193 46.360312 
L 377.383466 46.37087 
L 380.990739 45.42534 
L 384.598011 44.337604 
L 388.205284 45.824279 
L 391.812557 48.958642 
L 395.41983 47.038861 
L 399.027102 48.269687 
L 402.634375 47.982984 
L 406.241648 49.246508 
L 409.84892 45.733371 
L 413.456193 44.529397 
L 417.063466 48.94 
L 420.670739 46.314633 
L 424.278011 51.82369 
L 427.885284 48.227669 
L 431.492557 53.524079 
L 435.09983 48.21122 
L 438.707102 47.920193 
L 442.314375 50.900274 
" style="fill:none;stroke:#0000ff;stroke-linecap:square;stroke-width:1.5;"/>
   </g>
   <g id="line2d_27">
    <path clip-path="url(#pe4becc903a)" d="M 85.194375 139.392688 
L 88.801648 154.005698 
L 92.40892 145.666114 
L 96.016193 131.490915 
L 99.623466 123.534717 
L 103.230739 117.46851 
L 106.838011 129.378969 
L 110.445284 122.805119 
L 114.052557 113.048967 
L 117.65983 112.748212 
L 121.267102 114.814712 
L 124.874375 106.116234 
L 128.481648 103.654613 
L 132.08892 102.528015 
L 135.696193 104.455335 
L 139.303466 102.777735 
L 142.910739 99.832707 
L 146.518011 101.400038 
L 150.125284 99.14451 
L 153.732557 98.692259 
L 157.33983 94.66402 
L 160.947102 97.672466 
L 164.554375 96.91072 
L 168.161648 90.797522 
L 171.76892 92.464307 
L 175.376193 88.396697 
L 178.983466 91.755526 
L 182.590739 89.878698 
L 186.198011 87.606941 
L 189.805284 85.614028 
L 193.412557 85.275061 
L 197.01983 88.931451 
L 200.627102 84.010812 
L 204.234375 83.635719 
L 207.841648 81.679936 
L 211.44892 82.75962 
L 215.056193 86.780382 
L 218.663466 85.340943 
L 222.270739 84.740369 
L 225.878011 83.49357 
L 229.485284 84.899269 
L 233.092557 81.451767 
L 236.69983 78.527583 
L 240.307102 82.808004 
L 243.914375 79.254445 
L 247.521648 77.387544 
L 251.12892 73.721435 
L 254.736193 79.000469 
L 258.343466 74.696808 
L 261.950739 75.650687 
L 265.558011 72.962624 
L 269.165284 72.476984 
L 272.772557 73.899746 
L 276.37983 71.226925 
L 279.987102 70.51277 
L 283.594375 73.304789 
L 287.201648 69.558633 
L 290.80892 72.201559 
L 294.416193 71.723157 
L 298.023466 70.031852 
L 301.630739 70.63236 
L 305.238011 71.038978 
L 308.845284 71.185527 
L 312.452557 67.012824 
L 316.05983 68.761218 
L 319.667102 69.385087 
L 323.274375 67.739664 
L 326.881648 67.52257 
L 330.48892 68.44577 
L 334.096193 66.065137 
L 337.703466 68.992429 
L 341.310739 65.781136 
L 344.918011 65.708563 
L 348.525284 65.863949 
L 352.132557 64.033437 
L 355.73983 65.225813 
L 359.347102 63.618777 
L 362.954375 65.962647 
L 366.561648 65.477009 
L 370.16892 64.797405 
L 373.776193 64.893528 
L 377.383466 65.166559 
L 380.990739 64.143811 
L 384.598011 64.483066 
L 388.205284 64.786808 
L 391.812557 65.315181 
L 395.41983 66.703235 
L 399.027102 65.60568 
L 402.634375 65.180712 
L 406.241648 64.401436 
L 409.84892 65.72182 
L 413.456193 65.80782 
L 417.063466 64.229186 
L 420.670739 64.120174 
L 424.278011 61.70348 
L 427.885284 62.017011 
L 431.492557 61.447942 
L 435.09983 63.231959 
L 438.707102 62.363781 
L 442.314375 62.998955 
" style="fill:none;stroke:#800080;stroke-linecap:square;stroke-width:1.5;"/>
   </g>
   <g id="patch_3">
    <path d="M 85.194375 292.077375 
L 85.194375 25.965375 
" style="fill:none;stroke:#000000;stroke-linecap:square;stroke-linejoin:miter;stroke-width:0.8;"/>
   </g>
   <g id="patch_4">
    <path d="M 442.314375 292.077375 
L 442.314375 25.965375 
" style="fill:none;stroke:#000000;stroke-linecap:square;stroke-linejoin:miter;stroke-width:0.8;"/>
   </g>
   <g id="patch_5">
    <path d="M 85.194375 292.077375 
L 442.314375 292.077375 
" style="fill:none;stroke:#000000;stroke-linecap:square;stroke-linejoin:miter;stroke-width:0.8;"/>
   </g>
   <g id="patch_6">
    <path d="M 85.194375 25.965375 
L 442.314375 25.965375 
" style="fill:none;stroke:#000000;stroke-linecap:square;stroke-linejoin:miter;stroke-width:0.8;"/>
   </g>
   <g id="text_15">
    <!-- HumanoidStandup-v2 -->
    <g transform="translate(172.442437 19.965375)scale(0.168 -0.168)">
     <defs>
      <path d="M 9.8125 72.90625 
L 19.671875 72.90625 
L 19.671875 43.015625 
L 55.515625 43.015625 
L 55.515625 72.90625 
L 65.375 72.90625 
L 65.375 0 
L 55.515625 0 
L 55.515625 34.71875 
L 19.671875 34.71875 
L 19.671875 0 
L 9.8125 0 
z
" id="DejaVuSans-72"/>
      <path d="M 52 44.1875 
Q 55.375 50.25 60.0625 53.125 
Q 64.75 56 71.09375 56 
Q 79.640625 56 84.28125 50.015625 
Q 88.921875 44.046875 88.921875 33.015625 
L 88.921875 0 
L 79.890625 0 
L 79.890625 32.71875 
Q 79.890625 40.578125 77.09375 44.375 
Q 74.3125 48.1875 68.609375 48.1875 
Q 61.625 48.1875 57.5625 43.546875 
Q 53.515625 38.921875 53.515625 30.90625 
L 53.515625 0 
L 44.484375 0 
L 44.484375 32.71875 
Q 44.484375 40.625 41.703125 44.40625 
Q 38.921875 48.1875 33.109375 48.1875 
Q 26.21875 48.1875 22.15625 43.53125 
Q 18.109375 38.875 18.109375 30.90625 
L 18.109375 0 
L 9.078125 0 
L 9.078125 54.6875 
L 18.109375 54.6875 
L 18.109375 46.1875 
Q 21.1875 51.21875 25.484375 53.609375 
Q 29.78125 56 35.6875 56 
Q 41.65625 56 45.828125 52.96875 
Q 50 49.953125 52 44.1875 
z
" id="DejaVuSans-109"/>
      <path d="M 45.40625 46.390625 
L 45.40625 75.984375 
L 54.390625 75.984375 
L 54.390625 0 
L 45.40625 0 
L 45.40625 8.203125 
Q 42.578125 3.328125 38.25 0.953125 
Q 33.9375 -1.421875 27.875 -1.421875 
Q 17.96875 -1.421875 11.734375 6.484375 
Q 5.515625 14.40625 5.515625 27.296875 
Q 5.515625 40.1875 11.734375 48.09375 
Q 17.96875 56 27.875 56 
Q 33.9375 56 38.25 53.625 
Q 42.578125 51.265625 45.40625 46.390625 
z
M 14.796875 27.296875 
Q 14.796875 17.390625 18.875 11.75 
Q 22.953125 6.109375 30.078125 6.109375 
Q 37.203125 6.109375 41.296875 11.75 
Q 45.40625 17.390625 45.40625 27.296875 
Q 45.40625 37.203125 41.296875 42.84375 
Q 37.203125 48.484375 30.078125 48.484375 
Q 22.953125 48.484375 18.875 42.84375 
Q 14.796875 37.203125 14.796875 27.296875 
z
" id="DejaVuSans-100"/>
      <path d="M 53.515625 70.515625 
L 53.515625 60.890625 
Q 47.90625 63.578125 42.921875 64.890625 
Q 37.9375 66.21875 33.296875 66.21875 
Q 25.25 66.21875 20.875 63.09375 
Q 16.5 59.96875 16.5 54.203125 
Q 16.5 49.359375 19.40625 46.890625 
Q 22.3125 44.4375 30.421875 42.921875 
L 36.375 41.703125 
Q 47.40625 39.59375 52.65625 34.296875 
Q 57.90625 29 57.90625 20.125 
Q 57.90625 9.515625 50.796875 4.046875 
Q 43.703125 -1.421875 29.984375 -1.421875 
Q 24.8125 -1.421875 18.96875 -0.25 
Q 13.140625 0.921875 6.890625 3.21875 
L 6.890625 13.375 
Q 12.890625 10.015625 18.65625 8.296875 
Q 24.421875 6.59375 29.984375 6.59375 
Q 38.421875 6.59375 43.015625 9.90625 
Q 47.609375 13.234375 47.609375 19.390625 
Q 47.609375 24.75 44.3125 27.78125 
Q 41.015625 30.8125 33.5 32.328125 
L 27.484375 33.5 
Q 16.453125 35.6875 11.515625 40.375 
Q 6.59375 45.0625 6.59375 53.421875 
Q 6.59375 63.09375 13.40625 68.65625 
Q 20.21875 74.21875 32.171875 74.21875 
Q 37.3125 74.21875 42.625 73.28125 
Q 47.953125 72.359375 53.515625 70.515625 
z
" id="DejaVuSans-83"/>
      <path d="M 18.109375 8.203125 
L 18.109375 -20.796875 
L 9.078125 -20.796875 
L 9.078125 54.6875 
L 18.109375 54.6875 
L 18.109375 46.390625 
Q 20.953125 51.265625 25.265625 53.625 
Q 29.59375 56 35.59375 56 
Q 45.5625 56 51.78125 48.09375 
Q 58.015625 40.1875 58.015625 27.296875 
Q 58.015625 14.40625 51.78125 6.484375 
Q 45.5625 -1.421875 35.59375 -1.421875 
Q 29.59375 -1.421875 25.265625 0.953125 
Q 20.953125 3.328125 18.109375 8.203125 
z
M 48.6875 27.296875 
Q 48.6875 37.203125 44.609375 42.84375 
Q 40.53125 48.484375 33.40625 48.484375 
Q 26.265625 48.484375 22.1875 42.84375 
Q 18.109375 37.203125 18.109375 27.296875 
Q 18.109375 17.390625 22.1875 11.75 
Q 26.265625 6.109375 33.40625 6.109375 
Q 40.53125 6.109375 44.609375 11.75 
Q 48.6875 17.390625 48.6875 27.296875 
z
" id="DejaVuSans-112"/>
      <path d="M 4.890625 31.390625 
L 31.203125 31.390625 
L 31.203125 23.390625 
L 4.890625 23.390625 
z
" id="DejaVuSans-45"/>
     </defs>
     <use xlink:href="#DejaVuSans-72"/>
     <use x="75.195312" xlink:href="#DejaVuSans-117"/>
     <use x="138.574219" xlink:href="#DejaVuSans-109"/>
     <use x="235.986328" xlink:href="#DejaVuSans-97"/>
     <use x="297.265625" xlink:href="#DejaVuSans-110"/>
     <use x="360.644531" xlink:href="#DejaVuSans-111"/>
     <use x="421.826172" xlink:href="#DejaVuSans-105"/>
     <use x="449.609375" xlink:href="#DejaVuSans-100"/>
     <use x="513.085938" xlink:href="#DejaVuSans-83"/>
     <use x="576.5625" xlink:href="#DejaVuSans-116"/>
     <use x="615.771484" xlink:href="#DejaVuSans-97"/>
     <use x="677.050781" xlink:href="#DejaVuSans-110"/>
     <use x="740.429688" xlink:href="#DejaVuSans-100"/>
     <use x="803.90625" xlink:href="#DejaVuSans-117"/>
     <use x="867.285156" xlink:href="#DejaVuSans-112"/>
     <use x="930.761719" xlink:href="#DejaVuSans-45"/>
     <use x="964.220703" xlink:href="#DejaVuSans-118"/>
     <use x="1023.400391" xlink:href="#DejaVuSans-50"/>
    </g>
   </g>
   <g id="legend_1">
    <g id="patch_7">
     <path d="M 242.368125 285.077375 
L 432.514375 285.077375 
Q 435.314375 285.077375 435.314375 282.277375 
L 435.314375 222.02925 
Q 435.314375 219.22925 432.514375 219.22925 
L 242.368125 219.22925 
Q 239.568125 219.22925 239.568125 222.02925 
L 239.568125 282.277375 
Q 239.568125 285.077375 242.368125 285.077375 
z
" style="fill:#ffffff;opacity:0.8;stroke:#cccccc;stroke-linejoin:miter;"/>
    </g>
    <g id="line2d_28">
     <path d="M 245.168125 230.567062 
L 273.168125 230.567062 
" style="fill:none;stroke:#ff0000;stroke-linecap:square;stroke-width:1.5;"/>
    </g>
    <g id="line2d_29"/>
    <g id="text_16">
     <!-- DPN-Weights-PPO -->
     <g transform="translate(284.368125 235.467062)scale(0.14 -0.14)">
      <defs>
       <path d="M 19.671875 64.796875 
L 19.671875 8.109375 
L 31.59375 8.109375 
Q 46.6875 8.109375 53.6875 14.9375 
Q 60.6875 21.78125 60.6875 36.53125 
Q 60.6875 51.171875 53.6875 57.984375 
Q 46.6875 64.796875 31.59375 64.796875 
z
M 9.8125 72.90625 
L 30.078125 72.90625 
Q 51.265625 72.90625 61.171875 64.09375 
Q 71.09375 55.28125 71.09375 36.53125 
Q 71.09375 17.671875 61.125 8.828125 
Q 51.171875 0 30.078125 0 
L 9.8125 0 
z
" id="DejaVuSans-68"/>
       <path d="M 19.671875 64.796875 
L 19.671875 37.40625 
L 32.078125 37.40625 
Q 38.96875 37.40625 42.71875 40.96875 
Q 46.484375 44.53125 46.484375 51.125 
Q 46.484375 57.671875 42.71875 61.234375 
Q 38.96875 64.796875 32.078125 64.796875 
z
M 9.8125 72.90625 
L 32.078125 72.90625 
Q 44.34375 72.90625 50.609375 67.359375 
Q 56.890625 61.8125 56.890625 51.125 
Q 56.890625 40.328125 50.609375 34.8125 
Q 44.34375 29.296875 32.078125 29.296875 
L 19.671875 29.296875 
L 19.671875 0 
L 9.8125 0 
z
" id="DejaVuSans-80"/>
       <path d="M 9.8125 72.90625 
L 23.09375 72.90625 
L 55.421875 11.921875 
L 55.421875 72.90625 
L 64.984375 72.90625 
L 64.984375 0 
L 51.703125 0 
L 19.390625 60.984375 
L 19.390625 0 
L 9.8125 0 
z
" id="DejaVuSans-78"/>
       <path d="M 3.328125 72.90625 
L 13.28125 72.90625 
L 28.609375 11.28125 
L 43.890625 72.90625 
L 54.984375 72.90625 
L 70.3125 11.28125 
L 85.59375 72.90625 
L 95.609375 72.90625 
L 77.296875 0 
L 64.890625 0 
L 49.515625 63.28125 
L 33.984375 0 
L 21.578125 0 
z
" id="DejaVuSans-87"/>
       <path d="M 54.890625 33.015625 
L 54.890625 0 
L 45.90625 0 
L 45.90625 32.71875 
Q 45.90625 40.484375 42.875 44.328125 
Q 39.84375 48.1875 33.796875 48.1875 
Q 26.515625 48.1875 22.3125 43.546875 
Q 18.109375 38.921875 18.109375 30.90625 
L 18.109375 0 
L 9.078125 0 
L 9.078125 75.984375 
L 18.109375 75.984375 
L 18.109375 46.1875 
Q 21.34375 51.125 25.703125 53.5625 
Q 30.078125 56 35.796875 56 
Q 45.21875 56 50.046875 50.171875 
Q 54.890625 44.34375 54.890625 33.015625 
z
" id="DejaVuSans-104"/>
       <path d="M 39.40625 66.21875 
Q 28.65625 66.21875 22.328125 58.203125 
Q 16.015625 50.203125 16.015625 36.375 
Q 16.015625 22.609375 22.328125 14.59375 
Q 28.65625 6.59375 39.40625 6.59375 
Q 50.140625 6.59375 56.421875 14.59375 
Q 62.703125 22.609375 62.703125 36.375 
Q 62.703125 50.203125 56.421875 58.203125 
Q 50.140625 66.21875 39.40625 66.21875 
z
M 39.40625 74.21875 
Q 54.734375 74.21875 63.90625 63.9375 
Q 73.09375 53.65625 73.09375 36.375 
Q 73.09375 19.140625 63.90625 8.859375 
Q 54.734375 -1.421875 39.40625 -1.421875 
Q 24.03125 -1.421875 14.8125 8.828125 
Q 5.609375 19.09375 5.609375 36.375 
Q 5.609375 53.65625 14.8125 63.9375 
Q 24.03125 74.21875 39.40625 74.21875 
z
" id="DejaVuSans-79"/>
      </defs>
      <use xlink:href="#DejaVuSans-68"/>
      <use x="77.001953" xlink:href="#DejaVuSans-80"/>
      <use x="137.304688" xlink:href="#DejaVuSans-78"/>
      <use x="212.109375" xlink:href="#DejaVuSans-45"/>
      <use x="244.193359" xlink:href="#DejaVuSans-87"/>
      <use x="337.195312" xlink:href="#DejaVuSans-101"/>
      <use x="398.71875" xlink:href="#DejaVuSans-105"/>
      <use x="426.501953" xlink:href="#DejaVuSans-103"/>
      <use x="489.978516" xlink:href="#DejaVuSans-104"/>
      <use x="553.357422" xlink:href="#DejaVuSans-116"/>
      <use x="592.566406" xlink:href="#DejaVuSans-115"/>
      <use x="644.666016" xlink:href="#DejaVuSans-45"/>
      <use x="680.75" xlink:href="#DejaVuSans-80"/>
      <use x="741.052734" xlink:href="#DejaVuSans-80"/>
      <use x="801.355469" xlink:href="#DejaVuSans-79"/>
     </g>
    </g>
    <g id="line2d_30">
     <path d="M 245.168125 251.116437 
L 273.168125 251.116437 
" style="fill:none;stroke:#0000ff;stroke-linecap:square;stroke-width:1.5;"/>
    </g>
    <g id="line2d_31"/>
    <g id="text_17">
     <!-- SPN-Weights-GA -->
     <g transform="translate(284.368125 256.016437)scale(0.14 -0.14)">
      <use xlink:href="#DejaVuSans-83"/>
      <use x="63.476562" xlink:href="#DejaVuSans-80"/>
      <use x="123.779297" xlink:href="#DejaVuSans-78"/>
      <use x="198.583984" xlink:href="#DejaVuSans-45"/>
      <use x="230.667969" xlink:href="#DejaVuSans-87"/>
      <use x="323.669922" xlink:href="#DejaVuSans-101"/>
      <use x="385.193359" xlink:href="#DejaVuSans-105"/>
      <use x="412.976562" xlink:href="#DejaVuSans-103"/>
      <use x="476.453125" xlink:href="#DejaVuSans-104"/>
      <use x="539.832031" xlink:href="#DejaVuSans-116"/>
      <use x="579.041016" xlink:href="#DejaVuSans-115"/>
      <use x="631.140625" xlink:href="#DejaVuSans-45"/>
      <use x="670.849609" xlink:href="#DejaVuSans-71"/>
      <use x="748.339844" xlink:href="#DejaVuSans-65"/>
     </g>
    </g>
    <g id="line2d_32">
     <path d="M 245.168125 271.665812 
L 273.168125 271.665812 
" style="fill:none;stroke:#800080;stroke-linecap:square;stroke-width:1.5;"/>
    </g>
    <g id="line2d_33"/>
    <g id="text_18">
     <!-- SPN-Connections-GA -->
     <g transform="translate(284.368125 276.565812)scale(0.14 -0.14)">
      <defs>
       <path d="M 64.40625 67.28125 
L 64.40625 56.890625 
Q 59.421875 61.53125 53.78125 63.8125 
Q 48.140625 66.109375 41.796875 66.109375 
Q 29.296875 66.109375 22.65625 58.46875 
Q 16.015625 50.828125 16.015625 36.375 
Q 16.015625 21.96875 22.65625 14.328125 
Q 29.296875 6.6875 41.796875 6.6875 
Q 48.140625 6.6875 53.78125 8.984375 
Q 59.421875 11.28125 64.40625 15.921875 
L 64.40625 5.609375 
Q 59.234375 2.09375 53.4375 0.328125 
Q 47.65625 -1.421875 41.21875 -1.421875 
Q 24.65625 -1.421875 15.125 8.703125 
Q 5.609375 18.84375 5.609375 36.375 
Q 5.609375 53.953125 15.125 64.078125 
Q 24.65625 74.21875 41.21875 74.21875 
Q 47.75 74.21875 53.53125 72.484375 
Q 59.328125 70.75 64.40625 67.28125 
z
" id="DejaVuSans-67"/>
       <path d="M 48.78125 52.59375 
L 48.78125 44.1875 
Q 44.96875 46.296875 41.140625 47.34375 
Q 37.3125 48.390625 33.40625 48.390625 
Q 24.65625 48.390625 19.8125 42.84375 
Q 14.984375 37.3125 14.984375 27.296875 
Q 14.984375 17.28125 19.8125 11.734375 
Q 24.65625 6.203125 33.40625 6.203125 
Q 37.3125 6.203125 41.140625 7.25 
Q 44.96875 8.296875 48.78125 10.40625 
L 48.78125 2.09375 
Q 45.015625 0.34375 40.984375 -0.53125 
Q 36.96875 -1.421875 32.421875 -1.421875 
Q 20.0625 -1.421875 12.78125 6.34375 
Q 5.515625 14.109375 5.515625 27.296875 
Q 5.515625 40.671875 12.859375 48.328125 
Q 20.21875 56 33.015625 56 
Q 37.15625 56 41.109375 55.140625 
Q 45.0625 54.296875 48.78125 52.59375 
z
" id="DejaVuSans-99"/>
      </defs>
      <use xlink:href="#DejaVuSans-83"/>
      <use x="63.476562" xlink:href="#DejaVuSans-80"/>
      <use x="123.779297" xlink:href="#DejaVuSans-78"/>
      <use x="198.583984" xlink:href="#DejaVuSans-45"/>
      <use x="234.667969" xlink:href="#DejaVuSans-67"/>
      <use x="304.492188" xlink:href="#DejaVuSans-111"/>
      <use x="365.673828" xlink:href="#DejaVuSans-110"/>
      <use x="429.052734" xlink:href="#DejaVuSans-110"/>
      <use x="492.431641" xlink:href="#DejaVuSans-101"/>
      <use x="553.955078" xlink:href="#DejaVuSans-99"/>
      <use x="608.935547" xlink:href="#DejaVuSans-116"/>
      <use x="648.144531" xlink:href="#DejaVuSans-105"/>
      <use x="675.927734" xlink:href="#DejaVuSans-111"/>
      <use x="737.109375" xlink:href="#DejaVuSans-110"/>
      <use x="800.488281" xlink:href="#DejaVuSans-115"/>
      <use x="852.587891" xlink:href="#DejaVuSans-45"/>
      <use x="892.296875" xlink:href="#DejaVuSans-71"/>
      <use x="969.787109" xlink:href="#DejaVuSans-65"/>
     </g>
    </g>
   </g>
  </g>
 </g>
 <defs>
  <clipPath id="pe4becc903a">
   <rect height="266.112" width="357.12" x="85.194375" y="25.965375"/>
  </clipPath>
 </defs>
</svg>
