<?xml version="1.0" encoding="utf-8" standalone="no"?>
<!DOCTYPE svg PUBLIC "-//W3C//DTD SVG 1.1//EN"
  "http://www.w3.org/Graphics/SVG/1.1/DTD/svg11.dtd">
<!-- Created with matplotlib (https://matplotlib.org/) -->
<svg height="337.376125pt" version="1.1" viewBox="0 0 436.153125 337.376125" width="436.153125pt" xmlns="http://www.w3.org/2000/svg" xmlns:xlink="http://www.w3.org/1999/xlink">
 <metadata>
  <rdf:RDF xmlns:cc="http://creativecommons.org/ns#" xmlns:dc="http://purl.org/dc/elements/1.1/" xmlns:rdf="http://www.w3.org/1999/02/22-rdf-syntax-ns#">
   <cc:Work>
    <dc:type rdf:resource="http://purl.org/dc/dcmitype/StillImage"/>
    <dc:date>2022-12-08T17:00:46.589999</dc:date>
    <dc:format>image/svg+xml</dc:format>
    <dc:creator>
     <cc:Agent>
      <dc:title>Matplotlib v3.3.4, https://matplotlib.org/</dc:title>
     </cc:Agent>
    </dc:creator>
   </cc:Work>
  </rdf:RDF>
 </metadata>
 <defs>
  <style type="text/css">*{stroke-linecap:butt;stroke-linejoin:round;}</style>
 </defs>
 <g id="figure_1">
  <g id="patch_1">
   <path d="M 0 337.376125 
L 436.153125 337.376125 
L 436.153125 0 
L 0 0 
z
" style="fill:#ffffff;"/>
  </g>
  <g id="axes_1">
   <g id="patch_2">
    <path d="M 58.471875 292.077375 
L 415.591875 292.077375 
L 415.591875 25.965375 
L 58.471875 25.965375 
z
" style="fill:#ffffff;"/>
   </g>
   <g id="PolyCollection_1">
    <defs>
     <path d="M 58.471875 -61.355828 
L 58.471875 -59.876778 
L 62.079148 -59.863989 
L 65.68642 -58.099997 
L 69.293693 -58.77251 
L 72.900966 -59.516997 
L 76.508239 -60.681136 
L 80.115511 -60.160314 
L 83.722784 -59.730012 
L 87.330057 -59.104465 
L 90.93733 -59.121822 
L 94.544602 -59.935482 
L 98.151875 -57.994639 
L 101.759148 -59.009924 
L 105.36642 -60.907939 
L 108.973693 -59.216999 
L 112.580966 -58.43142 
L 116.188239 -59.397354 
L 119.795511 -59.880575 
L 123.402784 -58.489344 
L 127.010057 -58.425048 
L 130.61733 -59.014213 
L 134.224602 -58.886926 
L 137.831875 -59.958611 
L 141.439148 -60.108773 
L 145.04642 -59.435148 
L 148.653693 -59.291382 
L 152.260966 -60.339202 
L 155.868239 -58.489885 
L 159.475511 -59.511432 
L 163.082784 -58.493312 
L 166.690057 -60.139514 
L 170.29733 -59.133348 
L 173.904602 -60.507586 
L 177.511875 -58.198028 
L 181.119148 -61.535199 
L 184.72642 -61.202476 
L 188.333693 -58.425734 
L 191.940966 -59.741467 
L 195.548239 -60.685522 
L 199.155511 -60.912745 
L 202.762784 -57.586006 
L 206.370057 -60.955352 
L 209.97733 -60.194617 
L 213.584602 -58.645086 
L 217.191875 -58.530914 
L 220.799148 -57.39475 
L 224.40642 -59.178819 
L 228.013693 -60.458731 
L 231.620966 -60.007721 
L 235.228239 -60.910639 
L 238.835511 -60.106635 
L 242.442784 -60.242872 
L 246.050057 -60.176635 
L 249.65733 -61.204109 
L 253.264602 -62.041785 
L 256.871875 -59.916255 
L 260.479148 -62.577306 
L 264.08642 -58.758946 
L 267.693693 -60.606783 
L 271.300966 -60.722224 
L 274.908239 -61.167506 
L 278.515511 -60.971091 
L 282.122784 -59.275243 
L 285.730057 -61.756138 
L 289.33733 -59.76831 
L 292.944602 -60.446037 
L 296.551875 -60.757939 
L 300.159148 -61.496407 
L 303.76642 -59.156304 
L 307.373693 -60.812906 
L 310.980966 -61.619457 
L 314.588239 -60.330068 
L 318.195511 -63.58523 
L 321.802784 -62.562322 
L 325.410057 -63.464023 
L 329.01733 -61.968678 
L 332.624602 -63.673753 
L 336.231875 -61.873791 
L 339.839148 -61.213932 
L 343.44642 -64.893438 
L 347.053693 -63.336356 
L 350.660966 -61.937217 
L 354.268239 -63.773691 
L 357.875511 -64.579506 
L 361.482784 -62.99354 
L 365.090057 -65.048538 
L 368.69733 -64.457471 
L 372.304602 -64.019193 
L 375.911875 -62.431935 
L 379.519148 -63.526769 
L 383.12642 -65.746167 
L 386.733693 -64.950746 
L 390.340966 -64.516201 
L 393.948239 -65.327424 
L 397.555511 -67.616467 
L 401.162784 -65.565849 
L 404.770057 -67.352194 
L 408.37733 -64.946508 
L 411.984602 -67.235638 
L 415.591875 -66.990023 
L 415.591875 -71.969082 
L 415.591875 -71.969082 
L 411.984602 -72.844297 
L 408.37733 -70.867971 
L 404.770057 -73.126147 
L 401.162784 -70.159112 
L 397.555511 -69.870604 
L 393.948239 -69.210533 
L 390.340966 -70.737045 
L 386.733693 -71.326275 
L 383.12642 -70.856149 
L 379.519148 -68.041252 
L 375.911875 -66.336747 
L 372.304602 -69.543828 
L 368.69733 -69.312777 
L 365.090057 -70.175352 
L 361.482784 -67.485992 
L 357.875511 -70.026084 
L 354.268239 -66.355422 
L 350.660966 -66.875176 
L 347.053693 -68.089215 
L 343.44642 -68.496522 
L 339.839148 -67.02874 
L 336.231875 -65.704813 
L 332.624602 -66.454194 
L 329.01733 -65.050509 
L 325.410057 -68.001798 
L 321.802784 -67.380828 
L 318.195511 -67.473854 
L 314.588239 -62.997179 
L 310.980966 -64.129012 
L 307.373693 -64.231025 
L 303.76642 -62.445595 
L 300.159148 -64.547815 
L 296.551875 -64.272749 
L 292.944602 -63.348342 
L 289.33733 -62.102737 
L 285.730057 -65.669405 
L 282.122784 -62.08467 
L 278.515511 -64.428273 
L 274.908239 -64.355278 
L 271.300966 -63.07693 
L 267.693693 -64.313605 
L 264.08642 -63.927522 
L 260.479148 -65.424523 
L 256.871875 -63.399697 
L 253.264602 -64.595779 
L 249.65733 -63.188228 
L 246.050057 -62.677002 
L 242.442784 -64.387381 
L 238.835511 -62.647565 
L 235.228239 -63.962206 
L 231.620966 -62.378465 
L 228.013693 -62.468987 
L 224.40642 -61.583124 
L 220.799148 -60.510862 
L 217.191875 -60.989863 
L 213.584602 -61.419266 
L 209.97733 -63.860594 
L 206.370057 -63.833571 
L 202.762784 -60.793724 
L 199.155511 -62.989597 
L 195.548239 -62.526963 
L 191.940966 -61.928271 
L 188.333693 -61.285103 
L 184.72642 -63.824117 
L 181.119148 -63.28618 
L 177.511875 -61.150985 
L 173.904602 -64.276806 
L 170.29733 -62.170181 
L 166.690057 -63.74615 
L 163.082784 -60.659057 
L 159.475511 -62.414166 
L 155.868239 -61.539627 
L 152.260966 -63.106187 
L 148.653693 -62.335207 
L 145.04642 -60.891985 
L 141.439148 -61.66743 
L 137.831875 -63.222888 
L 134.224602 -62.627876 
L 130.61733 -60.646623 
L 127.010057 -61.66941 
L 123.402784 -61.499141 
L 119.795511 -62.942819 
L 116.188239 -62.068116 
L 112.580966 -60.915677 
L 108.973693 -62.476343 
L 105.36642 -64.355369 
L 101.759148 -62.270023 
L 98.151875 -62.637732 
L 94.544602 -62.112026 
L 90.93733 -61.692848 
L 87.330057 -61.856108 
L 83.722784 -62.424993 
L 80.115511 -62.838326 
L 76.508239 -62.682756 
L 72.900966 -62.402974 
L 69.293693 -60.635633 
L 65.68642 -59.453555 
L 62.079148 -62.623865 
L 58.471875 -61.355828 
z
" id="mef62ad900b" style="stroke:#0000ff;stroke-opacity:0.2;"/>
    </defs>
    <g clip-path="url(#p2a16c8dc27)">
     <use style="fill:#0000ff;fill-opacity:0.2;stroke:#0000ff;stroke-opacity:0.2;" x="0" xlink:href="#mef62ad900b" y="337.376125"/>
    </g>
   </g>
   <g id="PolyCollection_2">
    <defs>
     <path d="M 58.471875 -129.03 
L 58.471875 -95.040592 
L 62.079148 -90.652342 
L 65.68642 -93.545266 
L 69.293693 -101.084987 
L 72.900966 -105.090775 
L 76.508239 -96.43846 
L 80.115511 -111.123982 
L 83.722784 -108.523339 
L 87.330057 -117.579333 
L 90.93733 -112.453619 
L 94.544602 -107.793836 
L 98.151875 -108.949475 
L 101.759148 -107.634317 
L 105.36642 -115.087671 
L 108.973693 -116.178526 
L 112.580966 -119.190735 
L 116.188239 -121.285558 
L 119.795511 -123.721341 
L 123.402784 -134.797127 
L 127.010057 -128.920316 
L 130.61733 -127.240734 
L 134.224602 -129.56204 
L 137.831875 -137.604695 
L 141.439148 -145.599786 
L 145.04642 -135.635025 
L 148.653693 -133.664968 
L 152.260966 -141.720342 
L 155.868239 -142.456586 
L 159.475511 -144.592737 
L 163.082784 -138.238853 
L 166.690057 -151.799738 
L 170.29733 -139.558424 
L 173.904602 -149.344983 
L 177.511875 -147.173016 
L 181.119148 -147.079436 
L 184.72642 -147.876435 
L 188.333693 -147.995595 
L 191.940966 -152.86237 
L 195.548239 -151.25481 
L 199.155511 -162.667677 
L 202.762784 -154.776825 
L 206.370057 -158.03212 
L 209.97733 -158.960843 
L 213.584602 -166.278482 
L 217.191875 -165.166448 
L 220.799148 -165.856218 
L 224.40642 -167.43229 
L 228.013693 -164.244983 
L 231.620966 -168.859147 
L 235.228239 -173.703536 
L 238.835511 -174.006987 
L 242.442784 -181.680058 
L 246.050057 -181.752602 
L 249.65733 -183.509004 
L 253.264602 -185.26522 
L 256.871875 -186.168613 
L 260.479148 -193.738061 
L 264.08642 -183.829903 
L 267.693693 -194.714088 
L 271.300966 -190.431267 
L 274.908239 -188.361414 
L 278.515511 -189.718184 
L 282.122784 -190.510028 
L 285.730057 -190.187622 
L 289.33733 -199.14648 
L 292.944602 -201.590126 
L 296.551875 -202.40138 
L 300.159148 -201.2166 
L 303.76642 -201.655588 
L 307.373693 -206.45358 
L 310.980966 -204.811043 
L 314.588239 -201.303932 
L 318.195511 -204.999111 
L 321.802784 -204.981935 
L 325.410057 -205.025875 
L 329.01733 -206.99922 
L 332.624602 -202.987082 
L 336.231875 -208.2652 
L 339.839148 -205.629493 
L 343.44642 -208.092866 
L 347.053693 -210.447156 
L 350.660966 -210.611804 
L 354.268239 -211.896356 
L 357.875511 -212.479841 
L 361.482784 -205.090381 
L 365.090057 -208.399282 
L 368.69733 -206.280983 
L 372.304602 -205.454274 
L 375.911875 -213.346625 
L 379.519148 -211.495019 
L 383.12642 -213.710253 
L 386.733693 -212.551507 
L 390.340966 -212.483351 
L 393.948239 -216.097642 
L 397.555511 -214.231619 
L 401.162784 -214.098075 
L 404.770057 -215.039893 
L 408.37733 -213.607719 
L 411.984602 -213.823876 
L 415.591875 -215.838597 
L 415.591875 -295.305655 
L 415.591875 -295.305655 
L 411.984602 -296.28926 
L 408.37733 -297.400296 
L 404.770057 -299.31475 
L 401.162784 -296.259187 
L 397.555511 -298.649319 
L 393.948239 -297.759958 
L 390.340966 -295.096523 
L 386.733693 -295.958791 
L 383.12642 -296.299344 
L 379.519148 -290.683161 
L 375.911875 -296.9298 
L 372.304602 -287.757492 
L 368.69733 -288.768299 
L 365.090057 -289.544032 
L 361.482784 -289.021166 
L 357.875511 -293.52341 
L 354.268239 -297.747174 
L 350.660966 -289.028849 
L 347.053693 -289.030295 
L 343.44642 -289.191294 
L 339.839148 -285.213414 
L 336.231875 -285.954926 
L 332.624602 -276.692991 
L 329.01733 -285.201118 
L 325.410057 -282.476615 
L 321.802784 -287.964045 
L 318.195511 -284.058745 
L 314.588239 -283.45658 
L 310.980966 -283.153481 
L 307.373693 -284.993012 
L 303.76642 -279.494723 
L 300.159148 -280.850332 
L 296.551875 -280.890913 
L 292.944602 -281.791647 
L 289.33733 -277.109782 
L 285.730057 -271.862057 
L 282.122784 -269.099737 
L 278.515511 -269.972452 
L 274.908239 -264.096357 
L 271.300966 -268.07047 
L 267.693693 -279.565675 
L 264.08642 -259.229157 
L 260.479148 -274.951026 
L 256.871875 -272.091008 
L 253.264602 -267.089732 
L 249.65733 -266.39141 
L 246.050057 -262.082293 
L 242.442784 -262.401639 
L 238.835511 -256.128347 
L 235.228239 -251.511731 
L 231.620966 -247.516875 
L 228.013693 -245.223985 
L 224.40642 -249.860327 
L 220.799148 -244.425633 
L 217.191875 -246.712612 
L 213.584602 -242.626078 
L 209.97733 -235.812428 
L 206.370057 -232.835505 
L 202.762784 -229.654338 
L 199.155511 -239.737086 
L 195.548239 -223.212777 
L 191.940966 -225.818305 
L 188.333693 -228.114001 
L 184.72642 -218.929021 
L 181.119148 -218.373163 
L 177.511875 -215.870277 
L 173.904602 -222.224322 
L 170.29733 -208.306427 
L 166.690057 -213.189199 
L 163.082784 -206.994642 
L 159.475511 -215.192158 
L 155.868239 -214.618485 
L 152.260966 -209.640018 
L 148.653693 -199.297487 
L 145.04642 -201.786825 
L 141.439148 -208.705985 
L 137.831875 -202.054437 
L 134.224602 -189.794929 
L 130.61733 -182.118417 
L 127.010057 -193.473412 
L 123.402784 -190.121595 
L 119.795511 -175.910302 
L 116.188239 -169.796398 
L 112.580966 -166.12767 
L 108.973693 -163.231292 
L 105.36642 -161.623062 
L 101.759148 -150.703023 
L 98.151875 -144.439792 
L 94.544602 -145.522616 
L 90.93733 -150.068735 
L 87.330057 -160.549787 
L 83.722784 -140.483792 
L 80.115511 -133.753913 
L 76.508239 -121.395039 
L 72.900966 -122.259472 
L 69.293693 -134.365503 
L 65.68642 -123.058356 
L 62.079148 -112.059245 
L 58.471875 -129.03 
z
" id="m1512852d69" style="stroke:#800080;stroke-opacity:0.2;"/>
    </defs>
    <g clip-path="url(#p2a16c8dc27)">
     <use style="fill:#800080;fill-opacity:0.2;stroke:#800080;stroke-opacity:0.2;" x="0" xlink:href="#m1512852d69" y="337.376125"/>
    </g>
   </g>
   <g id="matplotlib.axis_1">
    <g id="xtick_1">
     <g id="line2d_1">
      <path clip-path="url(#p2a16c8dc27)" d="M 127.010057 292.077375 
L 127.010057 25.965375 
" style="fill:none;stroke:#b0b0b0;stroke-linecap:square;stroke-width:0.8;"/>
     </g>
     <g id="line2d_2">
      <defs>
       <path d="M 0 0 
L 0 3.5 
" id="m20a604bdb3" style="stroke:#000000;stroke-width:0.8;"/>
      </defs>
      <g>
       <use style="stroke:#000000;stroke-width:0.8;" x="127.010057" xlink:href="#m20a604bdb3" y="292.077375"/>
      </g>
     </g>
     <g id="text_1">
      <!-- 20 -->
      <g transform="translate(118.102557 309.715187)scale(0.14 -0.14)">
       <defs>
        <path d="M 19.1875 8.296875 
L 53.609375 8.296875 
L 53.609375 0 
L 7.328125 0 
L 7.328125 8.296875 
Q 12.9375 14.109375 22.625 23.890625 
Q 32.328125 33.6875 34.8125 36.53125 
Q 39.546875 41.84375 41.421875 45.53125 
Q 43.3125 49.21875 43.3125 52.78125 
Q 43.3125 58.59375 39.234375 62.25 
Q 35.15625 65.921875 28.609375 65.921875 
Q 23.96875 65.921875 18.8125 64.3125 
Q 13.671875 62.703125 7.8125 59.421875 
L 7.8125 69.390625 
Q 13.765625 71.78125 18.9375 73 
Q 24.125 74.21875 28.421875 74.21875 
Q 39.75 74.21875 46.484375 68.546875 
Q 53.21875 62.890625 53.21875 53.421875 
Q 53.21875 48.921875 51.53125 44.890625 
Q 49.859375 40.875 45.40625 35.40625 
Q 44.1875 33.984375 37.640625 27.21875 
Q 31.109375 20.453125 19.1875 8.296875 
z
" id="DejaVuSans-50"/>
        <path d="M 31.78125 66.40625 
Q 24.171875 66.40625 20.328125 58.90625 
Q 16.5 51.421875 16.5 36.375 
Q 16.5 21.390625 20.328125 13.890625 
Q 24.171875 6.390625 31.78125 6.390625 
Q 39.453125 6.390625 43.28125 13.890625 
Q 47.125 21.390625 47.125 36.375 
Q 47.125 51.421875 43.28125 58.90625 
Q 39.453125 66.40625 31.78125 66.40625 
z
M 31.78125 74.21875 
Q 44.046875 74.21875 50.515625 64.515625 
Q 56.984375 54.828125 56.984375 36.375 
Q 56.984375 17.96875 50.515625 8.265625 
Q 44.046875 -1.421875 31.78125 -1.421875 
Q 19.53125 -1.421875 13.0625 8.265625 
Q 6.59375 17.96875 6.59375 36.375 
Q 6.59375 54.828125 13.0625 64.515625 
Q 19.53125 74.21875 31.78125 74.21875 
z
" id="DejaVuSans-48"/>
       </defs>
       <use xlink:href="#DejaVuSans-50"/>
       <use x="63.623047" xlink:href="#DejaVuSans-48"/>
      </g>
     </g>
    </g>
    <g id="xtick_2">
     <g id="line2d_3">
      <path clip-path="url(#p2a16c8dc27)" d="M 199.155511 292.077375 
L 199.155511 25.965375 
" style="fill:none;stroke:#b0b0b0;stroke-linecap:square;stroke-width:0.8;"/>
     </g>
     <g id="line2d_4">
      <g>
       <use style="stroke:#000000;stroke-width:0.8;" x="199.155511" xlink:href="#m20a604bdb3" y="292.077375"/>
      </g>
     </g>
     <g id="text_2">
      <!-- 40 -->
      <g transform="translate(190.248011 309.715187)scale(0.14 -0.14)">
       <defs>
        <path d="M 37.796875 64.3125 
L 12.890625 25.390625 
L 37.796875 25.390625 
z
M 35.203125 72.90625 
L 47.609375 72.90625 
L 47.609375 25.390625 
L 58.015625 25.390625 
L 58.015625 17.1875 
L 47.609375 17.1875 
L 47.609375 0 
L 37.796875 0 
L 37.796875 17.1875 
L 4.890625 17.1875 
L 4.890625 26.703125 
z
" id="DejaVuSans-52"/>
       </defs>
       <use xlink:href="#DejaVuSans-52"/>
       <use x="63.623047" xlink:href="#DejaVuSans-48"/>
      </g>
     </g>
    </g>
    <g id="xtick_3">
     <g id="line2d_5">
      <path clip-path="url(#p2a16c8dc27)" d="M 271.300966 292.077375 
L 271.300966 25.965375 
" style="fill:none;stroke:#b0b0b0;stroke-linecap:square;stroke-width:0.8;"/>
     </g>
     <g id="line2d_6">
      <g>
       <use style="stroke:#000000;stroke-width:0.8;" x="271.300966" xlink:href="#m20a604bdb3" y="292.077375"/>
      </g>
     </g>
     <g id="text_3">
      <!-- 60 -->
      <g transform="translate(262.393466 309.715187)scale(0.14 -0.14)">
       <defs>
        <path d="M 33.015625 40.375 
Q 26.375 40.375 22.484375 35.828125 
Q 18.609375 31.296875 18.609375 23.390625 
Q 18.609375 15.53125 22.484375 10.953125 
Q 26.375 6.390625 33.015625 6.390625 
Q 39.65625 6.390625 43.53125 10.953125 
Q 47.40625 15.53125 47.40625 23.390625 
Q 47.40625 31.296875 43.53125 35.828125 
Q 39.65625 40.375 33.015625 40.375 
z
M 52.59375 71.296875 
L 52.59375 62.3125 
Q 48.875 64.0625 45.09375 64.984375 
Q 41.3125 65.921875 37.59375 65.921875 
Q 27.828125 65.921875 22.671875 59.328125 
Q 17.53125 52.734375 16.796875 39.40625 
Q 19.671875 43.65625 24.015625 45.921875 
Q 28.375 48.1875 33.59375 48.1875 
Q 44.578125 48.1875 50.953125 41.515625 
Q 57.328125 34.859375 57.328125 23.390625 
Q 57.328125 12.15625 50.6875 5.359375 
Q 44.046875 -1.421875 33.015625 -1.421875 
Q 20.359375 -1.421875 13.671875 8.265625 
Q 6.984375 17.96875 6.984375 36.375 
Q 6.984375 53.65625 15.1875 63.9375 
Q 23.390625 74.21875 37.203125 74.21875 
Q 40.921875 74.21875 44.703125 73.484375 
Q 48.484375 72.75 52.59375 71.296875 
z
" id="DejaVuSans-54"/>
       </defs>
       <use xlink:href="#DejaVuSans-54"/>
       <use x="63.623047" xlink:href="#DejaVuSans-48"/>
      </g>
     </g>
    </g>
    <g id="xtick_4">
     <g id="line2d_7">
      <path clip-path="url(#p2a16c8dc27)" d="M 343.44642 292.077375 
L 343.44642 25.965375 
" style="fill:none;stroke:#b0b0b0;stroke-linecap:square;stroke-width:0.8;"/>
     </g>
     <g id="line2d_8">
      <g>
       <use style="stroke:#000000;stroke-width:0.8;" x="343.44642" xlink:href="#m20a604bdb3" y="292.077375"/>
      </g>
     </g>
     <g id="text_4">
      <!-- 80 -->
      <g transform="translate(334.53892 309.715187)scale(0.14 -0.14)">
       <defs>
        <path d="M 31.78125 34.625 
Q 24.75 34.625 20.71875 30.859375 
Q 16.703125 27.09375 16.703125 20.515625 
Q 16.703125 13.921875 20.71875 10.15625 
Q 24.75 6.390625 31.78125 6.390625 
Q 38.8125 6.390625 42.859375 10.171875 
Q 46.921875 13.96875 46.921875 20.515625 
Q 46.921875 27.09375 42.890625 30.859375 
Q 38.875 34.625 31.78125 34.625 
z
M 21.921875 38.8125 
Q 15.578125 40.375 12.03125 44.71875 
Q 8.5 49.078125 8.5 55.328125 
Q 8.5 64.0625 14.71875 69.140625 
Q 20.953125 74.21875 31.78125 74.21875 
Q 42.671875 74.21875 48.875 69.140625 
Q 55.078125 64.0625 55.078125 55.328125 
Q 55.078125 49.078125 51.53125 44.71875 
Q 48 40.375 41.703125 38.8125 
Q 48.828125 37.15625 52.796875 32.3125 
Q 56.78125 27.484375 56.78125 20.515625 
Q 56.78125 9.90625 50.3125 4.234375 
Q 43.84375 -1.421875 31.78125 -1.421875 
Q 19.734375 -1.421875 13.25 4.234375 
Q 6.78125 9.90625 6.78125 20.515625 
Q 6.78125 27.484375 10.78125 32.3125 
Q 14.796875 37.15625 21.921875 38.8125 
z
M 18.3125 54.390625 
Q 18.3125 48.734375 21.84375 45.5625 
Q 25.390625 42.390625 31.78125 42.390625 
Q 38.140625 42.390625 41.71875 45.5625 
Q 45.3125 48.734375 45.3125 54.390625 
Q 45.3125 60.0625 41.71875 63.234375 
Q 38.140625 66.40625 31.78125 66.40625 
Q 25.390625 66.40625 21.84375 63.234375 
Q 18.3125 60.0625 18.3125 54.390625 
z
" id="DejaVuSans-56"/>
       </defs>
       <use xlink:href="#DejaVuSans-56"/>
       <use x="63.623047" xlink:href="#DejaVuSans-48"/>
      </g>
     </g>
    </g>
    <g id="xtick_5">
     <g id="line2d_9">
      <path clip-path="url(#p2a16c8dc27)" d="M 415.591875 292.077375 
L 415.591875 25.965375 
" style="fill:none;stroke:#b0b0b0;stroke-linecap:square;stroke-width:0.8;"/>
     </g>
     <g id="line2d_10">
      <g>
       <use style="stroke:#000000;stroke-width:0.8;" x="415.591875" xlink:href="#m20a604bdb3" y="292.077375"/>
      </g>
     </g>
     <g id="text_5">
      <!-- 100 -->
      <g transform="translate(402.230625 309.715187)scale(0.14 -0.14)">
       <defs>
        <path d="M 12.40625 8.296875 
L 28.515625 8.296875 
L 28.515625 63.921875 
L 10.984375 60.40625 
L 10.984375 69.390625 
L 28.421875 72.90625 
L 38.28125 72.90625 
L 38.28125 8.296875 
L 54.390625 8.296875 
L 54.390625 0 
L 12.40625 0 
z
" id="DejaVuSans-49"/>
       </defs>
       <use xlink:href="#DejaVuSans-49"/>
       <use x="63.623047" xlink:href="#DejaVuSans-48"/>
       <use x="127.246094" xlink:href="#DejaVuSans-48"/>
      </g>
     </g>
    </g>
    <g id="text_6">
     <!-- Generations. -->
     <g transform="translate(192.110469 327.264562)scale(0.14 -0.14)">
      <defs>
       <path d="M 59.515625 10.40625 
L 59.515625 29.984375 
L 43.40625 29.984375 
L 43.40625 38.09375 
L 69.28125 38.09375 
L 69.28125 6.78125 
Q 63.578125 2.734375 56.6875 0.65625 
Q 49.8125 -1.421875 42 -1.421875 
Q 24.90625 -1.421875 15.25 8.5625 
Q 5.609375 18.5625 5.609375 36.375 
Q 5.609375 54.25 15.25 64.234375 
Q 24.90625 74.21875 42 74.21875 
Q 49.125 74.21875 55.546875 72.453125 
Q 61.96875 70.703125 67.390625 67.28125 
L 67.390625 56.78125 
Q 61.921875 61.421875 55.765625 63.765625 
Q 49.609375 66.109375 42.828125 66.109375 
Q 29.4375 66.109375 22.71875 58.640625 
Q 16.015625 51.171875 16.015625 36.375 
Q 16.015625 21.625 22.71875 14.15625 
Q 29.4375 6.6875 42.828125 6.6875 
Q 48.046875 6.6875 52.140625 7.59375 
Q 56.25 8.5 59.515625 10.40625 
z
" id="DejaVuSans-71"/>
       <path d="M 56.203125 29.59375 
L 56.203125 25.203125 
L 14.890625 25.203125 
Q 15.484375 15.921875 20.484375 11.0625 
Q 25.484375 6.203125 34.421875 6.203125 
Q 39.59375 6.203125 44.453125 7.46875 
Q 49.3125 8.734375 54.109375 11.28125 
L 54.109375 2.78125 
Q 49.265625 0.734375 44.1875 -0.34375 
Q 39.109375 -1.421875 33.890625 -1.421875 
Q 20.796875 -1.421875 13.15625 6.1875 
Q 5.515625 13.8125 5.515625 26.8125 
Q 5.515625 40.234375 12.765625 48.109375 
Q 20.015625 56 32.328125 56 
Q 43.359375 56 49.78125 48.890625 
Q 56.203125 41.796875 56.203125 29.59375 
z
M 47.21875 32.234375 
Q 47.125 39.59375 43.09375 43.984375 
Q 39.0625 48.390625 32.421875 48.390625 
Q 24.90625 48.390625 20.390625 44.140625 
Q 15.875 39.890625 15.1875 32.171875 
z
" id="DejaVuSans-101"/>
       <path d="M 54.890625 33.015625 
L 54.890625 0 
L 45.90625 0 
L 45.90625 32.71875 
Q 45.90625 40.484375 42.875 44.328125 
Q 39.84375 48.1875 33.796875 48.1875 
Q 26.515625 48.1875 22.3125 43.546875 
Q 18.109375 38.921875 18.109375 30.90625 
L 18.109375 0 
L 9.078125 0 
L 9.078125 54.6875 
L 18.109375 54.6875 
L 18.109375 46.1875 
Q 21.34375 51.125 25.703125 53.5625 
Q 30.078125 56 35.796875 56 
Q 45.21875 56 50.046875 50.171875 
Q 54.890625 44.34375 54.890625 33.015625 
z
" id="DejaVuSans-110"/>
       <path d="M 41.109375 46.296875 
Q 39.59375 47.171875 37.8125 47.578125 
Q 36.03125 48 33.890625 48 
Q 26.265625 48 22.1875 43.046875 
Q 18.109375 38.09375 18.109375 28.8125 
L 18.109375 0 
L 9.078125 0 
L 9.078125 54.6875 
L 18.109375 54.6875 
L 18.109375 46.1875 
Q 20.953125 51.171875 25.484375 53.578125 
Q 30.03125 56 36.53125 56 
Q 37.453125 56 38.578125 55.875 
Q 39.703125 55.765625 41.0625 55.515625 
z
" id="DejaVuSans-114"/>
       <path d="M 34.28125 27.484375 
Q 23.390625 27.484375 19.1875 25 
Q 14.984375 22.515625 14.984375 16.5 
Q 14.984375 11.71875 18.140625 8.90625 
Q 21.296875 6.109375 26.703125 6.109375 
Q 34.1875 6.109375 38.703125 11.40625 
Q 43.21875 16.703125 43.21875 25.484375 
L 43.21875 27.484375 
z
M 52.203125 31.203125 
L 52.203125 0 
L 43.21875 0 
L 43.21875 8.296875 
Q 40.140625 3.328125 35.546875 0.953125 
Q 30.953125 -1.421875 24.3125 -1.421875 
Q 15.921875 -1.421875 10.953125 3.296875 
Q 6 8.015625 6 15.921875 
Q 6 25.140625 12.171875 29.828125 
Q 18.359375 34.515625 30.609375 34.515625 
L 43.21875 34.515625 
L 43.21875 35.40625 
Q 43.21875 41.609375 39.140625 45 
Q 35.0625 48.390625 27.6875 48.390625 
Q 23 48.390625 18.546875 47.265625 
Q 14.109375 46.140625 10.015625 43.890625 
L 10.015625 52.203125 
Q 14.9375 54.109375 19.578125 55.046875 
Q 24.21875 56 28.609375 56 
Q 40.484375 56 46.34375 49.84375 
Q 52.203125 43.703125 52.203125 31.203125 
z
" id="DejaVuSans-97"/>
       <path d="M 18.3125 70.21875 
L 18.3125 54.6875 
L 36.8125 54.6875 
L 36.8125 47.703125 
L 18.3125 47.703125 
L 18.3125 18.015625 
Q 18.3125 11.328125 20.140625 9.421875 
Q 21.96875 7.515625 27.59375 7.515625 
L 36.8125 7.515625 
L 36.8125 0 
L 27.59375 0 
Q 17.1875 0 13.234375 3.875 
Q 9.28125 7.765625 9.28125 18.015625 
L 9.28125 47.703125 
L 2.6875 47.703125 
L 2.6875 54.6875 
L 9.28125 54.6875 
L 9.28125 70.21875 
z
" id="DejaVuSans-116"/>
       <path d="M 9.421875 54.6875 
L 18.40625 54.6875 
L 18.40625 0 
L 9.421875 0 
z
M 9.421875 75.984375 
L 18.40625 75.984375 
L 18.40625 64.59375 
L 9.421875 64.59375 
z
" id="DejaVuSans-105"/>
       <path d="M 30.609375 48.390625 
Q 23.390625 48.390625 19.1875 42.75 
Q 14.984375 37.109375 14.984375 27.296875 
Q 14.984375 17.484375 19.15625 11.84375 
Q 23.34375 6.203125 30.609375 6.203125 
Q 37.796875 6.203125 41.984375 11.859375 
Q 46.1875 17.53125 46.1875 27.296875 
Q 46.1875 37.015625 41.984375 42.703125 
Q 37.796875 48.390625 30.609375 48.390625 
z
M 30.609375 56 
Q 42.328125 56 49.015625 48.375 
Q 55.71875 40.765625 55.71875 27.296875 
Q 55.71875 13.875 49.015625 6.21875 
Q 42.328125 -1.421875 30.609375 -1.421875 
Q 18.84375 -1.421875 12.171875 6.21875 
Q 5.515625 13.875 5.515625 27.296875 
Q 5.515625 40.765625 12.171875 48.375 
Q 18.84375 56 30.609375 56 
z
" id="DejaVuSans-111"/>
       <path d="M 44.28125 53.078125 
L 44.28125 44.578125 
Q 40.484375 46.53125 36.375 47.5 
Q 32.28125 48.484375 27.875 48.484375 
Q 21.1875 48.484375 17.84375 46.4375 
Q 14.5 44.390625 14.5 40.28125 
Q 14.5 37.15625 16.890625 35.375 
Q 19.28125 33.59375 26.515625 31.984375 
L 29.59375 31.296875 
Q 39.15625 29.25 43.1875 25.515625 
Q 47.21875 21.78125 47.21875 15.09375 
Q 47.21875 7.46875 41.1875 3.015625 
Q 35.15625 -1.421875 24.609375 -1.421875 
Q 20.21875 -1.421875 15.453125 -0.5625 
Q 10.6875 0.296875 5.421875 2 
L 5.421875 11.28125 
Q 10.40625 8.6875 15.234375 7.390625 
Q 20.0625 6.109375 24.8125 6.109375 
Q 31.15625 6.109375 34.5625 8.28125 
Q 37.984375 10.453125 37.984375 14.40625 
Q 37.984375 18.0625 35.515625 20.015625 
Q 33.0625 21.96875 24.703125 23.78125 
L 21.578125 24.515625 
Q 13.234375 26.265625 9.515625 29.90625 
Q 5.8125 33.546875 5.8125 39.890625 
Q 5.8125 47.609375 11.28125 51.796875 
Q 16.75 56 26.8125 56 
Q 31.78125 56 36.171875 55.265625 
Q 40.578125 54.546875 44.28125 53.078125 
z
" id="DejaVuSans-115"/>
       <path d="M 10.6875 12.40625 
L 21 12.40625 
L 21 0 
L 10.6875 0 
z
" id="DejaVuSans-46"/>
      </defs>
      <use xlink:href="#DejaVuSans-71"/>
      <use x="77.490234" xlink:href="#DejaVuSans-101"/>
      <use x="139.013672" xlink:href="#DejaVuSans-110"/>
      <use x="202.392578" xlink:href="#DejaVuSans-101"/>
      <use x="263.916016" xlink:href="#DejaVuSans-114"/>
      <use x="305.029297" xlink:href="#DejaVuSans-97"/>
      <use x="366.308594" xlink:href="#DejaVuSans-116"/>
      <use x="405.517578" xlink:href="#DejaVuSans-105"/>
      <use x="433.300781" xlink:href="#DejaVuSans-111"/>
      <use x="494.482422" xlink:href="#DejaVuSans-110"/>
      <use x="557.861328" xlink:href="#DejaVuSans-115"/>
      <use x="609.960938" xlink:href="#DejaVuSans-46"/>
     </g>
    </g>
   </g>
   <g id="matplotlib.axis_2">
    <g id="ytick_1">
     <g id="line2d_11">
      <path clip-path="url(#p2a16c8dc27)" d="M 58.471875 284.883899 
L 415.591875 284.883899 
" style="fill:none;stroke:#b0b0b0;stroke-linecap:square;stroke-width:0.8;"/>
     </g>
     <g id="line2d_12">
      <defs>
       <path d="M 0 0 
L -3.5 0 
" id="m9d96abe0c6" style="stroke:#000000;stroke-width:0.8;"/>
      </defs>
      <g>
       <use style="stroke:#000000;stroke-width:0.8;" x="58.471875" xlink:href="#m9d96abe0c6" y="284.883899"/>
      </g>
     </g>
     <g id="text_7">
      <!-- 0 -->
      <g transform="translate(42.564375 290.202806)scale(0.14 -0.14)">
       <use xlink:href="#DejaVuSans-48"/>
      </g>
     </g>
    </g>
    <g id="ytick_2">
     <g id="line2d_13">
      <path clip-path="url(#p2a16c8dc27)" d="M 58.471875 239.131571 
L 415.591875 239.131571 
" style="fill:none;stroke:#b0b0b0;stroke-linecap:square;stroke-width:0.8;"/>
     </g>
     <g id="line2d_14">
      <g>
       <use style="stroke:#000000;stroke-width:0.8;" x="58.471875" xlink:href="#m9d96abe0c6" y="239.131571"/>
      </g>
     </g>
     <g id="text_8">
      <!-- 50 -->
      <g transform="translate(33.656875 244.450477)scale(0.14 -0.14)">
       <defs>
        <path d="M 10.796875 72.90625 
L 49.515625 72.90625 
L 49.515625 64.59375 
L 19.828125 64.59375 
L 19.828125 46.734375 
Q 21.96875 47.46875 24.109375 47.828125 
Q 26.265625 48.1875 28.421875 48.1875 
Q 40.625 48.1875 47.75 41.5 
Q 54.890625 34.8125 54.890625 23.390625 
Q 54.890625 11.625 47.5625 5.09375 
Q 40.234375 -1.421875 26.90625 -1.421875 
Q 22.3125 -1.421875 17.546875 -0.640625 
Q 12.796875 0.140625 7.71875 1.703125 
L 7.71875 11.625 
Q 12.109375 9.234375 16.796875 8.0625 
Q 21.484375 6.890625 26.703125 6.890625 
Q 35.15625 6.890625 40.078125 11.328125 
Q 45.015625 15.765625 45.015625 23.390625 
Q 45.015625 31 40.078125 35.4375 
Q 35.15625 39.890625 26.703125 39.890625 
Q 22.75 39.890625 18.8125 39.015625 
Q 14.890625 38.140625 10.796875 36.28125 
z
" id="DejaVuSans-53"/>
       </defs>
       <use xlink:href="#DejaVuSans-53"/>
       <use x="63.623047" xlink:href="#DejaVuSans-48"/>
      </g>
     </g>
    </g>
    <g id="ytick_3">
     <g id="line2d_15">
      <path clip-path="url(#p2a16c8dc27)" d="M 58.471875 193.379243 
L 415.591875 193.379243 
" style="fill:none;stroke:#b0b0b0;stroke-linecap:square;stroke-width:0.8;"/>
     </g>
     <g id="line2d_16">
      <g>
       <use style="stroke:#000000;stroke-width:0.8;" x="58.471875" xlink:href="#m9d96abe0c6" y="193.379243"/>
      </g>
     </g>
     <g id="text_9">
      <!-- 100 -->
      <g transform="translate(24.749375 198.698149)scale(0.14 -0.14)">
       <use xlink:href="#DejaVuSans-49"/>
       <use x="63.623047" xlink:href="#DejaVuSans-48"/>
       <use x="127.246094" xlink:href="#DejaVuSans-48"/>
      </g>
     </g>
    </g>
    <g id="ytick_4">
     <g id="line2d_17">
      <path clip-path="url(#p2a16c8dc27)" d="M 58.471875 147.626915 
L 415.591875 147.626915 
" style="fill:none;stroke:#b0b0b0;stroke-linecap:square;stroke-width:0.8;"/>
     </g>
     <g id="line2d_18">
      <g>
       <use style="stroke:#000000;stroke-width:0.8;" x="58.471875" xlink:href="#m9d96abe0c6" y="147.626915"/>
      </g>
     </g>
     <g id="text_10">
      <!-- 150 -->
      <g transform="translate(24.749375 152.945821)scale(0.14 -0.14)">
       <use xlink:href="#DejaVuSans-49"/>
       <use x="63.623047" xlink:href="#DejaVuSans-53"/>
       <use x="127.246094" xlink:href="#DejaVuSans-48"/>
      </g>
     </g>
    </g>
    <g id="ytick_5">
     <g id="line2d_19">
      <path clip-path="url(#p2a16c8dc27)" d="M 58.471875 101.874587 
L 415.591875 101.874587 
" style="fill:none;stroke:#b0b0b0;stroke-linecap:square;stroke-width:0.8;"/>
     </g>
     <g id="line2d_20">
      <g>
       <use style="stroke:#000000;stroke-width:0.8;" x="58.471875" xlink:href="#m9d96abe0c6" y="101.874587"/>
      </g>
     </g>
     <g id="text_11">
      <!-- 200 -->
      <g transform="translate(24.749375 107.193493)scale(0.14 -0.14)">
       <use xlink:href="#DejaVuSans-50"/>
       <use x="63.623047" xlink:href="#DejaVuSans-48"/>
       <use x="127.246094" xlink:href="#DejaVuSans-48"/>
      </g>
     </g>
    </g>
    <g id="ytick_6">
     <g id="line2d_21">
      <path clip-path="url(#p2a16c8dc27)" d="M 58.471875 56.122259 
L 415.591875 56.122259 
" style="fill:none;stroke:#b0b0b0;stroke-linecap:square;stroke-width:0.8;"/>
     </g>
     <g id="line2d_22">
      <g>
       <use style="stroke:#000000;stroke-width:0.8;" x="58.471875" xlink:href="#m9d96abe0c6" y="56.122259"/>
      </g>
     </g>
     <g id="text_12">
      <!-- 250 -->
      <g transform="translate(24.749375 61.441165)scale(0.14 -0.14)">
       <use xlink:href="#DejaVuSans-50"/>
       <use x="63.623047" xlink:href="#DejaVuSans-53"/>
       <use x="127.246094" xlink:href="#DejaVuSans-48"/>
      </g>
     </g>
    </g>
    <g id="text_13">
     <!-- Average return. -->
     <g transform="translate(17.837813 213.615906)rotate(-90)scale(0.14 -0.14)">
      <defs>
       <path d="M 34.1875 63.1875 
L 20.796875 26.90625 
L 47.609375 26.90625 
z
M 28.609375 72.90625 
L 39.796875 72.90625 
L 67.578125 0 
L 57.328125 0 
L 50.6875 18.703125 
L 17.828125 18.703125 
L 11.1875 0 
L 0.78125 0 
z
" id="DejaVuSans-65"/>
       <path d="M 2.984375 54.6875 
L 12.5 54.6875 
L 29.59375 8.796875 
L 46.6875 54.6875 
L 56.203125 54.6875 
L 35.6875 0 
L 23.484375 0 
z
" id="DejaVuSans-118"/>
       <path d="M 45.40625 27.984375 
Q 45.40625 37.75 41.375 43.109375 
Q 37.359375 48.484375 30.078125 48.484375 
Q 22.859375 48.484375 18.828125 43.109375 
Q 14.796875 37.75 14.796875 27.984375 
Q 14.796875 18.265625 18.828125 12.890625 
Q 22.859375 7.515625 30.078125 7.515625 
Q 37.359375 7.515625 41.375 12.890625 
Q 45.40625 18.265625 45.40625 27.984375 
z
M 54.390625 6.78125 
Q 54.390625 -7.171875 48.1875 -13.984375 
Q 42 -20.796875 29.203125 -20.796875 
Q 24.46875 -20.796875 20.265625 -20.09375 
Q 16.0625 -19.390625 12.109375 -17.921875 
L 12.109375 -9.1875 
Q 16.0625 -11.328125 19.921875 -12.34375 
Q 23.78125 -13.375 27.78125 -13.375 
Q 36.625 -13.375 41.015625 -8.765625 
Q 45.40625 -4.15625 45.40625 5.171875 
L 45.40625 9.625 
Q 42.625 4.78125 38.28125 2.390625 
Q 33.9375 0 27.875 0 
Q 17.828125 0 11.671875 7.65625 
Q 5.515625 15.328125 5.515625 27.984375 
Q 5.515625 40.671875 11.671875 48.328125 
Q 17.828125 56 27.875 56 
Q 33.9375 56 38.28125 53.609375 
Q 42.625 51.21875 45.40625 46.390625 
L 45.40625 54.6875 
L 54.390625 54.6875 
z
" id="DejaVuSans-103"/>
       <path id="DejaVuSans-32"/>
       <path d="M 8.5 21.578125 
L 8.5 54.6875 
L 17.484375 54.6875 
L 17.484375 21.921875 
Q 17.484375 14.15625 20.5 10.265625 
Q 23.53125 6.390625 29.59375 6.390625 
Q 36.859375 6.390625 41.078125 11.03125 
Q 45.3125 15.671875 45.3125 23.6875 
L 45.3125 54.6875 
L 54.296875 54.6875 
L 54.296875 0 
L 45.3125 0 
L 45.3125 8.40625 
Q 42.046875 3.421875 37.71875 1 
Q 33.40625 -1.421875 27.6875 -1.421875 
Q 18.265625 -1.421875 13.375 4.4375 
Q 8.5 10.296875 8.5 21.578125 
z
M 31.109375 56 
z
" id="DejaVuSans-117"/>
      </defs>
      <use xlink:href="#DejaVuSans-65"/>
      <use x="62.533203" xlink:href="#DejaVuSans-118"/>
      <use x="121.712891" xlink:href="#DejaVuSans-101"/>
      <use x="183.236328" xlink:href="#DejaVuSans-114"/>
      <use x="224.349609" xlink:href="#DejaVuSans-97"/>
      <use x="285.628906" xlink:href="#DejaVuSans-103"/>
      <use x="349.105469" xlink:href="#DejaVuSans-101"/>
      <use x="410.628906" xlink:href="#DejaVuSans-32"/>
      <use x="442.416016" xlink:href="#DejaVuSans-114"/>
      <use x="481.279297" xlink:href="#DejaVuSans-101"/>
      <use x="542.802734" xlink:href="#DejaVuSans-116"/>
      <use x="582.011719" xlink:href="#DejaVuSans-117"/>
      <use x="645.390625" xlink:href="#DejaVuSans-114"/>
      <use x="684.753906" xlink:href="#DejaVuSans-110"/>
      <use x="748.132812" xlink:href="#DejaVuSans-46"/>
     </g>
    </g>
   </g>
   <g id="line2d_23">
    <path clip-path="url(#p2a16c8dc27)" d="M 58.471875 186.800058 
L 415.591875 186.800058 
" style="fill:none;stroke:#ff0000;stroke-linecap:square;stroke-width:1.5;"/>
   </g>
   <g id="line2d_24">
    <path clip-path="url(#p2a16c8dc27)" d="M 58.471875 276.759822 
L 62.079148 276.132198 
L 65.68642 278.599349 
L 69.293693 277.672053 
L 72.900966 276.41614 
L 76.508239 275.694179 
L 80.115511 275.876805 
L 83.722784 276.298622 
L 87.330057 276.895839 
L 90.93733 276.96879 
L 94.544602 276.352371 
L 98.151875 277.059939 
L 101.759148 276.736152 
L 105.36642 274.744471 
L 108.973693 276.529454 
L 112.580966 277.702577 
L 116.188239 276.64339 
L 119.795511 275.964428 
L 123.402784 277.381883 
L 127.010057 277.328896 
L 130.61733 277.545707 
L 134.224602 276.618724 
L 137.831875 275.785376 
L 141.439148 276.488023 
L 145.04642 277.212558 
L 148.653693 276.562831 
L 152.260966 275.653431 
L 155.868239 277.361369 
L 159.475511 276.413326 
L 163.082784 277.799941 
L 166.690057 275.433293 
L 170.29733 276.72436 
L 173.904602 274.983929 
L 177.511875 277.701618 
L 181.119148 274.965435 
L 184.72642 274.862828 
L 188.333693 277.520706 
L 191.940966 276.541256 
L 195.548239 275.769882 
L 199.155511 275.424954 
L 202.762784 278.18626 
L 206.370057 274.981664 
L 209.97733 275.34852 
L 213.584602 277.343949 
L 217.191875 277.615736 
L 220.799148 278.423319 
L 224.40642 276.995153 
L 228.013693 275.912266 
L 231.620966 276.183032 
L 235.228239 274.939703 
L 238.835511 275.999025 
L 242.442784 275.060999 
L 246.050057 275.949307 
L 249.65733 275.179957 
L 253.264602 274.057343 
L 256.871875 275.718149 
L 260.479148 273.37521 
L 264.08642 276.032891 
L 267.693693 274.915931 
L 271.300966 275.476548 
L 274.908239 274.614733 
L 278.515511 274.676443 
L 282.122784 276.696168 
L 285.730057 273.663354 
L 289.33733 276.440602 
L 292.944602 275.478935 
L 296.551875 274.860781 
L 300.159148 274.354014 
L 303.76642 276.575175 
L 307.373693 274.85416 
L 310.980966 274.501891 
L 314.588239 275.712501 
L 318.195511 271.846583 
L 321.802784 272.40455 
L 325.410057 271.643214 
L 329.01733 273.866532 
L 332.624602 272.312151 
L 336.231875 273.586823 
L 339.839148 273.254789 
L 343.44642 270.681145 
L 347.053693 271.663339 
L 350.660966 272.969929 
L 354.268239 272.311568 
L 357.875511 270.07333 
L 361.482784 272.136359 
L 365.090057 269.76418 
L 368.69733 270.491001 
L 372.304602 270.594615 
L 375.911875 272.991784 
L 379.519148 271.592115 
L 383.12642 269.074967 
L 386.733693 269.237614 
L 390.340966 269.749502 
L 393.948239 270.107146 
L 397.555511 268.63259 
L 401.162784 269.513645 
L 404.770057 267.136955 
L 408.37733 269.468885 
L 411.984602 267.336157 
L 415.591875 267.896572 
" style="fill:none;stroke:#0000ff;stroke-linecap:square;stroke-width:1.5;"/>
   </g>
   <g id="line2d_25">
    <path clip-path="url(#p2a16c8dc27)" d="M 58.471875 225.340829 
L 62.079148 236.020331 
L 65.68642 229.074314 
L 69.293693 219.65088 
L 72.900966 223.701001 
L 76.508239 228.459375 
L 80.115511 214.937178 
L 83.722784 212.872559 
L 87.330057 198.311565 
L 90.93733 206.114948 
L 94.544602 210.717899 
L 98.151875 210.681492 
L 101.759148 208.207455 
L 105.36642 199.020758 
L 108.973693 197.671216 
L 112.580966 194.716922 
L 116.188239 191.835147 
L 119.795511 187.560304 
L 123.402784 174.916764 
L 127.010057 176.179261 
L 130.61733 182.69655 
L 134.224602 177.697641 
L 137.831875 167.546559 
L 141.439148 160.22324 
L 145.04642 168.6652 
L 148.653693 170.894898 
L 152.260966 161.695945 
L 155.868239 158.838589 
L 159.475511 157.483678 
L 163.082784 164.759378 
L 166.690057 154.881656 
L 170.29733 163.443699 
L 173.904602 151.591473 
L 177.511875 155.854478 
L 181.119148 154.649825 
L 184.72642 153.973397 
L 188.333693 149.321327 
L 191.940966 148.035788 
L 195.548239 150.142331 
L 199.155511 136.173743 
L 202.762784 145.160543 
L 206.370057 141.942313 
L 209.97733 139.989489 
L 213.584602 132.923845 
L 217.191875 131.436595 
L 220.799148 132.235199 
L 224.40642 128.729816 
L 228.013693 132.641641 
L 231.620966 129.188114 
L 235.228239 124.768492 
L 238.835511 122.308458 
L 242.442784 115.335276 
L 246.050057 115.458678 
L 249.65733 112.425918 
L 253.264602 111.198649 
L 256.871875 108.246315 
L 260.479148 103.031581 
L 264.08642 115.846595 
L 267.693693 100.236244 
L 271.300966 108.125256 
L 274.908239 111.147239 
L 278.515511 107.530807 
L 282.122784 107.571243 
L 285.730057 106.351286 
L 289.33733 99.247994 
L 292.944602 95.685239 
L 296.551875 95.729979 
L 300.159148 96.342659 
L 303.76642 96.80097 
L 307.373693 91.652829 
L 310.980966 93.393863 
L 314.588239 94.995869 
L 318.195511 92.847197 
L 321.802784 90.903135 
L 325.410057 93.62488 
L 329.01733 91.275956 
L 332.624602 97.536088 
L 336.231875 90.266062 
L 339.839148 91.954672 
L 343.44642 88.734045 
L 347.053693 87.637399 
L 350.660966 87.555798 
L 354.268239 82.55436 
L 357.875511 84.374499 
L 361.482784 90.320352 
L 365.090057 88.404468 
L 368.69733 89.851484 
L 372.304602 90.770242 
L 375.911875 82.237913 
L 379.519148 86.287035 
L 383.12642 82.371326 
L 386.733693 83.120976 
L 390.340966 83.586188 
L 393.948239 80.447325 
L 397.555511 80.935656 
L 401.162784 82.197494 
L 404.770057 80.198804 
L 408.37733 81.872117 
L 411.984602 82.319557 
L 415.591875 81.803999 
" style="fill:none;stroke:#800080;stroke-linecap:square;stroke-width:1.5;"/>
   </g>
   <g id="patch_3">
    <path d="M 58.471875 292.077375 
L 58.471875 25.965375 
" style="fill:none;stroke:#000000;stroke-linecap:square;stroke-linejoin:miter;stroke-width:0.8;"/>
   </g>
   <g id="patch_4">
    <path d="M 415.591875 292.077375 
L 415.591875 25.965375 
" style="fill:none;stroke:#000000;stroke-linecap:square;stroke-linejoin:miter;stroke-width:0.8;"/>
   </g>
   <g id="patch_5">
    <path d="M 58.471875 292.077375 
L 415.591875 292.077375 
" style="fill:none;stroke:#000000;stroke-linecap:square;stroke-linejoin:miter;stroke-width:0.8;"/>
   </g>
   <g id="patch_6">
    <path d="M 58.471875 25.965375 
L 415.591875 25.965375 
" style="fill:none;stroke:#000000;stroke-linecap:square;stroke-linejoin:miter;stroke-width:0.8;"/>
   </g>
   <g id="text_14">
    <!-- Swimmer-v2 -->
    <g transform="translate(184.919062 19.965375)scale(0.168 -0.168)">
     <defs>
      <path d="M 53.515625 70.515625 
L 53.515625 60.890625 
Q 47.90625 63.578125 42.921875 64.890625 
Q 37.9375 66.21875 33.296875 66.21875 
Q 25.25 66.21875 20.875 63.09375 
Q 16.5 59.96875 16.5 54.203125 
Q 16.5 49.359375 19.40625 46.890625 
Q 22.3125 44.4375 30.421875 42.921875 
L 36.375 41.703125 
Q 47.40625 39.59375 52.65625 34.296875 
Q 57.90625 29 57.90625 20.125 
Q 57.90625 9.515625 50.796875 4.046875 
Q 43.703125 -1.421875 29.984375 -1.421875 
Q 24.8125 -1.421875 18.96875 -0.25 
Q 13.140625 0.921875 6.890625 3.21875 
L 6.890625 13.375 
Q 12.890625 10.015625 18.65625 8.296875 
Q 24.421875 6.59375 29.984375 6.59375 
Q 38.421875 6.59375 43.015625 9.90625 
Q 47.609375 13.234375 47.609375 19.390625 
Q 47.609375 24.75 44.3125 27.78125 
Q 41.015625 30.8125 33.5 32.328125 
L 27.484375 33.5 
Q 16.453125 35.6875 11.515625 40.375 
Q 6.59375 45.0625 6.59375 53.421875 
Q 6.59375 63.09375 13.40625 68.65625 
Q 20.21875 74.21875 32.171875 74.21875 
Q 37.3125 74.21875 42.625 73.28125 
Q 47.953125 72.359375 53.515625 70.515625 
z
" id="DejaVuSans-83"/>
      <path d="M 4.203125 54.6875 
L 13.1875 54.6875 
L 24.421875 12.015625 
L 35.59375 54.6875 
L 46.1875 54.6875 
L 57.421875 12.015625 
L 68.609375 54.6875 
L 77.59375 54.6875 
L 63.28125 0 
L 52.6875 0 
L 40.921875 44.828125 
L 29.109375 0 
L 18.5 0 
z
" id="DejaVuSans-119"/>
      <path d="M 52 44.1875 
Q 55.375 50.25 60.0625 53.125 
Q 64.75 56 71.09375 56 
Q 79.640625 56 84.28125 50.015625 
Q 88.921875 44.046875 88.921875 33.015625 
L 88.921875 0 
L 79.890625 0 
L 79.890625 32.71875 
Q 79.890625 40.578125 77.09375 44.375 
Q 74.3125 48.1875 68.609375 48.1875 
Q 61.625 48.1875 57.5625 43.546875 
Q 53.515625 38.921875 53.515625 30.90625 
L 53.515625 0 
L 44.484375 0 
L 44.484375 32.71875 
Q 44.484375 40.625 41.703125 44.40625 
Q 38.921875 48.1875 33.109375 48.1875 
Q 26.21875 48.1875 22.15625 43.53125 
Q 18.109375 38.875 18.109375 30.90625 
L 18.109375 0 
L 9.078125 0 
L 9.078125 54.6875 
L 18.109375 54.6875 
L 18.109375 46.1875 
Q 21.1875 51.21875 25.484375 53.609375 
Q 29.78125 56 35.6875 56 
Q 41.65625 56 45.828125 52.96875 
Q 50 49.953125 52 44.1875 
z
" id="DejaVuSans-109"/>
      <path d="M 4.890625 31.390625 
L 31.203125 31.390625 
L 31.203125 23.390625 
L 4.890625 23.390625 
z
" id="DejaVuSans-45"/>
     </defs>
     <use xlink:href="#DejaVuSans-83"/>
     <use x="63.476562" xlink:href="#DejaVuSans-119"/>
     <use x="145.263672" xlink:href="#DejaVuSans-105"/>
     <use x="173.046875" xlink:href="#DejaVuSans-109"/>
     <use x="270.458984" xlink:href="#DejaVuSans-109"/>
     <use x="367.871094" xlink:href="#DejaVuSans-101"/>
     <use x="429.394531" xlink:href="#DejaVuSans-114"/>
     <use x="464.132812" xlink:href="#DejaVuSans-45"/>
     <use x="497.591797" xlink:href="#DejaVuSans-118"/>
     <use x="556.771484" xlink:href="#DejaVuSans-50"/>
    </g>
   </g>
   <g id="legend_1">
    <g id="patch_7">
     <path d="M 215.645625 285.077375 
L 405.791875 285.077375 
Q 408.591875 285.077375 408.591875 282.277375 
L 408.591875 222.02925 
Q 408.591875 219.22925 405.791875 219.22925 
L 215.645625 219.22925 
Q 212.845625 219.22925 212.845625 222.02925 
L 212.845625 282.277375 
Q 212.845625 285.077375 215.645625 285.077375 
z
" style="fill:#ffffff;opacity:0.8;stroke:#cccccc;stroke-linejoin:miter;"/>
    </g>
    <g id="line2d_26">
     <path d="M 218.445625 230.567062 
L 246.445625 230.567062 
" style="fill:none;stroke:#ff0000;stroke-linecap:square;stroke-width:1.5;"/>
    </g>
    <g id="line2d_27"/>
    <g id="text_15">
     <!-- DPN-Weights-PPO -->
     <g transform="translate(257.645625 235.467062)scale(0.14 -0.14)">
      <defs>
       <path d="M 19.671875 64.796875 
L 19.671875 8.109375 
L 31.59375 8.109375 
Q 46.6875 8.109375 53.6875 14.9375 
Q 60.6875 21.78125 60.6875 36.53125 
Q 60.6875 51.171875 53.6875 57.984375 
Q 46.6875 64.796875 31.59375 64.796875 
z
M 9.8125 72.90625 
L 30.078125 72.90625 
Q 51.265625 72.90625 61.171875 64.09375 
Q 71.09375 55.28125 71.09375 36.53125 
Q 71.09375 17.671875 61.125 8.828125 
Q 51.171875 0 30.078125 0 
L 9.8125 0 
z
" id="DejaVuSans-68"/>
       <path d="M 19.671875 64.796875 
L 19.671875 37.40625 
L 32.078125 37.40625 
Q 38.96875 37.40625 42.71875 40.96875 
Q 46.484375 44.53125 46.484375 51.125 
Q 46.484375 57.671875 42.71875 61.234375 
Q 38.96875 64.796875 32.078125 64.796875 
z
M 9.8125 72.90625 
L 32.078125 72.90625 
Q 44.34375 72.90625 50.609375 67.359375 
Q 56.890625 61.8125 56.890625 51.125 
Q 56.890625 40.328125 50.609375 34.8125 
Q 44.34375 29.296875 32.078125 29.296875 
L 19.671875 29.296875 
L 19.671875 0 
L 9.8125 0 
z
" id="DejaVuSans-80"/>
       <path d="M 9.8125 72.90625 
L 23.09375 72.90625 
L 55.421875 11.921875 
L 55.421875 72.90625 
L 64.984375 72.90625 
L 64.984375 0 
L 51.703125 0 
L 19.390625 60.984375 
L 19.390625 0 
L 9.8125 0 
z
" id="DejaVuSans-78"/>
       <path d="M 3.328125 72.90625 
L 13.28125 72.90625 
L 28.609375 11.28125 
L 43.890625 72.90625 
L 54.984375 72.90625 
L 70.3125 11.28125 
L 85.59375 72.90625 
L 95.609375 72.90625 
L 77.296875 0 
L 64.890625 0 
L 49.515625 63.28125 
L 33.984375 0 
L 21.578125 0 
z
" id="DejaVuSans-87"/>
       <path d="M 54.890625 33.015625 
L 54.890625 0 
L 45.90625 0 
L 45.90625 32.71875 
Q 45.90625 40.484375 42.875 44.328125 
Q 39.84375 48.1875 33.796875 48.1875 
Q 26.515625 48.1875 22.3125 43.546875 
Q 18.109375 38.921875 18.109375 30.90625 
L 18.109375 0 
L 9.078125 0 
L 9.078125 75.984375 
L 18.109375 75.984375 
L 18.109375 46.1875 
Q 21.34375 51.125 25.703125 53.5625 
Q 30.078125 56 35.796875 56 
Q 45.21875 56 50.046875 50.171875 
Q 54.890625 44.34375 54.890625 33.015625 
z
" id="DejaVuSans-104"/>
       <path d="M 39.40625 66.21875 
Q 28.65625 66.21875 22.328125 58.203125 
Q 16.015625 50.203125 16.015625 36.375 
Q 16.015625 22.609375 22.328125 14.59375 
Q 28.65625 6.59375 39.40625 6.59375 
Q 50.140625 6.59375 56.421875 14.59375 
Q 62.703125 22.609375 62.703125 36.375 
Q 62.703125 50.203125 56.421875 58.203125 
Q 50.140625 66.21875 39.40625 66.21875 
z
M 39.40625 74.21875 
Q 54.734375 74.21875 63.90625 63.9375 
Q 73.09375 53.65625 73.09375 36.375 
Q 73.09375 19.140625 63.90625 8.859375 
Q 54.734375 -1.421875 39.40625 -1.421875 
Q 24.03125 -1.421875 14.8125 8.828125 
Q 5.609375 19.09375 5.609375 36.375 
Q 5.609375 53.65625 14.8125 63.9375 
Q 24.03125 74.21875 39.40625 74.21875 
z
" id="DejaVuSans-79"/>
      </defs>
      <use xlink:href="#DejaVuSans-68"/>
      <use x="77.001953" xlink:href="#DejaVuSans-80"/>
      <use x="137.304688" xlink:href="#DejaVuSans-78"/>
      <use x="212.109375" xlink:href="#DejaVuSans-45"/>
      <use x="244.193359" xlink:href="#DejaVuSans-87"/>
      <use x="337.195312" xlink:href="#DejaVuSans-101"/>
      <use x="398.71875" xlink:href="#DejaVuSans-105"/>
      <use x="426.501953" xlink:href="#DejaVuSans-103"/>
      <use x="489.978516" xlink:href="#DejaVuSans-104"/>
      <use x="553.357422" xlink:href="#DejaVuSans-116"/>
      <use x="592.566406" xlink:href="#DejaVuSans-115"/>
      <use x="644.666016" xlink:href="#DejaVuSans-45"/>
      <use x="680.75" xlink:href="#DejaVuSans-80"/>
      <use x="741.052734" xlink:href="#DejaVuSans-80"/>
      <use x="801.355469" xlink:href="#DejaVuSans-79"/>
     </g>
    </g>
    <g id="line2d_28">
     <path d="M 218.445625 251.116437 
L 246.445625 251.116437 
" style="fill:none;stroke:#0000ff;stroke-linecap:square;stroke-width:1.5;"/>
    </g>
    <g id="line2d_29"/>
    <g id="text_16">
     <!-- SPN-Weights-GA -->
     <g transform="translate(257.645625 256.016437)scale(0.14 -0.14)">
      <use xlink:href="#DejaVuSans-83"/>
      <use x="63.476562" xlink:href="#DejaVuSans-80"/>
      <use x="123.779297" xlink:href="#DejaVuSans-78"/>
      <use x="198.583984" xlink:href="#DejaVuSans-45"/>
      <use x="230.667969" xlink:href="#DejaVuSans-87"/>
      <use x="323.669922" xlink:href="#DejaVuSans-101"/>
      <use x="385.193359" xlink:href="#DejaVuSans-105"/>
      <use x="412.976562" xlink:href="#DejaVuSans-103"/>
      <use x="476.453125" xlink:href="#DejaVuSans-104"/>
      <use x="539.832031" xlink:href="#DejaVuSans-116"/>
      <use x="579.041016" xlink:href="#DejaVuSans-115"/>
      <use x="631.140625" xlink:href="#DejaVuSans-45"/>
      <use x="670.849609" xlink:href="#DejaVuSans-71"/>
      <use x="748.339844" xlink:href="#DejaVuSans-65"/>
     </g>
    </g>
    <g id="line2d_30">
     <path d="M 218.445625 271.665812 
L 246.445625 271.665812 
" style="fill:none;stroke:#800080;stroke-linecap:square;stroke-width:1.5;"/>
    </g>
    <g id="line2d_31"/>
    <g id="text_17">
     <!-- SPN-Connections-GA -->
     <g transform="translate(257.645625 276.565812)scale(0.14 -0.14)">
      <defs>
       <path d="M 64.40625 67.28125 
L 64.40625 56.890625 
Q 59.421875 61.53125 53.78125 63.8125 
Q 48.140625 66.109375 41.796875 66.109375 
Q 29.296875 66.109375 22.65625 58.46875 
Q 16.015625 50.828125 16.015625 36.375 
Q 16.015625 21.96875 22.65625 14.328125 
Q 29.296875 6.6875 41.796875 6.6875 
Q 48.140625 6.6875 53.78125 8.984375 
Q 59.421875 11.28125 64.40625 15.921875 
L 64.40625 5.609375 
Q 59.234375 2.09375 53.4375 0.328125 
Q 47.65625 -1.421875 41.21875 -1.421875 
Q 24.65625 -1.421875 15.125 8.703125 
Q 5.609375 18.84375 5.609375 36.375 
Q 5.609375 53.953125 15.125 64.078125 
Q 24.65625 74.21875 41.21875 74.21875 
Q 47.75 74.21875 53.53125 72.484375 
Q 59.328125 70.75 64.40625 67.28125 
z
" id="DejaVuSans-67"/>
       <path d="M 48.78125 52.59375 
L 48.78125 44.1875 
Q 44.96875 46.296875 41.140625 47.34375 
Q 37.3125 48.390625 33.40625 48.390625 
Q 24.65625 48.390625 19.8125 42.84375 
Q 14.984375 37.3125 14.984375 27.296875 
Q 14.984375 17.28125 19.8125 11.734375 
Q 24.65625 6.203125 33.40625 6.203125 
Q 37.3125 6.203125 41.140625 7.25 
Q 44.96875 8.296875 48.78125 10.40625 
L 48.78125 2.09375 
Q 45.015625 0.34375 40.984375 -0.53125 
Q 36.96875 -1.421875 32.421875 -1.421875 
Q 20.0625 -1.421875 12.78125 6.34375 
Q 5.515625 14.109375 5.515625 27.296875 
Q 5.515625 40.671875 12.859375 48.328125 
Q 20.21875 56 33.015625 56 
Q 37.15625 56 41.109375 55.140625 
Q 45.0625 54.296875 48.78125 52.59375 
z
" id="DejaVuSans-99"/>
      </defs>
      <use xlink:href="#DejaVuSans-83"/>
      <use x="63.476562" xlink:href="#DejaVuSans-80"/>
      <use x="123.779297" xlink:href="#DejaVuSans-78"/>
      <use x="198.583984" xlink:href="#DejaVuSans-45"/>
      <use x="234.667969" xlink:href="#DejaVuSans-67"/>
      <use x="304.492188" xlink:href="#DejaVuSans-111"/>
      <use x="365.673828" xlink:href="#DejaVuSans-110"/>
      <use x="429.052734" xlink:href="#DejaVuSans-110"/>
      <use x="492.431641" xlink:href="#DejaVuSans-101"/>
      <use x="553.955078" xlink:href="#DejaVuSans-99"/>
      <use x="608.935547" xlink:href="#DejaVuSans-116"/>
      <use x="648.144531" xlink:href="#DejaVuSans-105"/>
      <use x="675.927734" xlink:href="#DejaVuSans-111"/>
      <use x="737.109375" xlink:href="#DejaVuSans-110"/>
      <use x="800.488281" xlink:href="#DejaVuSans-115"/>
      <use x="852.587891" xlink:href="#DejaVuSans-45"/>
      <use x="892.296875" xlink:href="#DejaVuSans-71"/>
      <use x="969.787109" xlink:href="#DejaVuSans-65"/>
     </g>
    </g>
   </g>
  </g>
 </g>
 <defs>
  <clipPath id="p2a16c8dc27">
   <rect height="266.112" width="357.12" x="58.471875" y="25.965375"/>
  </clipPath>
 </defs>
</svg>
